<svg width="66" height="59" viewBox="0 0 66 59" fill="none" xmlns="http://www.w3.org/2000/svg">
<path fill-rule="evenodd" clip-rule="evenodd" d="M30.7821 57.7739C36.3446 58.1745 42.3225 57.9832 47.6714 56.3178C51.2821 55.1451 54.5714 53.1686 57.053 50.2658C58.3352 48.7661 59.3442 47.0995 60.1257 45.3253C59.6506 44.9818 59.1242 44.7034 58.5537 44.4999C57.924 44.2746 58.1969 43.2655 58.8317 43.4919C59.4395 43.7088 60.0091 43.9946 60.531 44.3437C60.9019 43.3838 61.2113 42.3968 61.4658 41.3916C60.7678 41.185 60.0367 41.0711 59.2829 41.0536C58.6103 41.038 58.6099 39.9925 59.2829 40.0085C60.1178 40.028 60.9282 40.1526 61.703 40.3774C61.9648 39.1603 62.1513 37.9213 62.2741 36.6754C61.322 36.6637 60.3664 36.8225 59.4203 37.1537C58.7833 37.377 58.5119 36.3671 59.1428 36.1461C60.194 35.778 61.2804 35.6045 62.3627 35.6266C62.5357 33.1736 62.4756 30.711 62.2705 28.3542C61.5313 19.8601 58.3966 11.593 53.2808 4.77074L52.3809 6.49356C51.8555 7.49935 51.3301 8.50511 50.8046 9.51172C50.7413 9.63299 50.6785 9.7557 50.6156 9.87882C50.0244 11.0355 49.4143 12.2291 48.0743 12.6215C47.9929 12.6453 47.9106 12.6667 47.8277 12.6858C48.351 14.8209 48.3915 17.0386 47.8679 19.1822C47.4943 20.7105 46.7342 22.5394 44.9525 22.762C42.9659 23.0099 42.3795 21.058 42.1742 19.4808C41.8771 17.2037 42.1152 14.9095 42.8003 12.7222C42.8192 12.6619 42.8453 12.6097 42.8768 12.5652L39.9967 12.3796C40.5955 14.1635 40.2868 16.0286 39.7952 17.8486C39.4134 19.2622 38.8544 21.2758 37.1765 21.6037C35.5689 21.918 34.5247 20.3974 34.1386 19.0432C33.5065 16.8259 33.7849 14.3063 34.4743 12.1409C34.4876 12.0991 34.5043 12.0611 34.5239 12.027L32.5824 11.902L31.1143 11.8074C31.3932 13.8428 31.3397 15.8987 30.893 17.9154C30.6072 19.204 30.0275 21.0646 28.4593 21.2371C26.8627 21.4128 26.0897 19.7158 25.8212 18.419C25.3668 16.2239 25.4347 13.9729 25.9129 11.7896C25.9441 11.6469 26.016 11.5484 26.1079 11.4882C25.8486 11.4729 25.5892 11.4579 25.3298 11.443L25.3292 11.4429H25.3291C24.0991 11.3719 22.8684 11.3008 21.6421 11.1954C20.3086 11.081 19.2799 10.6704 18.4683 9.5773C17.8102 8.69085 17.2762 7.69307 16.7478 6.70571V6.70569C16.5317 6.30207 16.3167 5.90019 16.0944 5.50838C15.3407 4.17858 14.5871 2.84878 13.8334 1.52016C9.9797 7.50337 7.32096 14.1984 5.99683 21.1962C5.23781 25.2078 4.87901 29.3892 5.0349 33.5294C6.11703 33.6295 7.18982 33.904 8.22321 34.3449C8.8404 34.6084 8.30714 35.5087 7.69541 35.2475C6.84849 34.886 5.97097 34.663 5.08521 34.5728C5.13226 35.3719 5.19893 36.1689 5.28604 36.9621C6.11855 36.7525 6.9806 36.6572 7.86252 36.6794C8.53514 36.6962 8.53553 37.7413 7.86252 37.7245C7.01481 37.7033 6.19884 37.7975 5.41317 38.0083C5.5339 38.9137 5.68199 39.8134 5.85869 40.7049C6.89098 40.1955 7.98105 39.8047 9.12693 39.5397C9.78237 39.3878 10.06 40.3958 9.40488 40.5473C8.2457 40.8155 7.13747 41.2153 6.09459 41.7479C7.43802 46.9037 11.2317 51.0502 15.8223 53.6652C20.3613 56.2507 25.6115 57.4023 30.7821 57.7739ZM5.18331 42.2575C5.74605 44.2985 6.60097 46.202 7.90618 48.0039C9.4107 50.0803 11.2561 51.8737 13.3563 53.3435C17.7332 56.4061 23.0057 57.9219 28.2571 58.5734C31.2782 58.9478 34.3322 59.031 37.3724 58.9049C40.9429 58.7561 44.525 58.3919 47.9494 57.3258C53.8284 55.4153 58.3868 51.4461 60.9278 46.0161C61.3573 46.4541 61.7257 46.9569 62.0246 47.5132C62.3427 48.1062 63.2453 47.5792 62.9271 46.9862C62.5185 46.2255 61.993 45.5588 61.373 44.9993C61.6382 44.3503 61.8758 43.6821 62.0846 42.9957C62.2103 42.5828 62.3275 42.1667 62.4365 41.748C63.2502 42.1079 64.0069 42.6041 64.6873 43.23C65.1815 43.6847 65.9225 42.9473 65.4263 42.491C64.6026 41.7333 63.6801 41.1405 62.6852 40.7242C62.9795 39.423 63.1968 38.0985 63.3426 36.7604C63.9934 36.856 64.6403 37.0317 65.2792 37.2868C65.9038 37.5367 66.1747 36.526 65.5567 36.2793C64.8672 36.0037 64.1584 35.8153 63.4419 35.7137C63.9556 29.3779 62.9145 22.7919 60.8936 16.9449C59.2072 12.0664 56.7302 7.51298 53.565 3.43702C53.3608 3.17352 52.8861 3.27189 52.744 3.5436C51.8274 5.29718 50.9104 7.05311 49.9938 8.80864C49.8996 8.98897 49.8071 9.18396 49.712 9.38442V9.38451L49.7119 9.3846V9.38469L49.7118 9.38482V9.38495L49.7117 9.38505C49.3938 10.0554 49.0468 10.7868 48.5123 11.2356C47.8106 11.8247 46.8523 11.7693 45.9893 11.7194L45.8511 11.7115C43.0498 11.5552 40.2495 11.3667 37.4496 11.1782H37.4495H37.4494H37.4493H37.4492H37.4491H37.449H37.4489H37.4488C36.067 11.0852 34.6853 10.9922 33.3035 10.903L30.8336 10.7441C30.6645 10.6009 30.3963 10.5551 30.2176 10.682L30.1886 10.7026L27.132 10.5056C26.1064 10.4398 25.0804 10.3736 24.0545 10.3074L24.0465 10.3069C23.7558 10.2882 23.4577 10.2784 23.1568 10.2684C22.4029 10.2435 21.632 10.2181 20.9199 10.0512C19.4331 9.70329 18.6052 8.05509 17.8983 6.64785L17.8982 6.64781C17.7255 6.30403 17.5601 5.97464 17.394 5.6821C16.8814 4.77727 16.3687 3.87293 15.856 2.96859C15.343 2.06372 14.8299 1.15884 14.317 0.253478C14.114 -0.104109 13.6264 -0.0642905 13.4149 0.253478C6.90307 10.0152 3.60708 21.7871 4.04145 33.4866C2.79531 33.4947 1.54899 33.7358 0.348085 34.2216C-0.267543 34.4706 0.00142813 35.4821 0.625645 35.2295C1.74607 34.7764 2.91792 34.538 4.08994 34.527C4.14119 35.4406 4.21531 36.3534 4.31254 37.2643C3.76802 37.4663 3.23867 37.7197 2.72747 38.0235C2.15009 38.367 2.67515 39.2708 3.25526 38.9261C3.64125 38.6966 4.03534 38.5001 4.43776 38.3364C4.46778 38.5729 4.49936 38.8093 4.53252 39.0455C4.63616 39.7839 4.76392 40.5046 4.92186 41.2089C4.2581 41.5965 3.62026 42.0357 3.0089 42.5245C2.48384 42.9442 3.22751 43.6793 3.74789 43.2631C4.20816 42.8952 4.68722 42.5601 5.18331 42.2575ZM43.6996 21.1745C43.508 20.8751 43.3781 20.4845 43.2896 20.0689C43.4076 20.4417 43.5443 20.8106 43.6996 21.1745ZM45.2051 21.6276C45.2626 21.6049 45.3183 21.5794 45.3724 21.5512C45.3461 21.5573 45.3195 21.5615 45.293 21.5637C45.2639 21.5853 45.2346 21.6066 45.2051 21.6276ZM45.7966 21.1476L45.7746 21.2004C45.7542 21.2495 45.7291 21.2935 45.7004 21.3326C45.9088 21.1605 46.0863 20.9438 46.2379 20.6982C46.099 20.8548 45.9518 21.0049 45.7966 21.1476ZM44.8626 12.726L44.616 12.7016C44.5222 12.6922 44.4288 12.6829 44.336 12.6739C44.3884 12.7677 44.4346 12.8618 44.4747 12.9561C44.5961 12.8708 44.7256 12.794 44.8626 12.726ZM43.8493 15.375C43.8423 15.4373 43.8358 15.4997 43.8298 15.562C43.8546 15.5 43.8801 15.4383 43.9063 15.3769C43.8873 15.3774 43.8683 15.3768 43.8493 15.375ZM38.6473 12.2925L38.6621 12.2935L38.6572 12.3114L38.6527 12.3027L38.6473 12.2925ZM36.9144 12.1809L37.1601 12.1967C37.1393 12.2108 37.1194 12.2267 37.1004 12.2444C37.0615 12.2805 37.0234 12.317 36.986 12.3539C36.973 12.2919 36.9481 12.2336 36.9144 12.1809ZM36.072 20.3816C35.8973 20.2572 35.7474 20.0832 35.619 19.879C35.7302 19.9784 35.8492 20.074 35.9763 20.1654C36.0063 20.2377 36.0382 20.3098 36.072 20.3816ZM29.924 17.6825C29.782 18.4344 29.5507 19.2165 29.1308 19.7145C29.4508 19.0562 29.7151 18.3781 29.924 17.6825ZM28.6023 11.6457C28.5686 11.6622 28.5348 11.6785 28.5009 11.6947C28.2531 11.6917 28.0197 11.7199 27.7984 11.7787L27.7996 11.594L28.6023 11.6457ZM27.9636 19.702C28.003 19.6286 28.0416 19.5549 28.0794 19.4809C28.0346 19.4441 27.9919 19.4063 27.9513 19.3673C27.8987 19.3789 27.8438 19.3819 27.7891 19.3772C27.8434 19.4868 27.9015 19.5951 27.9636 19.702ZM27.1121 16.0922C27.111 16.4041 27.1233 16.7142 27.152 17.0207C27.2169 16.6598 27.2998 16.3054 27.4001 15.9581C27.37 15.9411 27.3411 15.9227 27.3134 15.9032L27.2218 16.0014C27.1872 16.0386 27.1503 16.0687 27.1121 16.0922ZM27.3169 18.0487C27.3466 18.1752 27.3798 18.3008 27.4167 18.4252L27.4261 18.4011C27.4202 18.3724 27.4149 18.3432 27.41 18.3136C27.3979 18.24 27.3998 18.1712 27.4127 18.1079C27.3793 18.0915 27.3472 18.0717 27.3169 18.0487ZM52.4661 12.7827C52.5575 11.6885 52.7417 10.6138 53.0329 9.55505C53.1586 9.09719 53.6975 9.10046 53.9411 9.37021C54.0734 9.40614 54.1952 9.482 54.27 9.58902C55.0004 10.6341 55.5735 11.7564 56.0131 12.9529C56.1013 13.193 55.9128 13.5576 55.6481 13.5955C55.1424 13.6679 54.6492 13.6813 54.1636 13.6246C54.0364 13.6522 53.9064 13.6296 53.7968 13.568C53.4788 13.5068 53.1636 13.414 52.8498 13.2863C52.6472 13.2039 52.4458 13.0294 52.4661 12.7827ZM54.2996 11.6431L54.2788 11.6036L54.2827 11.6427L54.2996 11.6431ZM11.582 8.67236L11.5814 8.67329L11.1359 9.36806C10.9965 9.5855 11.0715 9.97315 11.3233 10.0828C12.371 10.54 13.4375 10.6696 14.563 10.4623C14.8441 10.4104 14.9936 10.0739 14.928 9.81973C14.6864 8.88282 14.3245 7.99158 13.8486 7.15148C13.7872 7.04256 13.6953 6.96898 13.5914 6.92986C13.3954 6.66313 12.9304 6.56981 12.6947 6.93834C12.3238 7.51568 11.9529 8.09402 11.582 8.67236ZM13.7528 9.51867C13.6074 9.52705 13.4621 9.52794 13.3173 9.52131C13.2983 9.43937 13.2611 9.36366 13.2057 9.30347C13.2717 9.31076 13.3397 9.31036 13.4091 9.3013C13.5031 9.28909 13.5841 9.2609 13.652 9.22128C13.6871 9.31973 13.7207 9.41885 13.7528 9.51867ZM50.9729 26.9314C51.0937 28.0412 50.7129 29.2018 49.8307 29.9898C49.5836 30.2112 49.1858 30.1893 49.0101 29.8844C47.8831 27.9294 47.9998 25.4895 49.3755 23.6864C49.5633 23.44 49.9513 23.2999 50.1961 23.5806C51.0349 24.5436 51.2952 25.7938 50.9729 26.9314ZM49.7118 26.2455C49.6891 26.1972 49.6649 26.1495 49.639 26.1024C49.6263 26.1773 49.6173 26.2523 49.6121 26.3272L49.632 26.3094L49.6554 26.289C49.6737 26.2733 49.6925 26.2588 49.7118 26.2455ZM18.4036 26.1023C18.4294 26.1494 18.4536 26.1971 18.4763 26.2454C18.4569 26.2586 18.438 26.2732 18.4196 26.289C18.4051 26.3016 18.3907 26.3142 18.3766 26.3269C18.3818 26.2521 18.3908 26.1771 18.4036 26.1023ZM18.9607 23.5806C19.7999 24.5437 20.06 25.794 19.7375 26.9318C19.8582 28.0415 19.4774 29.2019 18.5953 29.9898C18.3481 30.2112 17.9504 30.1893 17.7747 29.8844C16.6477 27.9294 16.7648 25.4895 18.1401 23.6864C18.3278 23.44 18.7163 23.2999 18.9607 23.5806ZM32.7558 31.5369C33.0326 31.1209 33.4825 30.8215 34.0621 30.7601C34.3853 30.7258 34.7588 30.7892 35.1069 30.9251C35.6163 30.9038 36.1188 31.0173 36.5473 31.2996C38.1257 32.3396 37.4691 34.5042 36.0054 35.2004C35.9751 35.719 35.928 36.2632 35.8502 36.809C35.7916 38.6847 36.0433 40.7564 37.2249 41.9983C38.2071 43.0301 39.6519 42.7314 40.5646 41.7676C41.493 40.7874 41.717 39.3254 41.874 38.0387C41.9544 37.3786 43.0002 37.3723 42.919 38.0387C42.7266 39.6186 42.4431 41.305 41.3036 42.507C40.3741 43.4868 38.9161 44.0322 37.6138 43.5157C36.0967 42.9137 35.3519 41.3822 35.0294 39.6734C34.4541 40.8197 33.5475 41.7182 32.1106 42.0268C28.9442 42.7072 26.3353 39.8255 27.1063 36.7407C27.2695 36.0876 28.2774 36.3659 28.1143 37.0182C27.4342 39.7388 30.3164 42.1549 32.8215 40.6324C34.1234 39.8413 34.614 38.3544 34.8214 36.8522C34.8312 36.3501 34.8618 35.8686 34.9037 35.4279C34.347 35.4217 33.7842 35.2594 33.3248 34.9479C32.6171 34.7806 32.1021 34.1815 32.1465 33.422C31.4901 32.6712 31.999 31.6326 32.7558 31.5369ZM36.379 33.1938C36.3175 33.6107 36.0533 34.0225 35.6472 34.2274C35.6384 34.226 35.6296 34.2249 35.6207 34.224C35.9355 33.9217 36.2029 33.5163 36.379 33.1938Z" fill="#2B2A29"/>
</svg>
