<svg width="57" height="57" viewBox="0 0 57 57" fill="none" xmlns="http://www.w3.org/2000/svg">
<path d="M42.1753 54.5631C40.3915 55.1294 38.4588 55.5245 36.3848 55.7474C24.1027 57.0679 8.99973 55.3943 2.38418 43.6482C1.3064 41.7343 0.84362 39.5421 0.53007 37.3704C-1.33792 24.4339 1.78042 10.8471 9.10759 0C10.5255 2.4874 11.9437 4.9751 13.3619 7.46455C13.7987 8.23038 14.2748 9.03589 15.0549 9.45279C15.6498 9.77056 16.3476 9.82056 17.0213 9.86348C24.7696 10.36 32.5179 10.8565 40.2665 11.3531C41.2027 11.4133 42.2191 11.4524 42.9912 10.9227C43.5534 10.5373 43.89 9.91166 44.2061 9.30988C45.2777 7.26817 46.3496 5.22615 47.4211 3.18649C54.6729 12.3988 58.0569 24.5321 56.6133 36.1448C55.4165 45.771 50.3643 51.9653 42.1753 54.5631Z" fill="#2B2A29"/>
<path d="M41.6815 24.096C41.1818 25.3581 41.8789 26.6977 43.0897 27.204C43.2502 27.271 43.4703 27.1896 43.585 27.0738C44.3649 26.2853 45.0035 25.2551 44.7423 24.1068C44.5133 23.1002 43.58 22.3454 42.5241 22.5935C41.5683 22.8178 40.855 23.7303 40.8798 24.7057C40.9093 25.8593 41.8092 26.7257 42.8255 27.1243C42.9895 27.189 43.2029 27.1114 43.3208 26.9944C44.2862 26.0357 44.2839 24.4653 43.3093 23.5142C43.0471 23.2584 42.5424 23.357 42.4582 23.7376C42.313 24.3929 42.3225 25.0179 42.5022 25.665C42.6762 26.2924 43.6589 26.026 43.484 25.3954C43.3518 24.92 43.3335 24.487 43.4399 24.0066C43.1565 24.0813 42.8728 24.1557 42.5891 24.2301C43.1709 24.798 43.179 25.7044 42.6009 26.2782C42.7661 26.2347 42.9313 26.1912 43.0962 26.1478C42.5066 25.9167 41.9251 25.3772 41.8979 24.7057C41.8769 24.1757 42.2743 23.6547 42.8119 23.5709C43.4692 23.469 43.8146 24.1598 43.7874 24.7249C43.7564 25.374 43.3004 25.9178 42.8651 26.3576C43.0303 26.3142 43.1952 26.2709 43.3604 26.2274C42.6222 25.9187 42.3888 25.0588 42.6633 24.3653C42.9035 23.7585 41.9191 23.4954 41.6815 24.096Z" fill="#FEFEFE"/>
<path d="M13.918 21.54C12.3028 22.0924 13.153 24.5342 14.7412 24.339C16.4962 24.1235 17.423 21.2651 15.816 20.2623C14.0209 19.1426 12.2404 22.2847 13.0859 23.7343C14.1802 25.6094 16.7415 23.9077 16.3174 22.0918C16.1014 21.1678 15.0493 20.7165 14.2517 21.2887C13.2975 21.9734 13.7162 23.246 14.6947 23.6226C15.3064 23.8578 15.5712 22.8788 14.9654 22.646C14.328 22.4005 14.9908 21.8292 15.2625 22.1553C15.3555 22.2667 15.354 22.4601 15.3434 22.5978C15.3126 22.9973 15.0074 23.4491 14.5937 23.533C13.9074 23.672 13.7724 22.8312 13.9098 22.3705C14.0387 21.9395 14.4152 21.3113 14.8493 21.1393C15.9022 20.723 15.5952 22.5214 15.2367 22.9461C14.9997 23.2268 14.5493 23.5238 14.2275 23.2052C14.0969 23.0758 13.9308 22.6049 14.1888 22.5163C14.8046 22.3058 14.5401 21.3269 13.918 21.54Z" fill="#FEFEFE"/>
<path d="M26.891 32.9945C26.8053 33.2785 26.7196 33.5624 26.6339 33.8465C26.5827 34.0158 26.6368 34.2169 26.7648 34.3392C26.982 34.547 27.1992 34.7549 27.4161 34.9625C27.5373 35.0783 27.745 35.1576 27.9117 35.0927C28.7793 34.7549 29.4762 34.2037 29.9824 33.4226C30.1166 33.215 30.0389 32.9839 29.9026 32.8087C29.3045 32.0384 28.0163 32.03 27.3999 32.7817C26.7722 33.5475 27.1049 34.7931 27.9838 35.2135C28.9995 35.6997 29.9065 33.9276 29.1292 33.1997C28.2912 32.4148 27.1483 33.7947 28.0941 34.4583C28.6304 34.8348 29.1396 33.9573 28.6079 33.5839C28.8219 33.8579 28.7643 33.9861 28.4348 33.9682C28.4288 34.0205 28.407 34.0649 28.3689 34.102C28.2445 34.2248 28.1283 34.345 27.9891 34.4559C28.1543 34.4127 28.3195 34.3691 28.4845 34.3257C28.1479 34.2087 27.9495 33.7001 28.1928 33.4096C28.4679 33.0812 28.962 33.2405 29.183 33.5249C29.1564 33.3202 29.1298 33.1157 29.1032 32.911C28.7504 33.4558 28.2497 33.8788 27.6407 34.116C27.8059 34.1593 27.9711 34.2031 28.1363 34.2463C27.9191 34.0384 27.7018 33.8309 27.4847 33.6231C27.5281 33.7874 27.5721 33.9515 27.6156 34.1154C27.7013 33.8315 27.787 33.5478 27.8727 33.2638C28.0612 32.6382 27.0789 32.3706 26.891 32.9945Z" fill="#FEFEFE"/>
<path d="M20.2128 39.7767C21.4619 41.4001 23.6691 41.5603 25.4352 40.6724C27.7252 39.5212 28.6071 36.8098 29.3151 34.5455C28.9877 34.4559 28.6605 34.3662 28.3331 34.2766C27.6563 36.8434 27.9832 40.034 30.2543 41.7523C32.1453 43.1828 35.1644 43.1731 36.7005 41.2334C37.1015 40.7268 36.3858 40.0055 35.9803 40.5173C34.6989 42.1353 32.1914 42.0989 30.6775 40.7965C28.9141 39.2796 28.7628 36.6393 29.3151 34.5455C29.4818 33.9132 28.5275 33.6551 28.3331 34.2766C27.776 36.0584 27.1726 38.079 25.6684 39.3172C24.4269 40.3394 22.1833 40.6833 21.0919 39.2654C20.6988 38.7548 19.8143 39.2587 20.2128 39.7767Z" fill="#FEFEFE"/>
<path d="M42.8122 35.1856C44.6415 34.7673 46.471 34.3486 48.3003 33.93C48.9387 33.7839 48.6686 32.807 48.0297 32.9534C46.2003 33.3717 44.3711 33.7904 42.5415 34.209C41.9031 34.3548 42.1732 35.3317 42.8122 35.1856Z" fill="#FEFEFE"/>
<path d="M44.0249 38.7942C45.4526 38.5011 46.8803 38.2086 48.3079 37.9158C48.9489 37.7843 48.6776 36.8077 48.0369 36.9391C46.6093 37.232 45.1819 37.5245 43.7542 37.8172C43.1129 37.9487 43.3842 38.9253 44.0249 38.7942Z" fill="#FEFEFE"/>
<path d="M14.083 32.3617C12.3105 31.6373 10.4892 31.1075 8.60344 30.768C7.96305 30.6527 7.68791 31.6287 8.33304 31.7449C10.2188 32.0844 12.0398 32.6139 13.8126 33.3382C14.4182 33.5858 14.6817 32.6066 14.083 32.3617Z" fill="#FEFEFE"/>
<path d="M6.6273 38.1845C8.72195 38.3232 10.8003 38.2183 12.8731 37.8929C13.5186 37.7917 13.2443 36.8154 12.6024 36.9162C10.6192 37.2276 8.62947 37.3043 6.6273 37.1714C5.973 37.1279 5.97566 38.141 6.6273 38.1845Z" fill="#FEFEFE"/>
</svg>
