<svg width="56" height="57" viewBox="0 0 56 57" fill="none" xmlns="http://www.w3.org/2000/svg">
<path d="M2.89644 0.816241C2.6706 6.37636 2.44453 11.9345 2.21846 17.4933C2.01902 22.3954 1.67847 27.3151 1.7102 32.2227C1.7366 36.2505 2.08735 40.4139 3.64098 44.1736C5.17264 47.8802 7.91141 50.7682 11.5795 52.4383C15.8036 54.3613 20.6473 55.0266 25.2063 55.6796C30.0429 56.3723 35.0231 56.6465 39.8062 55.4575C43.9666 54.4232 47.8911 52.2891 50.5647 48.8916C53.2362 45.4976 54.5285 41.221 54.8959 36.9692C55.3957 31.1605 54.1775 25.3636 53.1062 19.6857C51.9375 13.5047 50.7712 7.32429 49.6047 1.14327C49.518 0.680569 48.8842 0.67858 48.6612 1.01997C46.9891 3.57166 45.1868 6.29416 42.5037 7.89394C39.2673 9.82185 34.992 9.21309 31.3789 9.20182C27.453 9.18945 23.5271 9.15254 19.6017 9.09112C17.7173 9.06173 15.8089 9.10548 13.9291 8.96119C12.1929 8.82795 10.7544 8.23996 9.62677 6.9007C7.77963 4.70675 6.97719 1.82803 4.56566 0.0945725C4.47847 0.0322607 4.39217 0.00331446 4.31053 0H4.27925C3.87281 0.0165723 3.60748 0.670183 4.04475 0.982847C6.36732 2.65046 7.14846 5.62795 8.98051 7.72313C11.325 10.4052 14.9264 10.0404 18.1803 10.0961C22.444 10.169 26.7085 10.2132 30.9729 10.2286C33.1054 10.2362 35.244 10.2779 37.376 10.2187C39.057 10.1719 40.7023 9.93542 42.2315 9.20646C45.4965 7.64911 47.6351 4.46413 49.553 1.53813C49.2393 1.49902 48.9234 1.45792 48.6097 1.41682C49.5737 6.52241 50.5378 11.6282 51.502 16.7343C52.4558 21.793 53.6118 26.8776 53.9071 32.0292C54.1651 36.5194 53.6822 41.1614 51.6526 45.2384C49.6853 49.1939 46.3262 52.0699 42.2011 53.6359C37.8326 55.2947 33.1087 55.4798 28.4979 55.0485C23.879 54.6165 19.034 53.8871 14.5983 52.4915C10.5679 51.2234 7.15955 48.881 5.19106 45.0817C3.39561 41.6166 2.89578 37.6107 2.77154 33.7626C2.60537 28.6186 3.0087 23.4449 3.21746 18.3069C3.45462 12.4769 3.69178 6.6477 3.92872 0.816241C3.95556 0.156221 2.92329 0.156221 2.89644 0.816241Z" fill="#2B2A29"/>
<path d="M44.6025 18.1022C40.5051 17.145 36.6076 19.8675 34.212 22.9667C32.985 24.5546 32.0248 26.5159 32.252 28.5704C32.4641 30.4925 33.7191 32.1279 35.1928 33.3081C38.1408 35.6688 42.3553 36.461 45.8329 34.8137C49.1156 33.2581 51.3741 29.6637 50.8476 26.0123C50.2612 21.9565 46.6939 18.796 42.7775 17.9818C42.1288 17.8472 41.8515 18.838 42.5024 18.9733C45.5316 19.6026 48.3391 21.6997 49.4375 24.6425C50.5709 27.6859 49.4087 30.9676 46.8962 32.9463C44.1772 35.0881 40.405 35.1268 37.4045 33.5372C35.952 32.768 34.5765 31.6157 33.8069 30.1441C32.8696 28.3516 33.2616 26.4032 34.2528 24.7252C36.1947 21.4368 40.2817 18.1484 44.328 19.0937C44.9741 19.2446 45.2507 18.2536 44.6025 18.1022Z" fill="#2B2A29"/>
<path d="M17.6048 18.1022C13.507 17.145 9.60947 19.8675 7.21414 22.9667C5.98707 24.5546 5.0269 26.5159 5.25385 28.5704C5.46617 30.4925 6.72118 32.1279 8.19472 33.3081C11.1427 35.6688 15.3574 36.461 18.835 34.8137C22.1182 33.2581 24.3751 29.6637 23.8488 26.0123C23.2642 21.9565 19.6966 18.796 15.779 17.9818C15.1307 17.8472 14.8536 18.838 15.5045 18.9733C18.5328 19.6026 21.3419 21.6997 22.4392 24.6425C23.5737 27.6859 22.4114 30.9676 19.8988 32.9463C17.1786 35.0881 13.4071 35.1268 10.4064 33.5372C8.95412 32.768 7.57842 31.6157 6.80904 30.1441C5.87171 28.3516 6.26372 26.4032 7.25474 24.7252C9.19683 21.4368 13.2838 18.1484 17.3304 19.0937C17.9766 19.2446 18.2524 18.2536 17.6048 18.1022Z" fill="#2B2A29"/>
<path d="M40.3428 24.3733C39.4659 25.5393 39.4326 27.0812 40.219 28.3018C40.3983 28.5802 40.7852 28.6459 41.0297 28.4059C42.2135 27.2443 42.2636 25.4843 41.2593 24.1994C41.0545 23.9376 40.5938 24.0405 40.4487 24.3035C39.9151 25.272 39.5897 26.5242 39.9457 27.6148C40.2057 28.4112 40.964 28.6969 41.6731 28.2212C43.3576 27.092 42.5596 24.3351 41.3738 23.1911C41.1828 23.0066 40.8314 22.9797 40.6437 23.1911C39.827 24.1121 39.4157 25.2905 39.5943 26.52C39.7192 27.3795 40.2133 28.7051 41.3252 28.4965C42.3218 28.3098 42.6825 27.0699 42.7424 26.2115C42.8145 25.1385 42.5352 24.0368 41.5393 23.4802C41.3534 23.3761 41.0619 23.3867 40.9141 23.5606C39.6682 25.0271 39.4281 26.9769 40.2996 28.6951C40.4882 29.0668 40.9847 28.9881 41.191 28.6951C41.9466 27.6235 42.2843 26.4009 42.1884 25.0954C42.1647 24.7715 41.8767 24.4997 41.5351 24.5996C40.5702 24.8824 40.2375 26.1026 40.9955 26.7957C41.4843 27.2423 42.2162 26.5173 41.7254 26.0685C41.7534 25.9094 41.7816 25.7503 41.8093 25.591C41.5919 25.4257 41.374 25.2607 41.1562 25.0954C41.2398 26.2356 40.9576 27.2434 40.2996 28.1763C40.5966 28.1763 40.8939 28.1763 41.191 28.1763C40.5423 26.8976 40.712 25.3844 41.6438 24.2876C41.4352 24.3143 41.2269 24.3413 41.0184 24.368C41.5686 24.6756 41.7099 25.2364 41.7201 25.8317C41.7254 26.1361 41.6609 27.4303 41.1832 27.4683C40.6619 27.5099 40.5727 26.1207 40.5842 25.8259C40.6117 25.108 40.8992 24.4533 41.3738 23.9179C41.1304 23.9179 40.8873 23.9179 40.6437 23.9179C41.3414 24.5907 41.7456 25.5943 41.5175 26.5666C41.4803 26.7252 41.3736 27.1846 41.2274 27.2505C40.8544 27.4184 40.8558 26.9226 40.8487 26.7087C40.8265 26.0301 41.0162 25.4101 41.3401 24.8225C41.0699 24.8572 40.7996 24.8919 40.5294 24.9266C41.1899 25.7716 41.0441 26.9484 40.2998 27.6789C40.5698 27.7138 40.84 27.7483 41.1105 27.783C40.5044 26.8426 40.5667 25.7795 41.234 24.8919C41.6325 24.3622 40.7366 23.8492 40.3428 24.3733Z" fill="#2B2A29"/>
<path d="M13.3983 24.1673C13.0619 25.5698 12.9415 26.9753 13.0504 28.4142C13.0821 28.8338 13.4577 29.0135 13.8271 28.8579C15.968 27.9579 16.1226 24.7966 14.2573 23.5457C14.0277 23.3917 13.6825 23.5007 13.5511 23.7302C12.9796 24.7286 12.3099 26.3526 12.7389 27.5187C13.0544 28.3767 14.088 28.4666 14.721 27.8976C15.1802 27.4849 15.2714 26.8551 15.3528 26.2762C15.4489 25.5903 15.6363 24.8479 15.6044 24.1543C15.5684 23.3743 14.6713 22.2379 13.8293 22.9832C13.3876 23.3745 13.2554 24.2601 13.0247 24.8074C12.7946 25.3534 12.6063 25.9189 12.6222 26.5184C12.6484 27.5056 13.2197 28.4891 14.2748 28.6093C15.2616 28.7218 16.2007 27.9871 16.5566 27.1028C17.0264 25.935 16.6553 24.257 16.0365 23.2077C15.3765 22.0889 14.3019 22.2915 13.8009 23.3827C13.1423 24.8174 13.1436 26.4567 13.6876 27.923C13.8131 28.2609 14.2706 28.4609 14.5503 28.15C15.5924 26.9917 15.798 25.4657 15.1145 24.0703C14.9466 23.728 14.3951 23.742 14.2229 24.0703C13.7528 24.9681 13.7512 25.8334 14.2111 26.736C14.5117 27.326 15.4027 26.8063 15.1025 26.217C14.8268 25.6763 14.8332 25.1261 15.1145 24.5893C14.8172 24.5893 14.52 24.5893 14.2229 24.5893C14.6952 25.5528 14.5362 26.6271 13.8205 27.4228C14.108 27.4986 14.3955 27.5741 14.6832 27.6495C14.3107 26.6461 14.202 25.5972 14.4778 24.5513C14.5337 24.3394 14.5923 24.0186 14.7281 23.8443C14.772 23.5398 14.8811 23.5239 15.0551 23.7972C15.2186 23.8725 15.312 23.9945 15.3353 24.1631C15.5928 24.6437 15.7406 25.475 15.7277 25.9993C15.7135 26.5816 15.4626 27.2358 14.8893 27.4919C14.1643 27.8156 13.6869 27.1713 13.6545 26.5184C13.6033 25.4902 14.3505 24.4935 14.6398 23.5234C14.5197 23.6432 14.3995 23.7629 14.2792 23.8825C14.7225 23.7033 14.4467 25.3417 14.4239 25.5119C14.3904 25.7582 14.4084 26.6014 14.2216 26.7756C13.3858 27.5529 13.7832 25.9021 13.8402 25.6758C13.9684 25.1669 14.1821 24.7038 14.4425 24.2493C14.2071 24.3107 13.9718 24.3721 13.7364 24.4336C15.0313 25.302 14.6726 27.3958 13.306 27.9703C13.5649 28.1181 13.8238 28.2662 14.0827 28.4142C13.9809 27.0659 14.0778 25.7569 14.3935 24.4406C14.5477 23.7974 13.5527 23.523 13.3983 24.1673Z" fill="#2B2A29"/>
<path d="M28.9162 32.9254C28.2335 31.5355 26.5106 32.9077 25.9447 33.6607C25.1303 34.7443 24.9244 36.431 26.5712 36.8181C27.9045 37.1312 29.7253 36.6586 30.379 35.3699C30.9115 34.3205 30.5545 32.7667 29.3233 32.4121C27.9649 32.021 26.3882 33.191 25.9085 34.4173C25.6955 34.9611 25.6782 35.6077 26.0958 36.0628C26.6082 36.621 27.4739 36.5987 28.1659 36.5231C29.4424 36.3837 30.8221 35.4207 30.3624 33.9663C29.9411 32.6335 27.9735 32.7205 27.2645 33.7469C26.4461 34.9308 28.0239 36.7297 29.0506 35.4722C29.3994 35.0451 29.4837 34.1944 28.89 33.9034C28.2373 33.5834 27.4395 34.2953 27.122 34.7945C26.9148 35.12 27.1833 35.58 27.5675 35.5681C28.2018 35.5484 28.6692 35.2806 29.022 34.7578C29.217 34.4686 29.0107 34.1 28.7134 34.0028C27.9491 33.7529 27.1913 34.3323 27.2165 35.1273C27.2243 35.3741 27.3752 35.5378 27.5955 35.6229C28.1559 35.8399 28.6573 35.6978 29.1147 35.3405C29.6372 34.9328 28.9022 34.2098 28.385 34.6138C28.2062 34.7264 28.0345 34.7324 27.8699 34.6317C27.9961 34.7967 28.1224 34.962 28.2488 35.1273C28.3121 35.0829 28.3755 35.0385 28.439 34.994C28.336 34.7424 28.2333 34.4907 28.1306 34.239C28.0041 34.454 27.8164 34.5543 27.5675 34.54C27.7162 34.7978 27.8648 35.0557 28.0132 35.3136C28.2007 35.0188 28.4299 34.9012 28.7666 34.8429C28.5994 34.7989 28.4319 34.7547 28.2646 34.7105C28.2136 34.7311 28.1625 34.7514 28.1113 34.772C28.0188 34.6502 28.013 34.5311 28.0942 34.4144C28.1568 34.2326 28.2841 34.1546 28.4558 34.0815C28.8228 33.9252 29.3355 33.9621 29.4062 34.4136C29.5353 35.2393 28.4427 35.4868 27.8415 35.5204C27.5484 35.5365 26.9632 35.6072 26.8021 35.2753C26.6708 35.004 26.9608 34.5687 27.1167 34.3577C27.5023 33.8373 28.4949 33.054 29.1793 33.4568C29.6853 33.7547 29.6842 34.555 29.4062 35.0013C29.0291 35.6079 28.2184 35.8273 27.5484 35.8596C27.1997 35.8766 26.5541 35.9075 26.3584 35.5416C26.206 35.2561 26.4106 34.852 26.5466 34.6109C26.622 34.477 27.7969 32.98 28.025 33.4442C28.3169 34.0384 29.2074 33.518 28.9162 32.9254Z" fill="#2B2A29"/>
<path d="M27.9347 35.6835C27.9008 38.3331 27.9554 41.0015 27.8058 43.6473C27.6674 46.0916 26.9876 48.7361 24.6273 49.9346C24.0357 50.2353 24.5572 51.1227 25.1485 50.8224C27.3126 49.7231 28.3638 47.4585 28.6919 45.1529C29.1325 42.0546 28.9271 38.8075 28.967 35.6835C28.9754 35.0217 27.9431 35.0213 27.9347 35.6835Z" fill="#2B2A29"/>
<path d="M27.9436 47.2026C28.7549 49.2456 30.3959 50.7702 32.5219 51.3847C33.1613 51.5697 33.4342 50.5778 32.7964 50.3933C31.0433 49.8866 29.6132 48.6273 28.939 46.9292C28.6976 46.3211 27.6989 46.5863 27.9436 47.2026Z" fill="#2B2A29"/>
<path d="M24.3201 27.5625C26.8019 25.854 30.0844 25.9086 32.5153 27.6853C33.0515 28.0773 33.5666 27.1855 33.0362 26.7977C30.3362 24.8241 26.5523 24.7794 23.7991 26.6746C23.2563 27.0483 23.7716 27.9399 24.3201 27.5625Z" fill="#2B2A29"/>
<path d="M36.895 35.6977C33.195 33.702 31.3097 29.4219 32.1882 25.3416C33.0606 21.2909 36.3162 17.8823 40.4567 17.1367C44.5942 16.3916 48.0955 18.9407 49.9062 22.4947C51.6382 25.8935 52.3732 31.084 49.2351 33.9267C47.7425 35.2788 45.7152 35.874 43.8035 36.3613C42.5689 36.6757 41.2853 37.0085 40.0067 36.7685C38.8442 36.5504 37.7882 35.9684 36.7985 35.3462C34.9017 34.1536 33.1418 32.686 32.6872 30.3891C32.3116 28.4927 32.5825 26.4336 33.2538 24.634C34.5834 21.0677 37.7581 18.2405 41.7001 18.225C43.3989 18.2186 45.1164 18.691 46.5327 19.633C48.304 20.8087 49.1546 22.5325 49.7307 24.5225C50.3459 26.6382 51.021 29.0023 50.509 31.2079C49.9206 33.7424 47.6436 34.8238 45.3024 35.363C42.6681 35.9691 39.991 36.2232 37.5635 34.8284C35.5553 33.6746 34.0072 31.8717 32.525 30.1325C32.2816 30.3749 32.0383 30.6171 31.7951 30.8595C34.8995 34.0997 39.4761 36.4364 44.0697 35.8022C47.8931 35.2746 51.281 32.2653 51.4235 28.2846C51.4463 27.6228 50.414 27.6239 50.3912 28.2846C50.2572 32.0726 46.7371 34.6751 43.1471 34.8629C39.1074 35.0739 35.2487 32.9752 32.525 30.1325C32.0604 29.6475 31.3707 30.3617 31.7951 30.8595C33.3676 32.7048 35.0271 34.5997 37.179 35.7918C39.587 37.1258 42.158 37.0405 44.7923 36.5204C46.9642 36.0919 49.2846 35.3857 50.6184 33.4898C51.9005 31.6651 51.8386 29.3225 51.4607 27.2231C51.0561 24.9894 50.4822 22.4598 49.0825 20.6211C47.8954 19.0633 46.1363 18.0031 44.2474 17.5164C40.1334 16.4564 36.04 18.1952 33.6582 21.6349C31.2374 25.1306 30.344 30.7315 33.4901 34.0608C35.0905 35.7543 37.5779 37.3965 39.9031 37.7878C42.241 38.1811 45.0834 37.2493 47.2243 36.3407C49.2992 35.4602 51.0004 34.0358 51.8157 31.8991C52.6272 29.7741 52.5199 27.3563 51.9892 25.1781C50.99 21.092 48.0666 16.9644 43.6879 16.1378C38.462 15.1507 33.4319 18.7489 31.6469 23.5248C29.8255 28.3982 31.7259 34.0785 36.3739 36.5855C36.9583 36.9006 37.4799 36.0132 36.895 35.6977Z" fill="#2B2A29"/>
<path d="M22.8077 27.5395C22.939 27.6948 23.0703 27.8504 23.2019 28.0057C23.4384 28.2857 24.0048 28.1503 24.0645 27.779C24.1907 26.9946 24.3167 26.2102 24.4427 25.426C24.1048 25.3805 23.7672 25.3347 23.4291 25.2892C23.6913 28.1346 23.7075 30.9284 21.631 33.1451C19.9866 34.9003 17.6505 35.8836 15.252 35.9421C10.5477 36.057 5.87192 32.8568 5.0697 28.0864C4.18651 22.8339 8.61601 18.1947 13.7809 18.0789C19.1012 17.9598 23.4797 22.1723 24.125 27.3393C24.4753 30.1453 23.5387 32.7432 20.9792 34.1463C18.4946 35.5084 15.5558 35.3605 12.8314 35.041C11.4615 34.8804 9.79737 34.8614 8.75688 33.8293C7.7987 32.8789 7.43021 31.4143 7.04263 30.1637C6.15855 27.3086 5.89477 24.5194 7.72572 21.973C10.819 17.6702 17.3253 16.6705 21.4193 20.1204C25.3099 23.3989 25.3625 29.5604 21.6356 33.0037C17.4164 36.9022 10.4793 35.9516 7.41179 31.1501C5.97442 28.9007 5.61635 26.1322 6.69898 23.6605C7.78983 21.1696 10.1173 19.216 12.8643 18.8972C13.5163 18.8214 13.524 17.7926 12.8643 17.869C7.41756 18.5012 3.74591 24.2854 5.47148 29.4676C7.26648 34.8585 13.2904 37.7383 18.6506 35.9147C24.0074 34.0922 26.9787 27.9746 24.6548 22.7148C22.2226 17.2097 15.2441 15.5531 10.1949 18.4325C7.74058 19.8321 5.72683 22.2753 5.33459 25.1217C5.10342 26.7986 5.45528 28.466 5.9347 30.0691C6.34602 31.4457 6.75556 32.9582 7.64962 34.1141C8.60358 35.3471 9.93181 35.6933 11.4238 35.8911C13.2225 36.1297 15.0442 36.369 16.8629 36.2645C19.623 36.1058 22.5235 35.0803 24.1133 32.6933C25.7492 30.2373 25.4226 26.8459 24.3633 24.2317C23.311 21.6358 21.3514 19.3669 18.8037 18.1371C13.4537 15.5549 6.76643 17.7859 4.58562 23.4082C2.44808 28.9199 6.03897 34.6444 11.4182 36.4002C16.4179 38.0318 22.9148 35.8628 24.33 30.376C24.7595 28.7111 24.6171 26.9803 24.4613 25.2892C24.4128 24.7609 23.5467 24.536 23.4475 25.1524C23.3215 25.9371 23.1952 26.7213 23.0692 27.5057C23.3567 27.4301 23.6443 27.3546 23.9318 27.279C23.8005 27.1234 23.6689 26.9681 23.5376 26.8125C23.1092 26.3057 22.3824 27.0362 22.8077 27.5395Z" fill="#2B2A29"/>
<path d="M54.5904 23.4806C53.9277 22.8734 52.8623 22.8749 52.2472 23.5573C52.0078 23.8246 52.0717 24.3355 52.4763 24.4164C53.2981 24.5812 54.0763 24.4864 54.8402 24.1457C54.6669 23.8498 54.4914 23.554 54.3179 23.2581C53.8678 23.6019 53.3786 23.7751 52.8109 23.7619C52.146 23.7462 52.146 24.7743 52.8109 24.79C53.5417 24.807 54.258 24.5898 54.8402 24.1457C55.3646 23.7449 54.9331 22.9839 54.3179 23.2581C53.8265 23.4779 53.2774 23.5308 52.751 23.4251C52.8253 23.7115 52.9016 23.9977 52.9779 24.2842C53.2051 24.0306 53.5934 23.963 53.8596 24.2074C54.3468 24.6552 55.0798 23.93 54.5904 23.4806Z" fill="#2B2A29"/>
<path d="M1.73438 23.9669C2.81791 24.1019 3.87414 24.3572 4.90709 24.7069C4.95301 24.3704 4.99849 24.0337 5.04441 23.6971C4.07625 23.6521 3.14181 23.4905 2.21247 23.2172C2.16677 23.5537 2.12107 23.8905 2.07537 24.227C2.84564 24.2966 3.61569 24.3658 4.38596 24.4354C4.96521 24.4875 5.08812 23.5495 4.52328 23.4256C3.54447 23.2106 2.61247 22.8944 1.71264 22.4536C1.57997 22.7667 1.44752 23.0798 1.31486 23.3929C1.60948 23.4419 1.9041 23.4905 2.19872 23.5394C2.84874 23.6472 3.12805 22.6564 2.47337 22.5481C2.17853 22.4993 1.88391 22.4505 1.58929 22.4016C1.05884 22.3139 0.623788 23.063 1.19151 23.3412C2.1701 23.8207 3.18352 24.183 4.24907 24.4168C4.29455 24.0803 4.34048 23.7438 4.38596 23.4072C3.61569 23.3376 2.84564 23.2685 2.07537 23.1989C1.4808 23.1454 1.39716 24.0496 1.93826 24.2087C2.9539 24.5074 3.98662 24.676 5.04441 24.7253C5.65007 24.7534 5.7113 23.8949 5.18152 23.7155C4.05606 23.3345 2.9133 23.0857 1.73438 22.9388C1.07703 22.857 1.08302 23.8856 1.73438 23.9669Z" fill="#2B2A29"/>
</svg>
