<svg width="67" height="50" viewBox="0 0 67 50" fill="none" xmlns="http://www.w3.org/2000/svg">
<path d="M10.3454 41.4549C3.91345 35.6532 0.701048 27.3906 5.38026 17.5411C5.74187 16.7807 10.53 10.6751 10.5839 10.8184C9.38336 7.6204 8.51627 4.29702 8.00116 0.919189C11.9978 1.41637 14.9757 5.09294 18.9228 5.89638C20.5798 6.23381 22.2915 6.03787 23.9764 5.89459C30.5615 5.33544 37.2169 5.61269 43.7335 6.71774C45.6026 7.03474 47.4767 7.42124 49.3726 7.39187C53.8919 7.3213 58.0085 4.92853 61.8903 2.6056C61.741 5.85017 60.4823 9.03314 58.3748 11.4968C59.0473 10.716 64.3669 24.4472 64.3676 26.3665C64.3794 53.1326 26.1079 55.6726 10.3454 41.4549Z" fill="#2B2A29"/>
<path d="M46.8699 19.3908C49.3666 19.2532 51.8586 19.3209 54.3442 19.5935C54.1911 19.4764 54.0379 19.3593 53.8848 19.2425C54.6145 21.3827 53.2555 23.735 50.9216 23.8464C48.3978 23.9668 47.2012 21.6123 46.9188 19.4316C46.8406 18.8298 45.8868 18.822 45.9657 19.4316C46.3273 22.2256 47.9812 25.1112 51.195 24.782C53.9883 24.4962 55.7018 21.6227 54.8036 18.9882C54.7287 18.7682 54.5666 18.6615 54.3442 18.6371C51.8586 18.3645 49.3666 18.2968 46.8699 18.4344C46.2598 18.4681 46.2563 19.4244 46.8699 19.3908Z" fill="#FEFEFE"/>
<path d="M15.9985 19.2722C18.3988 19.4134 20.7991 19.5541 23.199 19.6949C23.0401 19.5359 22.8813 19.3765 22.7228 19.2171C22.6103 21.4204 20.8508 23.5903 18.5473 23.6473C16.3558 23.7014 14.3917 21.4838 14.8208 19.312C14.9393 18.7109 14.0208 18.4537 13.9016 19.0577C13.369 21.7546 15.5501 24.4694 18.291 24.5994C21.2335 24.7394 23.5338 22.0021 23.6755 19.2171C23.6891 18.9481 23.4457 18.7532 23.199 18.7389C20.7991 18.5981 18.3988 18.457 15.9985 18.3162C15.3859 18.28 15.388 19.2368 15.9985 19.2722Z" fill="#FEFEFE"/>
<path d="M13.873 19.2829C14.7269 19.4054 15.5808 19.5279 16.4347 19.6504C17.0344 19.7364 17.2935 18.8151 16.6877 18.7284C15.8342 18.6059 14.9803 18.4834 14.1265 18.3609C13.5267 18.2746 13.2676 19.1959 13.873 19.2829Z" fill="#FEFEFE"/>
<path d="M16.9533 19.1269C15.8099 19.9321 16.2729 21.7052 17.5948 22.0061C19.3133 22.3969 20.3474 20.6933 20.6851 19.277C20.764 18.9474 20.5363 18.7081 20.2257 18.6716C19.3251 18.5659 18.0432 18.5942 17.7194 19.6552C17.4891 20.411 17.8968 21.3029 18.7464 21.318C19.1641 21.3255 19.369 20.7921 19.0834 20.502C18.6372 20.0475 17.9768 20.1517 17.6298 20.6625C17.2835 21.1722 18.1088 21.6511 18.4526 21.145C18.4383 21.1561 18.4241 21.1668 18.4094 21.1779C18.5219 20.9061 18.6343 20.6338 18.7464 20.3616C18.3991 20.3555 18.7225 19.7792 18.8696 19.6982C19.2637 19.4811 19.8005 19.5782 20.2257 19.628C20.0726 19.4263 19.9194 19.2243 19.7663 19.023C19.5806 19.801 19.2608 20.7606 18.4126 21.0278C18.0806 21.1328 17.6444 21.14 17.4017 20.8466C17.205 20.6084 17.1575 20.1474 17.4342 19.9522C17.9325 19.6015 17.4567 18.7719 16.9533 19.1269Z" fill="#FEFEFE"/>
<path d="M49.1538 19.1819C48.0272 20.1448 48.8504 21.9666 50.2194 22.074C51.9789 22.2127 52.8474 20.4166 52.7282 18.895C52.4105 18.895 52.0928 18.895 51.7751 18.895C51.8265 19.5079 51.5384 20.1068 50.9451 20.3421C51.1407 20.4535 51.336 20.5649 51.5313 20.676C51.3988 20.2515 51.2664 19.827 51.134 19.4026C51.0565 19.154 50.8045 19.001 50.5478 19.0687C49.7168 19.2876 49.4951 20.2494 49.9959 20.8887C50.3747 21.372 51.0447 20.6914 50.6699 20.2125C50.5971 20.1197 50.7377 20.0076 50.8013 19.9907C50.606 19.8793 50.4104 19.7679 50.2151 19.6569C50.3475 20.0814 50.48 20.5058 50.6124 20.9303C50.6831 21.157 50.9519 21.3623 51.1986 21.2645C52.1688 20.8798 52.8178 19.9628 52.7282 18.895C52.6772 18.2871 51.7269 18.2796 51.7751 18.895C51.8418 19.7479 51.6376 20.8364 50.6777 21.085C49.9538 21.2727 49.1274 20.4564 49.8274 19.8578C50.2954 19.4585 49.6183 18.7847 49.1538 19.1819Z" fill="#FEFEFE"/>
<path d="M33.8314 25.8525C33.1314 25.4299 32.1864 25.6605 31.7852 26.4013C31.3072 27.2828 31.8787 28.3528 32.7144 28.7536C34.5289 29.6244 37.1591 27.7055 35.9964 25.7282C34.973 23.9877 32.3814 24.9885 32.6359 26.9461C32.8779 28.8116 35.5202 28.6995 36.0764 27.1091C36.1303 26.9547 36.07 26.7534 35.9536 26.6438C35.0683 25.8106 33.5458 26.2186 33.2788 27.4397C33.2242 27.6905 33.352 27.9587 33.6115 28.0279C34.4943 28.2636 35.0719 27.2252 34.49 26.5585C34.2244 26.2544 33.6497 26.4905 33.6765 26.8967C33.8842 30.0291 34.2276 33.1931 34.1013 36.3349C34.0099 38.6073 33.4708 41.3132 31.229 42.3946C31.4218 42.645 31.6139 42.8953 31.8066 43.1457C32.9025 42.1313 33.9981 41.1169 35.094 40.1025C34.8284 40.0322 34.5632 39.9617 34.2976 39.8915C34.6417 41.1412 35.3117 42.1972 36.3141 43.02C36.7853 43.4065 37.4632 42.7338 36.9881 42.3437C36.1092 41.6227 35.5199 40.739 35.2164 39.6375C35.1183 39.28 34.6806 39.1851 34.42 39.4262C33.3241 40.4406 32.2286 41.455 31.1327 42.4694C30.7139 42.8574 31.2455 43.4448 31.7099 43.2206C33.9113 42.1585 34.7252 39.7045 34.9766 37.4235C35.3585 33.959 34.8591 30.3587 34.6296 26.8967C34.3586 27.0092 34.0873 27.122 33.8164 27.2348C33.8325 27.1918 33.8489 27.1489 33.8649 27.1059C33.976 27.3018 34.087 27.4981 34.198 27.694C34.3047 27.2047 34.8791 26.9432 35.28 27.3197C35.2389 27.1646 35.1982 27.0095 35.1572 26.8544C34.9762 27.372 34.1295 27.6174 33.7354 27.175C33.1017 26.4625 34.2301 25.3321 34.9558 25.9521C35.6723 26.5639 35.281 27.386 34.5635 27.7589C34.0988 28.0007 33.6889 28.0522 33.2013 27.8502C32.8136 27.7829 32.6012 27.5314 32.5638 27.0958C32.703 26.6219 32.9654 26.4826 33.3505 26.6782C33.8774 26.9963 34.3568 26.1695 33.8314 25.8525Z" fill="#FEFEFE"/>
<path d="M28.3976 8.66641C29.4881 8.43179 30.5687 8.38379 31.6756 8.49841C31.5168 8.33901 31.3579 8.17997 31.1991 8.02021C31.2712 8.99774 31.2601 9.97455 31.1116 10.9453C31.0488 11.3572 31.0063 11.8949 30.8303 12.2753C30.8032 12.6603 30.5719 12.8839 30.1353 12.9462C29.9939 12.7871 29.8761 12.6127 29.7823 12.4225C29.3185 11.6463 28.7138 10.6644 28.4368 9.80477C28.2348 9.17756 28.2933 9.28251 28.9559 9.49707C29.3539 9.62602 29.5809 9.72704 29.9993 9.68298C29.8404 9.52394 29.6816 9.36454 29.5227 9.20478C29.4617 10.2389 29.4003 11.273 29.3389 12.3072C29.3114 12.7692 30.0232 12.9745 30.227 12.5482C30.7561 11.4428 30.9153 10.3388 30.7397 9.12777C30.6615 8.58975 29.7919 8.72515 29.8037 9.25493C29.8258 10.2726 29.7009 11.244 29.4206 12.223C29.2757 12.728 30.0739 13.0995 30.2913 12.5916C30.7729 11.4675 31.0256 10.332 31.0356 9.10735C31.0384 8.75739 30.624 8.49411 30.3188 8.69435C29.5409 9.20407 28.7631 9.71378 27.9852 10.2231C28.1777 10.4735 28.3701 10.7239 28.5625 10.9743C29.3453 10.3242 30.2071 9.88465 31.1855 9.61026C30.9903 9.41433 30.7946 9.21839 30.5994 9.02246C30.433 10.0663 30.2667 11.11 30.1003 12.1542C30.0046 12.7563 30.9228 13.0153 31.0192 12.4085C31.1859 11.3644 31.3519 10.3206 31.5182 9.27642C31.5735 8.93004 31.3119 8.58187 30.9321 8.68826C29.7933 9.00741 28.7995 9.54185 27.8889 10.298C27.4723 10.6437 28.0152 11.3443 28.4661 11.0492C29.2439 10.5394 30.0218 10.0297 30.7996 9.52C30.5605 9.38245 30.3216 9.2449 30.0828 9.10735C30.0739 10.1554 29.8815 11.1448 29.4685 12.1087C29.7591 12.2316 30.0493 12.3544 30.3395 12.4773C30.6426 11.4188 30.7807 10.3564 30.7568 9.25493C30.4448 9.2972 30.1328 9.33946 29.8208 9.38173C29.9568 10.3206 29.8126 11.2121 29.4039 12.0657C29.7002 12.1463 29.9961 12.2269 30.292 12.3072C30.3531 11.273 30.4145 10.2389 30.4759 9.20478C30.4898 8.96586 30.2452 8.70079 29.9993 8.72694C29.2871 8.80181 27.3563 7.65342 27.246 9.23917C27.1985 9.91975 27.8268 10.701 28.1188 11.2691C28.4829 11.9783 28.7895 12.8097 29.2986 13.4298C30.0336 14.3263 31.1216 14.2224 31.5682 13.1138C32.195 11.5596 32.2736 9.66865 32.1522 8.02021C32.1315 7.74189 31.9491 7.57067 31.6756 7.54202C30.4809 7.41808 29.3175 7.49187 28.1445 7.7444C27.5447 7.87335 27.7986 8.79536 28.3976 8.66641Z" fill="#FEFEFE"/>
<path d="M35.487 8.40634C34.9173 10.01 33.9881 14.7576 36.6244 15.176C39.4862 15.6298 39.7411 10.941 40.1227 9.16573C40.1787 8.90568 40.0474 8.65923 39.79 8.57756C38.6081 8.20253 37.4108 8.23763 36.2588 8.70114C35.8137 8.88024 35.804 9.44656 36.2588 9.62351C36.87 9.86064 37.4657 9.97168 38.119 9.98923C37.9816 9.74924 37.8445 9.50924 37.7074 9.26961C36.6668 10.7114 35.9093 12.3014 35.4339 14.0158C35.3321 14.3815 35.789 14.8206 36.1335 14.5556C37.5871 13.4387 38.3742 11.7301 38.1436 9.88679C38.0969 9.51426 37.636 9.20728 37.3301 9.54864C36.3927 10.5935 36.0818 11.9783 36.5476 13.3137C36.6394 13.5766 36.9813 13.7948 37.2476 13.5995C38.4903 12.6883 39.0464 11.2157 38.6527 9.71055C38.5824 9.44118 38.3186 9.33552 38.0665 9.37671C36.6804 9.60273 35.6987 10.8811 35.8205 12.2824C35.8729 12.8907 36.8268 12.8964 36.7736 12.2824C36.6854 11.2691 37.3269 10.4606 38.32 10.2987C38.1247 10.1873 37.9291 10.0759 37.7338 9.96487C38.0108 11.0234 37.6574 12.1205 36.7664 12.7735C36.9999 12.8688 37.233 12.9641 37.4665 13.0597C37.1152 12.0521 37.2873 11.0241 38.0041 10.2249C37.7328 10.1121 37.4618 9.99962 37.1905 9.88679C37.3765 11.3712 36.8532 12.8072 35.6527 13.7299C35.8861 13.9101 36.1192 14.0899 36.3527 14.2697C36.8086 12.6267 37.5339 11.1326 38.5302 9.7521C38.7526 9.44405 38.4496 9.04143 38.119 9.03284C37.5471 9.01743 37.0409 8.90675 36.5123 8.70114C36.5123 9.00848 36.5123 9.31617 36.5123 9.62351C37.5161 9.21946 38.5053 9.17253 39.5369 9.49957C39.4259 9.30364 39.3149 9.1077 39.2039 8.91141C38.9904 9.90362 38.7848 10.898 38.5634 11.8884C38.3792 12.7137 38.1361 14.077 37.0949 14.2246C35.0026 14.5212 36.0707 9.60417 36.4059 8.66031C36.6122 8.07967 35.6919 7.82964 35.487 8.40634Z" fill="#FEFEFE"/>
<path d="M53.8565 32.2539C57.7757 31.4132 61.7385 30.8307 65.7334 30.5119C66.341 30.4636 66.3463 29.5065 65.7334 29.5555C61.6546 29.8811 57.6047 30.4732 53.6031 31.3319C53.0037 31.4604 53.2572 32.3825 53.8565 32.2539Z" fill="#F9E805"/>
<path d="M53.8648 36.0313C57.029 35.5184 60.2328 35.7036 63.3235 36.5511C63.9157 36.7133 64.1685 35.7913 63.5766 35.629C60.3128 34.7335 56.9501 34.5677 53.6113 35.1093C53.0073 35.2071 53.2636 36.1287 53.8648 36.0313Z" fill="#F9E805"/>
<path d="M53.3243 39.9687C55.1288 40.4691 56.9333 40.9695 58.7378 41.4699C59.3297 41.634 59.5821 40.712 58.9909 40.5479C57.1864 40.0471 55.3823 39.5471 53.5778 39.0463C52.9859 38.8823 52.7332 39.8046 53.3243 39.9687Z" fill="#F9E805"/>
<path d="M1.47856 33.2371C4.85553 31.9823 8.39777 31.4167 11.9964 31.5646C12.6097 31.5893 12.6086 30.6333 11.9964 30.6082C8.32102 30.4574 4.6749 31.033 1.2251 32.3147C0.654661 32.5267 0.901329 33.4513 1.47856 33.2371Z" fill="#F9E805"/>
<path d="M3.14632 37.7518C5.63157 36.1543 8.3517 35.0557 11.246 34.4765C11.8468 34.3565 11.5927 33.4345 10.9926 33.5544C8.02365 34.1487 5.21462 35.2874 2.66547 36.9262C2.15072 37.2572 2.62799 38.0853 3.14632 37.7518Z" fill="#F9E805"/>
<path d="M5.80079 42.2203C7.64456 40.5035 9.70037 39.0786 11.9468 37.9442C12.4948 37.6676 12.0128 36.8423 11.466 37.1185C9.14849 38.2884 7.02807 39.7738 5.12683 41.5444C4.67633 41.9639 5.35136 42.6387 5.80079 42.2203Z" fill="#F9E805"/>
</svg>
