<svg width="46" height="60" viewBox="0 0 46 60" fill="none" xmlns="http://www.w3.org/2000/svg">
<path d="M0.46706 45.9725C0.575874 48.6761 0.82154 51.542 2.25567 53.9125C3.89404 56.6212 6.79753 57.8372 9.79723 58.4129C13.4624 59.1163 17.2591 59.3671 20.9826 59.5117C24.9496 59.6659 28.9255 59.5866 32.8829 59.2725C36.1455 59.0135 39.9504 58.9073 42.6581 56.8361C44.7407 55.2431 45.6161 52.7537 45.8765 50.2303C46.2209 46.8895 45.7556 43.4356 45.567 40.0973C45.3381 36.0495 45.1091 32.0017 44.8804 27.9539C44.3623 18.7869 43.844 9.61985 43.3259 0.452578C43.3056 0.0920311 42.8333 -0.172609 42.5591 0.135881C40.4559 2.50251 38.3529 4.86889 36.25 7.23552C35.1983 8.41871 34.1483 9.60318 33.0954 10.7853C32.6815 11.2503 32.2666 11.7477 31.7127 12.0532C30.996 12.4483 30.1196 12.4488 29.325 12.5029C22.9518 12.9386 16.5774 13.3653 10.2037 13.7967C10.3482 13.9059 10.4926 14.0157 10.6369 14.1251C9.0502 8.76259 5.79557 4.07677 1.59275 0.411292C1.1611 0.0348462 0.54732 0.629774 0.957364 1.04469C1.20998 1.30009 1.09216 2.27198 1.07853 2.63894C1.04148 3.64673 0.928296 4.65195 0.809707 5.65281C0.564555 7.72249 0.223709 9.78423 0.0366944 11.8603C-0.047681 12.7984 0.0305206 13.6769 0.100233 14.6185C0.248147 16.6067 0.337925 18.5989 0.389631 20.5919C0.493042 24.5861 0.443394 28.5819 0.397091 32.5766C0.345128 37.0422 0.301397 41.5088 0.46706 45.9725C0.488412 46.5472 1.38722 46.5503 1.36561 45.9725C1.06026 37.7487 1.48188 29.5212 1.3049 21.2958C1.26194 19.3026 1.18297 17.3096 1.04843 15.3201C0.971512 14.18 0.829257 13.0707 0.92881 11.9311C1.11531 9.79833 1.4703 7.68095 1.71983 5.55485C1.84974 4.44654 1.98144 3.32721 1.98736 2.21018C1.99045 1.64295 2.02698 0.850564 1.59275 0.411292C1.38104 0.622594 1.16933 0.833639 0.957364 1.04469C5.04751 4.61143 8.22548 9.1416 9.77048 14.3634C9.82347 14.5419 10.0064 14.7055 10.2037 14.6921C13.6268 14.4606 17.0497 14.2293 20.4728 13.9974C23.7344 13.7769 27.0219 13.6582 30.2742 13.3287C31.4784 13.2066 32.4261 12.8048 33.2685 11.9301C34.3613 10.7956 35.3717 9.5719 36.4179 8.39487C38.6768 5.85283 40.9354 3.31105 43.1942 0.769274C42.9388 0.663623 42.6831 0.558229 42.4274 0.452578C43.2822 15.5725 44.1411 30.6918 44.9916 45.812C45.1379 48.4125 45.2419 51.2284 44.0958 53.6432C42.6545 56.6802 39.5282 57.6405 36.4087 58.0311C29.1182 58.9442 21.6528 58.9086 14.3525 58.139C10.8486 57.7695 6.62364 57.4615 4.03192 54.7705C1.79572 52.4488 1.48857 49.0269 1.36561 45.9725C1.34246 45.3984 0.443909 45.3953 0.46706 45.9725Z" fill="#2B2A29"/>
<path d="M23.8969 33.1606C22.692 32.8062 20.996 33.2855 20.6628 34.6485C20.2952 36.1509 22.2065 36.4912 23.2867 36.2755C24.3885 36.0555 26.0896 34.8587 25.3045 33.5509C24.6012 32.3793 22.7969 32.7675 21.9135 33.4571C21.0261 34.1497 20.377 35.8796 21.9773 36.1419C22.9044 36.294 24.7098 35.2242 24.3519 34.1123C23.981 32.9596 22.1319 33.4101 21.8415 34.39C21.5205 35.4739 22.8785 36.4607 23.6661 35.4862C24.5678 34.3707 22.6385 33.3814 22.1538 34.5762C21.9357 35.1142 22.356 35.6283 22.8908 35.7204C23.5818 35.8393 24.0381 35.3147 24.3931 34.8069C24.5171 34.63 24.4402 34.4141 24.3229 34.2643C23.9154 33.7435 23.1429 33.7471 22.7185 34.2436C22.5888 34.3954 22.5404 34.6062 22.6485 34.7864C22.8556 35.1326 23.1195 35.216 23.5064 35.1572C24.0762 35.0711 23.8341 34.2077 23.2677 34.2936C23.3196 34.3072 23.3721 34.3207 23.4241 34.3341C23.4007 34.5151 23.3772 34.6959 23.3538 34.8769C23.465 34.8839 23.5766 34.8908 23.6877 34.8977C23.6643 34.7167 23.6409 34.5359 23.6175 34.3548C23.4768 34.5559 23.0454 35.0367 22.7416 34.9108C22.4635 34.7957 23.0436 34.2171 23.2877 34.3354C23.7762 34.5713 22.5988 35.1931 22.3745 35.2395C21.8317 35.3514 21.8724 34.8005 22.1389 34.4733C22.2796 34.301 22.4543 34.1556 22.6408 34.0364C23.0657 33.7648 23.6754 33.5896 24.1696 33.7715C24.915 34.0461 24.3532 34.8193 23.8928 35.0957C23.4413 35.3667 22.9001 35.4924 22.3748 35.4406C22.0231 35.4057 21.4045 35.3044 21.5946 34.6972C21.6697 34.4569 21.9815 34.251 22.1847 34.141C22.6475 33.8907 23.1617 33.8784 23.6582 34.0243C24.2138 34.1879 24.451 33.3237 23.8969 33.1606Z" fill="#2B2A29"/>
<path d="M21.6873 35.9458C22.114 37.1814 22.0145 38.7182 20.7548 39.4364C19.5498 40.1237 17.8312 39.2751 18.2433 37.7683C18.3956 37.2116 17.5292 36.9739 17.3769 37.5301C16.8738 39.3698 18.6173 40.9691 20.4237 40.5283C22.5848 40.0008 23.2058 37.5952 22.5537 35.7079C22.3667 35.1658 21.4982 35.3989 21.6873 35.9458Z" fill="#2B2A29"/>
<path d="M22.0939 36.8267C22.3331 38.3225 22.8682 40.0686 24.5449 40.4804C26.1431 40.8725 27.1114 39.4211 27.6886 38.1787C27.9302 37.6591 27.1561 37.2035 26.9128 37.7266C26.4693 38.6815 25.7241 40.1153 24.4307 39.4911C23.3556 38.9721 23.129 37.6422 22.9603 36.5888C22.8695 36.021 22.0036 36.2621 22.0939 36.8267Z" fill="#2B2A29"/>
<path d="M32.0124 22.638C31.7057 24.1089 31.945 25.556 32.7396 26.8363C32.9248 27.1353 33.3253 27.1143 33.5152 26.8363C34.7476 25.0323 34.7595 22.6513 33.5514 20.8324C33.4077 20.6157 33.0385 20.5032 32.8461 20.7417C31.5074 22.4 31.3497 24.7174 32.5572 26.4996C32.728 26.752 33.181 26.8274 33.3331 26.4996C33.8982 25.2813 34.9681 22.2074 33.0954 21.5515C32.8867 21.4784 32.5755 21.6358 32.5428 21.8643C32.3977 22.8801 32.4443 23.843 32.7185 24.8333C32.8008 25.1305 33.2518 25.3034 33.4694 25.0308C33.9926 24.3751 34.086 23.5891 33.6235 22.8678C33.4591 22.6121 32.9927 22.5421 32.8474 22.8678C32.5557 23.5222 32.489 24.1343 32.6797 24.8277C32.8325 25.3829 33.6996 25.1472 33.5463 24.5897C33.4203 24.132 33.428 23.7581 33.6235 23.3198C33.3647 23.3198 33.1059 23.3198 32.8474 23.3198C33.0683 23.664 33.1074 24.0548 32.8343 24.3976C33.0843 24.4633 33.3346 24.5292 33.5849 24.5951C33.3549 23.765 33.2873 22.9567 33.4092 22.1023C33.225 22.2067 33.0408 22.311 32.8566 22.4151C33.8635 22.768 32.8142 25.4934 32.5572 26.0475C32.8157 26.0475 33.0743 26.0475 33.3331 26.0475C32.3692 24.6251 32.3885 22.729 33.4812 21.375C33.2461 21.3448 33.011 21.3145 32.7756 21.2843C33.8203 22.857 33.8035 24.8264 32.7396 26.3842C32.9981 26.3842 33.2566 26.3842 33.5152 26.3842C32.8474 25.3082 32.6197 24.1192 32.8788 22.876C32.9961 22.3136 32.1302 22.0731 32.0124 22.638Z" fill="#2B2A29"/>
<path d="M11.0993 22.4856C10.5175 23.3577 10.2633 24.3898 10.4413 25.4305C10.5584 26.1136 10.9489 27.2665 11.8587 27.0955C12.6618 26.9444 12.8494 25.6843 12.9312 25.0404C13.0701 23.9467 12.8483 22.8895 12.3647 21.9055C12.2045 21.5791 11.7666 21.6529 11.5889 21.9055C10.5519 23.38 10.2229 25.1463 10.6083 26.9001C10.6685 27.175 11.033 27.3199 11.2684 27.1678C12.5826 26.318 13.0019 24.5719 12.1504 23.242C11.983 22.9807 11.6727 22.9654 11.4446 23.1513C10.8251 23.6567 10.6152 24.4306 10.8797 25.1822C11.0168 25.5723 11.4646 25.5951 11.7005 25.2894C11.9843 24.9219 12.089 24.5745 12.108 24.1142C12.1232 23.7529 11.5858 23.488 11.3411 23.7975C10.8689 24.396 10.7104 25.062 10.9946 25.7874C11.203 26.3182 12.072 26.0874 11.8613 25.5492C11.7093 25.162 11.6997 24.7814 11.9765 24.4309C11.7208 24.3255 11.4654 24.2198 11.2097 24.1142C11.2136 24.4024 11.1186 24.6437 10.9249 24.8373C11.1984 24.873 11.4721 24.9086 11.7458 24.9443C11.5799 24.4724 11.6925 24.1006 12.0799 23.7847C11.8448 23.7544 11.6097 23.7244 11.3743 23.6941C11.9539 24.5988 11.7337 25.8 10.8146 26.3944C11.0345 26.4836 11.2547 26.5729 11.4747 26.6621C11.1379 25.1297 11.4644 23.6377 12.3647 22.3576C12.1062 22.3576 11.8477 22.3576 11.5889 22.3576C11.8525 22.8941 12.0277 23.46 12.0681 24.0585C12.0967 24.4811 12.161 25.4476 11.8479 25.7841C11.3965 26.269 11.2735 24.9943 11.2838 24.674C11.3046 24.028 11.5192 23.4708 11.8749 22.9374C12.1962 22.4561 11.4183 22.0071 11.0993 22.4856Z" fill="#2B2A29"/>
<path d="M14.5605 14.0723C15.7626 14.6091 15.4763 16.3577 16.0605 17.3629C16.5295 18.1694 17.3226 18.7723 18.2077 19.0595C19.0885 19.3454 20.0264 19.2995 20.8692 18.9172C22.2114 18.3079 23.1038 17.2616 24.7067 17.5806C25.8452 17.8071 26.8505 18.123 28.0112 17.825C28.9633 17.5804 29.8472 17.0177 30.4908 16.2797C31.3376 15.3081 32.5148 12.2883 30.3297 12.0909C30.1906 12.0783 29.9982 12.1822 29.9418 12.3127C29.3105 13.7798 28.4575 15.086 27.3532 16.2441C27.5883 16.4249 27.8234 16.6059 28.0588 16.7867C28.6147 15.9402 29.2547 15.1781 29.9866 14.4785C29.7512 14.2975 29.5163 14.1167 29.281 13.9357C28.5486 14.9358 27.7033 15.8179 26.7494 16.6092C26.9612 16.8203 27.1729 17.0313 27.3848 17.2424C28.1663 16.322 29.0546 15.5638 30.0941 14.9445C29.8893 14.7404 29.6846 14.5357 29.4796 14.3316C28.8501 15.175 28.2206 16.0184 27.5911 16.8616C27.8497 17.0124 28.1082 17.1631 28.3667 17.3137C28.9658 16.4151 29.6625 15.622 30.4676 14.9024C30.2557 14.6914 30.0439 14.4801 29.8322 14.269C28.9985 15.1819 28.1072 16.0289 27.1525 16.8157C27.3877 16.9965 27.6228 17.1775 27.8582 17.3583C28.3973 16.3597 28.9365 15.3612 29.476 14.3629C29.6761 13.9923 29.2529 13.4856 28.8614 13.7503C27.7517 14.4996 26.6422 15.2491 25.5327 15.9987C25.714 16.2333 25.8957 16.4677 26.077 16.7021C26.777 15.893 27.4767 15.0837 28.1764 14.2744C28.4858 13.9164 28.073 13.2538 27.6318 13.571C26.4855 14.3947 25.3395 15.2186 24.1932 16.0423C24.3748 16.2769 24.5562 16.511 24.7376 16.7457C25.4931 15.9512 26.2489 15.1571 27.0046 14.3629C27.345 14.0049 26.9033 13.3761 26.4601 13.6595C25.0149 14.5832 23.5697 15.5068 22.1245 16.4303C22.3058 16.6649 22.4875 16.8993 22.6688 17.1337C23.883 16.1615 25.0107 15.104 26.0585 13.9554C26.3824 13.6005 25.9474 12.9374 25.5142 13.2523C23.8959 14.4275 22.2776 15.6027 20.6592 16.778C20.8406 17.0124 21.0222 17.247 21.2036 17.4814C22.1865 16.6677 23.0722 15.7699 23.8722 14.777C24.1685 14.4093 23.793 13.7787 23.3279 14.0736C22.1543 14.8175 20.9805 15.5612 19.807 16.3049C19.9886 16.5392 20.17 16.7736 20.3516 17.0083C20.9476 16.3341 21.5439 15.6602 22.1399 14.986C22.4167 14.6727 22.1569 14.0877 21.7029 14.2375C20.5229 14.6262 19.4942 15.2389 18.5956 16.0956C18.2371 16.4374 18.7245 17.1101 19.1402 16.7988C19.8247 16.2864 20.1905 15.6284 20.2093 14.7678C20.2173 14.4093 19.8271 14.2354 19.5333 14.3813C18.7744 14.7583 18.004 15.0945 17.2096 15.392C17.3992 15.5358 17.5888 15.6797 17.7781 15.8235C17.784 15.4476 17.7858 15.0717 17.7835 14.6957C17.7822 14.4616 17.579 14.2372 17.3344 14.248C15.9365 14.3093 15.0226 15.7551 15.7284 17.0154C16.5138 18.4179 18.3073 18.3289 19.363 17.3093C19.1127 17.2434 18.8624 17.1775 18.6121 17.1116C18.8272 18.1004 20.0532 18.5923 20.8735 17.965C20.6922 17.7306 20.5106 17.496 20.3292 17.2619C19.9207 17.6042 19.4919 17.8942 19.0288 18.1555C19.2488 18.324 19.4687 18.4925 19.6887 18.6612C19.7417 18.4569 19.7947 18.2522 19.8476 18.0478C19.9042 17.8301 19.7766 17.5399 19.5341 17.497C19.3159 17.4583 19.1366 17.4391 18.9177 17.4437C18.3824 17.455 18.2206 17.4642 18.5344 16.8475C18.8503 16.2272 19.5107 15.6092 19.9415 15.0624C20.1882 14.7493 19.9763 14.1503 19.5042 14.3142C19.1711 14.4296 18.9005 14.5737 18.6301 14.8042C18.4616 14.9481 18.3163 15.1155 18.1542 15.2658C18.1141 15.303 17.1175 16.1418 17.241 15.375C17.2698 15.196 18.4115 14.9981 18.5859 14.956C19.2025 14.8068 19.8237 14.7029 20.4545 14.6334C20.3791 14.3552 20.3035 14.0772 20.2278 13.799C19.4327 14.2857 18.7091 14.8486 18.0431 15.5007C17.6773 15.8592 18.1444 16.4556 18.5874 16.2041C20.0702 15.362 21.6038 14.6409 23.2023 14.0449C23.0567 13.7954 22.9109 13.5459 22.7653 13.2964C22.135 13.9823 21.4569 14.6065 20.721 15.1783C20.2909 15.5127 20.8391 16.0782 21.2656 15.8817C22.3992 15.3594 23.4781 14.7511 24.5112 14.0516C24.3602 13.7936 24.2089 13.5359 24.0577 13.2779C23.316 13.829 22.6572 14.4408 22.0718 15.1563C21.795 15.4945 22.0471 16.013 22.5091 15.9048C23.7508 15.614 24.9547 15.2258 26.1321 14.736C25.9631 14.5167 25.7941 14.2975 25.6248 14.0782C25.329 14.5898 25.0334 15.1017 24.7378 15.6135C24.5084 16.011 24.9614 16.4346 25.3524 16.2264C25.7102 15.962 26.1123 15.9605 26.5581 16.2218C26.4968 16.5708 26.8637 16.9672 27.2181 16.7275C28.6484 15.7605 29.8564 14.5775 30.8561 13.1728C30.5824 13.1369 30.3086 13.1012 30.0352 13.0656C30.3068 13.9105 30.1793 14.7509 29.6035 15.4414C29.7852 15.4181 29.9665 15.3948 30.1479 15.3712C29.8906 15.1917 29.6331 15.0119 29.3756 14.8319C28.901 14.5006 28.4516 15.2768 28.9221 15.6053C29.1796 15.7851 29.4371 15.9648 29.6946 16.1448C29.8438 16.249 30.1203 16.2172 30.2389 16.0748C31.0163 15.1419 31.2759 13.9918 30.9013 12.8276C30.7773 12.4417 30.303 12.4076 30.0805 12.7204C29.1719 13.9975 28.0645 15.0753 26.7646 15.9541C26.9846 16.1228 27.2048 16.2913 27.4247 16.4597C27.5183 15.9264 27.3465 15.464 26.8526 15.1858C26.2005 14.8183 25.4982 15.1335 24.8991 15.4527C25.1039 15.6571 25.3086 15.8615 25.5137 16.0656C25.8092 15.5538 26.1051 15.0422 26.4006 14.5303C26.5774 14.2242 26.2736 13.7141 25.8933 13.8723C24.7159 14.3619 23.5118 14.7504 22.2701 15.0412C22.4157 15.2907 22.5615 15.5399 22.7071 15.7894C23.2414 15.1363 23.8323 14.5557 24.5112 14.0516C24.9644 13.7146 24.5444 12.9486 24.0577 13.2779C23.0246 13.9777 21.9457 14.586 20.8118 15.1083C20.9934 15.3427 21.175 15.5774 21.3564 15.8117C22.0923 15.2399 22.7704 14.6155 23.4007 13.9298C23.6795 13.6261 23.4115 13.0143 22.9634 13.1812C21.2941 13.8039 19.683 14.5509 18.1342 15.4307C18.3158 15.6651 18.4969 15.8994 18.6785 16.1341C19.2902 15.5348 19.95 15.0199 20.6814 14.5724C21.0315 14.3583 20.9221 13.6864 20.4545 13.7377C19.3928 13.8549 18.3114 14.0282 17.3012 14.386C16.7265 14.5896 16.103 14.957 16.1809 15.6597C16.2486 16.2726 16.8991 16.6654 17.4808 16.6285C18.483 16.5646 18.8717 15.4799 19.7432 15.1776C19.5976 14.9281 19.4517 14.6786 19.3061 14.4293C18.8012 15.0699 18.2957 15.7104 17.791 16.3515C17.5335 16.6785 17.198 17.0203 17.2271 17.4688C17.2999 18.5882 18.6059 18.2384 19.2951 18.3607C19.1906 18.1771 19.0859 17.9935 18.9815 17.8099C18.9283 18.0143 18.8755 18.2186 18.8223 18.4233C18.724 18.8028 19.1392 19.1226 19.4821 18.9287C20.0141 18.6287 20.4974 18.2868 20.9646 17.895C21.3499 17.5719 20.8264 16.8813 20.42 17.1919C20.0534 17.4719 19.5817 17.3483 19.4785 16.8734C19.4049 16.5349 18.9589 16.4526 18.7276 16.6759C18.1758 17.209 17.3226 17.4406 16.7309 16.8362C16.1385 16.231 16.3828 15.1853 17.3344 15.1437C17.1847 14.9945 17.0347 14.845 16.885 14.6957C16.8876 15.0717 16.8855 15.4476 16.8796 15.8235C16.8755 16.0941 17.1736 16.3585 17.4483 16.2554C18.3142 15.9312 19.159 15.5658 19.9868 15.1545C19.7617 15.0258 19.5364 14.8968 19.311 14.7678C19.2997 15.2902 19.1114 15.7076 18.6867 16.0253C18.8681 16.26 19.0497 16.4944 19.2313 16.7287C20.0174 15.9792 20.9083 15.4417 21.9416 15.1012C21.796 14.8516 21.6501 14.6021 21.5045 14.3526C20.9085 15.0265 20.3125 15.7007 19.7162 16.3749C19.3944 16.7385 19.808 17.3652 20.2605 17.0783C21.4343 16.3346 22.6079 15.5907 23.7811 14.847C23.5998 14.6127 23.4184 14.3783 23.2368 14.1436C22.4368 15.1365 21.5511 16.0343 20.5684 16.848C20.1803 17.1696 20.6994 17.8517 21.1128 17.5514C22.7311 16.3762 24.3494 15.2007 25.9677 14.0254C25.7861 13.791 25.6047 13.5567 25.4231 13.322C24.3756 14.4708 23.2479 15.5281 22.0334 16.5003C21.6355 16.8193 22.1523 17.4757 22.578 17.2037C24.0232 16.28 25.4684 15.3563 26.9136 14.4329C26.7322 14.1985 26.5506 13.9641 26.369 13.7295C25.6135 14.5239 24.8579 15.3181 24.1024 16.1123C23.767 16.4649 24.2164 17.1247 24.6465 16.8157C25.7928 15.9918 26.939 15.1681 28.0853 14.3444C27.9039 14.1098 27.7223 13.8754 27.541 13.641C26.8413 14.4503 26.1416 15.2596 25.4416 16.0689C25.1296 16.4297 25.5371 17.0754 25.9862 16.7721C27.0957 16.0225 28.2052 15.273 29.3147 14.5234C29.1099 14.3193 28.9049 14.1152 28.7001 13.9105C28.1609 14.9093 27.6215 15.9079 27.0823 16.9062C26.8307 17.3719 27.4023 17.7665 27.7877 17.4488C28.7426 16.6623 29.6336 15.8153 30.4676 14.9024C30.8581 14.4747 30.2631 13.8839 29.8322 14.269C28.971 15.0391 28.2309 15.9015 27.5911 16.8616C27.265 17.3506 28.0295 17.7658 28.3667 17.3137C28.9962 16.4705 29.6259 15.6271 30.2554 14.7837C30.5332 14.4116 30.0028 13.9554 29.6406 14.1708C28.5406 14.8263 27.5778 15.6333 26.7494 16.6092C26.3736 17.0519 26.9395 17.6119 27.3848 17.2424C28.3994 16.4005 29.2792 15.4497 30.0568 14.3878C30.3658 13.9662 29.7072 13.5049 29.3512 13.8451C28.5635 14.5983 27.8805 15.4245 27.283 16.3346C27.0028 16.7611 27.6385 17.2444 27.9886 16.8772C29.1408 15.6689 30.0581 14.2975 30.7177 12.7648C30.5883 12.8386 30.4591 12.9125 30.3297 12.9866C30.8738 13.0356 30.6595 14.069 30.577 14.3457C30.4352 14.8199 30.1762 15.2696 29.8554 15.6463C29.264 16.3413 28.4305 16.8431 27.5312 17.0167C26.5074 17.2139 25.5646 16.8003 24.5685 16.6495C23.7091 16.5192 22.9508 16.6818 22.1934 17.0957C21.4225 17.5168 20.7109 18.1743 19.8181 18.3217C18.8956 18.4743 17.9158 18.113 17.2603 17.4627C16.07 16.2823 16.7353 14.0677 15.0141 13.2992C14.4908 13.0656 14.0335 13.8372 14.5605 14.0723Z" fill="#2B2A29"/>
<path d="M30.4517 35.1266C32.0034 34.2499 33.642 33.6124 35.3776 33.2039C35.9402 33.0713 35.702 32.2074 35.1386 32.34C33.3305 32.7659 31.6144 33.4401 29.9982 34.3535C29.4953 34.6376 29.9475 35.4115 30.4517 35.1266Z" fill="#2B2A29"/>
<path d="M30.5881 37.889C31.6307 37.7643 32.6437 37.9015 33.5978 38.3477C34.1182 38.5908 34.5748 37.819 34.0513 37.5741C32.9557 37.062 31.7927 36.8494 30.5881 36.9932C30.0209 37.0609 30.0142 37.9574 30.5881 37.889Z" fill="#2B2A29"/>
<path d="M30.5562 40.4799C31.6166 41.213 32.5393 42.1008 33.3295 43.1168C33.6838 43.5714 34.3153 42.9334 33.9649 42.4834C33.1258 41.4051 32.1339 40.4837 31.0097 39.7064C30.5333 39.3772 30.0839 40.1532 30.5562 40.4799Z" fill="#2B2A29"/>
<path d="M15.5728 33.9255C13.8367 33.1778 12.0115 33.0037 10.1686 33.4427C9.60631 33.5765 9.84452 34.4405 10.4076 34.3064C11.9984 33.9271 13.6136 34.0504 15.1195 34.699C15.6446 34.9254 16.1027 34.1538 15.5728 33.9255Z" fill="#2B2A29"/>
<path d="M14.7728 36.9877C13.3134 36.8472 11.9081 37.1201 10.5918 37.757C10.0714 38.0083 10.5267 38.781 11.0451 38.5302C12.2232 37.9604 13.4724 37.7583 14.7728 37.8835C15.348 37.9389 15.3441 37.0429 14.7728 36.9877Z" fill="#2B2A29"/>
<path d="M14.4817 39.6087C12.8057 40.5224 11.4009 41.7746 10.2804 43.3145C9.9403 43.782 10.7195 44.2292 11.0562 43.7666C12.0849 42.3531 13.3997 41.2192 14.9349 40.3822C15.4425 40.1055 14.9895 39.3318 14.4817 39.6087Z" fill="#2B2A29"/>
<path d="M43.8699 30.1322C42.3661 29.5265 41.1751 31.3957 41.0418 32.6666C40.9592 33.4564 41.2029 34.0403 41.5079 34.7421C41.8377 35.5004 41.6466 35.8769 41.1442 36.4664C40.7856 36.8875 40.3913 37.2767 40.0391 37.7037C39.1261 38.8107 38.3956 40.5058 39.3932 41.8069C40.6809 43.4863 43.8051 42.568 44.5462 44.8857C44.7211 45.4329 45.5888 45.199 45.4126 44.6474C44.9936 43.3365 43.8586 42.6537 42.5989 42.2664C41.7652 42.0103 40.4162 41.9338 39.9722 41.0574C39.5177 40.1609 40.0658 39.1102 40.6189 38.4109C41.3443 37.4932 42.9001 36.3956 42.6174 35.0445C42.4752 34.3642 41.9543 33.8787 41.92 33.1499C41.8843 32.3878 42.4975 30.5394 43.6312 30.9961C44.1671 31.2121 44.4001 30.3458 43.8699 30.1322Z" fill="#2B2A29"/>
<path d="M45.2181 44.7156C45.3573 44.263 45.4967 43.8104 45.6356 43.3578C45.7424 43.0108 45.2969 42.6113 44.9758 42.8518C44.742 43.0272 44.5766 43.1924 44.4276 43.4439C44.7067 43.5193 44.9856 43.5947 45.2647 43.6701C45.2698 42.9603 45.3936 42.2954 45.6735 41.6399C45.8525 41.2206 45.3251 40.6655 44.9678 41.097C44.4971 41.6663 44.0261 42.2353 43.5553 42.8046C43.7907 42.9857 44.0258 43.1665 44.2609 43.3472C44.646 42.4451 44.9738 41.5302 45.2354 40.5847C45.3558 40.1493 44.804 39.839 44.4845 40.149C44.0184 40.6013 43.552 41.0534 43.0859 41.5055C43.3207 41.6863 43.5561 41.8674 43.7912 42.0482C44.2867 41.124 44.6962 40.1711 45.0262 39.1763C45.1759 38.7255 44.5892 38.4619 44.2756 38.7407C43.4383 39.4841 42.601 40.228 41.7634 40.9714C41.9987 41.1524 42.2339 41.3332 42.4692 41.5143C43.1008 40.4706 43.7323 39.4269 44.3641 38.3832C44.6288 37.9457 44.0202 37.4826 43.6585 37.8406C42.7437 38.7458 41.829 39.6513 40.9142 40.5562C41.1493 40.7373 41.3847 40.918 41.6198 41.0991C42.4376 39.8844 43.2554 38.6696 44.0729 37.4549C44.3698 37.0138 43.732 36.5892 43.3673 36.9123C42.1204 38.017 40.8736 39.122 39.627 40.227C39.8621 40.4077 40.0972 40.5888 40.3323 40.7693C41.1725 39.5092 42.0124 38.2491 42.8523 36.989C43.0938 36.6266 42.604 36.1158 42.2377 36.3763C41.1918 37.1195 40.329 38.007 39.6239 39.0784C39.3492 39.4961 40.0128 40.0251 40.3298 39.621C40.7429 39.0935 41.156 38.566 41.5694 38.0385C41.3191 37.8934 41.0688 37.748 40.8185 37.6029C40.4424 38.8532 39.0827 39.7795 39.4104 41.2263C39.6759 42.3979 41.1486 42.7562 42.1989 42.5779C43.1895 42.41 43.7704 41.6084 44.1138 40.7267C44.7026 39.2161 44.9079 37.5026 45.2572 35.9245C45.3421 35.5416 44.9506 35.2275 44.5974 35.4186C44.1138 35.6806 43.6261 35.9314 43.1314 36.172C43.3567 36.3009 43.5821 36.4297 43.8074 36.5587C43.8288 36.0086 43.9831 35.5629 44.3361 35.1311C44.1009 34.95 43.8658 34.769 43.6304 34.5885C43.3187 35.0954 42.9608 35.5416 42.5364 35.9583C42.7715 36.1394 43.0069 36.3202 43.242 36.501C43.7436 35.3262 44.1269 34.13 44.3775 32.8765C44.4446 32.5414 44.0585 32.1111 43.7174 32.3711C43.347 32.6534 43.063 32.9486 42.816 33.3455C43.0748 33.4963 43.3333 33.6471 43.5919 33.7976C43.9695 33.0799 44.2717 32.3442 44.5043 31.5669C44.6198 31.1815 44.1791 30.8789 43.8442 31.0612C43.2057 31.4089 42.6789 31.8426 42.2226 32.409C42.4726 32.5542 42.7231 32.6996 42.9734 32.8447C43.2217 32.1557 43.4699 31.4666 43.7184 30.7773C43.8969 30.2817 43.162 30.0229 42.897 30.4324C42.3674 31.2515 41.954 32.1123 41.634 33.0324C41.573 33.2078 41.6721 33.4548 41.8403 33.5381C42.1544 33.694 42.2745 33.7263 42.6246 33.751C43.2016 33.7917 43.1988 32.896 42.6246 32.8552C42.5143 32.8252 42.4042 32.795 42.2938 32.7647C42.3625 32.9334 42.4314 33.1019 42.5001 33.2704C42.7954 32.4221 43.1854 31.6385 43.6731 30.8843C43.3992 30.7694 43.1255 30.6543 42.8518 30.5394C42.6035 31.2284 42.3553 31.9175 42.107 32.6067C41.9599 33.015 42.5781 33.3899 42.8577 33.0424C43.2659 32.5357 43.7238 32.147 44.298 31.8344C44.078 31.6659 43.8578 31.4974 43.6379 31.3287C43.4277 32.0313 43.1579 32.6957 42.816 33.3455C42.5477 33.8558 43.286 34.2897 43.5919 33.7976C43.7326 33.5338 43.9258 33.316 44.1709 33.1445C43.951 32.9758 43.731 32.807 43.5111 32.6385C43.2765 33.8115 42.9367 34.948 42.4662 36.0489C42.2784 36.4887 42.7795 36.9766 43.1718 36.5915C43.6536 36.1186 44.0531 35.615 44.4065 35.0403C44.6664 34.6175 44.0286 34.0961 43.7007 34.4977C43.1967 35.1149 42.9397 35.7591 42.9091 36.5587C42.8952 36.9205 43.2953 37.0864 43.5849 36.9451C44.0793 36.7046 44.5673 36.4538 45.0507 36.1922C44.8307 36.0235 44.6108 35.8547 44.3908 35.6863C44.157 36.743 43.9229 37.7998 43.6891 38.8566C43.5129 39.6531 43.3691 40.6467 42.7934 41.2727C41.9697 42.1674 39.8888 41.665 40.3753 40.2393C40.6724 39.3687 41.4138 38.7419 41.6849 37.8411C41.8063 37.4382 41.2185 37.042 40.934 37.4051C40.5209 37.9326 40.1075 38.4604 39.6944 38.9876C39.9295 39.1686 40.1649 39.3494 40.3997 39.5305C41.0171 38.5922 41.7742 37.8011 42.691 37.1495C42.4862 36.9454 42.2812 36.7412 42.0764 36.5369C41.2363 37.7972 40.3964 39.0574 39.5567 40.3175C39.262 40.7596 39.8971 41.1837 40.2621 40.8601C41.509 39.7551 42.7558 38.6504 44.0027 37.5454C43.7673 37.3646 43.5324 37.1838 43.2971 37.0028C42.4793 38.2175 41.6618 39.4323 40.844 40.647C40.5551 41.076 41.1938 41.5417 41.5496 41.1896C42.4644 40.2844 43.3791 39.3789 44.2939 38.474C44.0587 38.2929 43.8234 38.1121 43.5882 37.9311C42.9567 38.9748 42.3249 40.0185 41.6931 41.0622C41.421 41.5122 42.0273 41.9348 42.3988 41.6048C43.2363 40.8611 44.0734 40.1175 44.9107 39.3738C44.6604 39.2287 44.4101 39.0835 44.1601 38.9381C43.8537 39.86 43.4743 40.7401 43.0156 41.5963C42.7774 42.0405 43.3477 42.501 43.721 42.1389C44.1874 41.6868 44.6535 41.2345 45.1199 40.7824C44.8696 40.637 44.6193 40.4918 44.369 40.3465C44.1287 41.2158 43.8393 42.0651 43.4851 42.8954C43.3063 43.3144 43.8334 43.8699 44.1907 43.438C44.6615 42.8687 45.1325 42.2995 45.6032 41.7304C45.3681 41.5496 45.133 41.3686 44.8976 41.1878C44.5537 41.9933 44.3726 42.7926 44.3664 43.6701C44.3628 44.1168 44.9784 44.2761 45.2032 43.896C45.2786 43.8058 45.354 43.7155 45.4293 43.6252C45.2094 43.4567 44.9894 43.2883 44.7695 43.1195C44.6301 43.5724 44.4909 44.025 44.3517 44.4776C44.182 45.03 45.0489 45.2661 45.2181 44.7156Z" fill="#2B2A29"/>
<path d="M0.281384 32.6794C0.807444 33.4 1.52258 33.7652 2.27398 34.2129C2.79207 34.5214 3.29755 34.8753 3.47736 35.4838C3.66592 36.1231 3.4645 36.8165 3.29395 37.435C2.74448 39.4255 2.47026 41.2884 3.78734 43.0686C4.86467 44.5246 8.85115 45.9091 7.40287 48.2137C6.6471 49.4166 5.10441 49.5718 3.81435 49.4808C2.90963 49.4172 1.98664 49.1012 1.24527 49.7733C0.816704 50.1621 1.45338 50.794 1.88066 50.4065C2.33443 49.9949 3.59055 50.3752 4.12844 50.3949C4.6864 50.4157 5.2513 50.3883 5.79768 50.267C6.75231 50.0554 7.65677 49.5069 8.17897 48.6658C9.48885 46.5548 7.53047 44.9078 5.92579 43.8097C4.75071 43.0053 3.89461 41.9793 3.70836 40.5274C3.53524 39.178 4.18529 37.9915 4.38517 36.6885C4.53154 35.7346 4.36407 34.8084 3.65434 34.1119C2.88544 33.3574 1.7029 33.1118 1.05748 32.2276C0.720496 31.7658 -0.0594621 32.2122 0.281384 32.6794Z" fill="#2B2A29"/>
<path d="M1.87062 34.0622C1.29054 34.6779 0.988541 35.3582 0.884358 36.1942C0.830594 36.6258 1.38932 36.7211 1.6512 36.5109C2.13918 36.1193 2.53379 35.6849 2.89522 35.1777C2.63669 35.0269 2.37816 34.8764 2.11963 34.7256C1.52489 35.5633 1.12771 36.4714 0.913169 37.4753C0.815417 37.932 1.31884 38.1931 1.6638 37.911C2.23848 37.4412 2.81342 36.9714 3.3881 36.5019C3.15272 36.3209 2.9176 36.1398 2.68248 35.959C2.02343 37.2597 1.45029 38.5947 0.960244 39.9671C0.796895 40.4248 1.40039 40.6664 1.71113 40.4028C2.5428 39.6978 3.20571 38.869 3.71351 37.9059C3.4398 37.7907 3.1661 37.6759 2.89239 37.5607C2.4327 39.3068 1.83204 41.001 1.07729 42.6425C0.839598 43.1595 1.59692 43.6167 1.85313 43.0943C2.2552 42.2745 2.73959 41.5362 3.34514 40.85C3.08944 40.7444 2.834 40.6387 2.5783 40.5333C2.39205 41.9673 1.98973 43.3482 1.38341 44.6614C1.1843 45.093 1.71782 45.6051 2.08902 45.204C2.60428 44.6473 3.11928 44.0906 3.63453 43.5341C3.38449 43.3887 3.1342 43.2436 2.8839 43.0982C2.4399 44.5003 1.79911 45.7933 0.963331 47.0037C0.677278 47.4181 1.34071 47.9373 1.6692 47.546C2.43321 46.6357 3.19722 45.7253 3.96123 44.8147C3.72611 44.6339 3.49073 44.4529 3.25562 44.2721C2.66988 45.4294 2.08413 46.5867 1.49839 47.7442C1.27742 48.1807 1.83512 48.671 2.20401 48.2866C3.21369 47.2347 4.2231 46.1828 5.23252 45.1307C4.9974 44.9499 4.76203 44.7688 4.52691 44.5883C3.82232 45.9548 3.04982 47.2798 2.20735 48.5666C1.93339 48.9851 2.59193 49.5106 2.91297 49.1095C3.97589 47.7812 5.10853 46.5164 6.31191 45.313C6.07653 45.1319 5.84141 44.9512 5.60604 44.7701C4.76537 46.1002 3.92444 47.4304 3.08352 48.7602C2.8111 49.191 3.43466 49.668 3.78888 49.3031C4.71932 48.3446 5.64951 47.386 6.5797 46.4275C6.3294 46.2823 6.07911 46.1369 5.82881 45.9918C5.5124 46.8588 5.08975 47.6465 4.55932 48.4007C4.26966 48.8123 4.94724 49.3429 5.26493 48.9433C5.97621 48.0481 6.76749 47.247 7.65446 46.5244C7.39876 46.4187 7.14332 46.3133 6.88762 46.2077C6.80942 46.9713 6.53082 47.646 6.04361 48.2438C5.68604 48.6823 6.28619 49.3126 6.67874 48.8769C7.08904 48.4217 7.49934 47.9666 7.90938 47.5114C7.65934 47.3663 7.40905 47.2211 7.15875 47.0757C7.04402 47.7294 6.86472 48.3415 6.58562 48.9462C6.85932 48.9818 7.13277 49.0174 7.40647 49.0531C7.2938 48.7279 7.18113 48.4025 7.06846 48.0774C6.88093 47.5358 6.01274 47.7683 6.20232 48.3153C6.315 48.6407 6.42767 48.9659 6.54034 49.2913C6.65378 49.619 7.18705 49.7757 7.3612 49.3982C7.67221 48.7246 7.89678 48.0456 8.02514 47.3139C8.09563 46.9113 7.60146 46.5149 7.27425 46.8783C6.86395 47.3334 6.45391 47.7886 6.04361 48.2438C6.25532 48.4546 6.46703 48.6659 6.67874 48.8769C7.32776 48.0807 7.68147 47.2301 7.78616 46.2077C7.8299 45.7794 7.28531 45.674 7.01907 45.891C6.1321 46.6136 5.34082 47.4147 4.62955 48.3099C4.86466 48.491 5.10004 48.6718 5.33516 48.8528C5.9101 48.035 6.35307 47.1673 6.6952 46.23C6.85186 45.8002 6.24297 45.4863 5.94431 45.7941C5.01412 46.7526 4.08394 47.7112 3.15375 48.6697C3.38887 48.8505 3.62424 49.0315 3.85911 49.2123C4.70003 47.8825 5.54121 46.5523 6.38214 45.2222C6.6561 44.7888 6.03435 44.3219 5.67652 44.6796C4.47314 45.883 3.34051 47.1478 2.27758 48.4761C2.5127 48.6569 2.74782 48.8379 2.9832 49.0187C3.82566 47.7319 4.59816 46.4069 5.30275 45.0401C5.52809 44.6034 4.96447 44.1147 4.59713 44.4975C3.58771 45.5494 2.5783 46.6013 1.56862 47.6535C1.804 47.8345 2.03912 48.0153 2.27424 48.1963C2.85998 47.0388 3.44572 45.8815 4.03146 44.7242C4.24728 44.2978 3.67183 43.7693 3.32584 44.1816C2.56183 45.0919 1.79782 46.0025 1.03356 46.9129C1.26893 47.0937 1.50405 47.2745 1.73943 47.4555C2.61946 46.181 3.2834 44.8111 3.75003 43.3361C3.88406 42.9138 3.30166 42.5738 2.9994 42.9007C2.48415 43.4574 1.96889 44.0141 1.45363 44.5709C1.68875 44.7517 1.92413 44.9324 2.15925 45.1135C2.83631 43.6467 3.26873 42.1342 3.47659 40.5333C3.52675 40.1479 2.95181 39.9422 2.71001 40.2166C2.0561 40.9574 1.51254 41.7552 1.07729 42.6425C1.33582 42.793 1.5946 42.9438 1.85313 43.0943C2.64004 41.3831 3.27902 39.6201 3.75878 37.7987C3.88509 37.3197 3.18024 36.9937 2.93766 37.4538C2.46331 38.3534 1.8521 39.1114 1.07575 39.7696C1.32604 39.9148 1.57634 40.0599 1.82664 40.2053C2.29096 38.9052 2.83425 37.6428 3.45832 36.4111C3.6955 35.9429 3.145 35.5477 2.75271 35.8682C2.17803 36.3383 1.60335 36.8078 1.02867 37.2779C1.27871 37.4228 1.52901 37.5682 1.77956 37.7133C1.97841 36.783 2.34472 35.9534 2.89522 35.1777C3.23015 34.7058 2.45173 34.2594 2.11963 34.7256C1.80297 35.1695 1.43974 35.5374 1.01607 35.8777C1.27151 35.9831 1.52721 36.0888 1.7829 36.1942C1.8557 35.611 2.10549 35.1207 2.50601 34.6953C2.90165 34.2755 2.26755 33.6409 1.87062 34.0622Z" fill="#2B2A29"/>
<path d="M5.3318 43.3919C4.66092 43.7606 4.09473 44.2286 3.61471 44.824C3.86501 44.9692 4.11531 45.1146 4.36586 45.2597C4.51197 44.6048 4.98581 43.419 4.00315 43.189C3.2003 43.0013 2.80697 43.7468 2.6871 44.4071C2.6035 44.8692 3.08145 45.1187 3.43825 44.8428C3.68674 44.6404 3.96534 44.532 4.27428 44.5171C4.0847 44.3732 3.89511 44.2294 3.70552 44.0855C3.66822 44.8679 3.63066 45.6503 3.59311 46.4327C3.5679 46.9622 3.3814 47.7584 3.58976 48.2759C3.97408 49.2301 5.40615 48.5982 6.0953 48.4541C5.91111 48.2705 5.72693 48.0869 5.54274 47.9033C5.31483 48.6806 4.566 48.976 3.80816 48.977C3.44828 48.9775 2.24387 48.9013 2.00901 48.5298C1.92258 48.3926 1.98997 47.6499 1.98637 47.4843C1.9802 47.194 1.97402 46.9037 1.96785 46.6134C1.95396 45.9744 1.94033 45.3356 1.92669 44.6968C1.87164 42.1415 1.81659 39.5861 1.76154 37.0307C1.74919 36.4548 0.874314 36.4535 0.863253 37.0307C0.852706 37.5713 0.842416 38.1116 0.831869 38.6522C0.822351 39.1425 1.64321 39.281 1.71421 38.7712C1.85595 37.7567 2.02753 36.7302 2.30998 35.7437C2.40825 35.4014 2.66112 34.5862 2.84813 35.3429C2.99733 35.9476 2.88157 36.5348 2.64491 37.0954C2.93379 37.0954 3.22242 37.0954 3.5113 37.0954C3.28159 35.9037 2.78022 34.8682 2.02727 33.9194C1.76823 33.5925 1.27638 33.8869 1.26043 34.2361C1.236 34.7769 1.35304 35.2195 1.63395 35.6816C1.93287 36.1743 2.71025 35.7247 2.40954 35.2295C2.20426 34.8916 2.14149 34.6228 2.15898 34.2361C1.90328 34.3418 1.64758 34.4472 1.39189 34.5528C2.04502 35.3757 2.44709 36.3068 2.64491 37.3333C2.73906 37.8206 3.3603 37.6908 3.5113 37.3333C3.85318 36.5243 4.14412 33.8427 2.58575 34.0205C2.00386 34.0866 1.7016 34.6864 1.53337 35.1742C1.16526 36.2394 1.00294 37.4215 0.847818 38.5332C1.1421 38.5727 1.43613 38.6124 1.73042 38.6522C1.74071 38.1116 1.75125 37.5713 1.76154 37.0307C1.46211 37.0307 1.16268 37.0307 0.863253 37.0307C0.942998 40.7467 0.984928 44.4661 1.103 48.1813C1.11921 48.6893 1.10455 49.1109 1.57916 49.406C2.11422 49.7389 3.02048 49.8384 3.64404 49.8702C4.86568 49.932 6.05054 49.3642 6.40913 48.1413C6.51023 47.7966 6.18096 47.5225 5.85658 47.5902C5.49773 47.6656 5.08871 47.8159 4.72343 47.8277C4.47467 47.8356 4.5467 47.9054 4.42734 47.7741C4.33576 47.6733 4.46156 47.0637 4.46773 46.9358C4.513 45.9857 4.55854 45.0356 4.60407 44.0855C4.6195 43.7652 4.30618 43.6134 4.03556 43.6537C3.53909 43.727 3.19515 43.9055 2.80286 44.2094C3.05315 44.3548 3.30345 44.4997 3.55375 44.6451C3.67825 43.9583 3.53574 44.8587 3.49921 45.0218C3.41072 45.4177 3.94784 45.8326 4.2501 45.4574C4.68767 44.9146 5.17103 44.5027 5.78507 44.1653C6.29183 43.887 5.83883 43.1131 5.3318 43.3919Z" fill="#2B2A29"/>
</svg>
