<svg width="68" height="57" viewBox="0 0 68 57" fill="none" xmlns="http://www.w3.org/2000/svg">
<path d="M55.0384 46.5999C44.6291 59.285 22.8714 59.8933 13.6898 44.9072C12.2704 42.5901 11.274 39.9386 9.80344 37.6663C8.33309 35.3938 6.19182 33.4486 3.766 33.4481C4.60454 32.0829 5.77166 31.0011 7.0955 30.3627C5.26947 28.9438 2.96613 28.4037 0.817749 28.8906C3.56147 22.5815 8.25995 17.4839 13.8232 14.7802C14.5333 14.435 15.3 14.0888 15.7406 13.3477C16.1408 12.6737 16.1908 11.806 16.2606 10.988C16.5918 7.1079 17.6798 3.32021 19.4163 0C21.6611 3.43452 23.1902 7.51298 23.8331 11.7806C32.0738 11.314 37.4179 11.7692 45.5857 13.1382C46.5981 9.90181 50.5447 6.66516 51.5571 3.42872C52.6873 7.29328 53.2526 11.3856 53.2233 15.4729C59.4653 16.8072 64.9621 22.2223 67.1822 29.2235C65.9733 29.3995 64.7998 29.8806 63.7589 30.6254C65.2515 32.5319 66.3508 34.8619 66.9377 37.361C64.4848 36.8771 62.0102 38.2697 60.1206 40.1761C58.233 42.0825 56.7678 44.4939 55.0384 46.5999Z" fill="#2B2A29"/>
<path d="M47.365 23.0235C46.1935 24.5275 45.6822 26.4736 46.1879 28.3462C46.6101 29.909 48.1358 30.9803 49.5061 29.6173C50.1763 28.9509 50.422 27.9148 50.6243 27.0226C50.833 26.1013 50.9518 25.0685 50.5256 24.1875C49.9231 22.9415 48.1567 22.3254 47.1252 23.4154C46.6923 23.8731 47.3826 24.5676 47.8168 24.1086C48.8029 23.0663 49.838 24.6944 49.8369 25.6059C49.8358 26.5728 49.5314 28.2047 48.81 28.8932C47.512 30.1312 46.978 27.8087 46.974 26.8698C46.9689 25.7236 47.3537 24.6193 48.0566 23.7169C48.4394 23.2251 47.7521 22.5266 47.365 23.0235Z" fill="#FEFEFE"/>
<path d="M20.8754 23.0235C19.7039 24.5275 19.1926 26.4736 19.6985 28.3462C20.1207 29.909 21.6462 30.9803 23.0167 29.6173C23.6867 28.9509 23.9324 27.9148 24.1347 27.0226C24.3434 26.1013 24.4622 25.0685 24.036 24.1875C23.4335 22.9415 21.6671 22.3254 20.6358 23.4154C20.2027 23.8731 20.893 24.5676 21.3272 24.1086C22.3135 23.0663 23.3484 24.6944 23.3475 25.6059C23.3462 26.5728 23.0418 28.2047 22.3204 28.8932C21.0226 30.1312 20.4884 27.8087 20.4844 26.8698C20.4793 25.7236 20.8641 24.6193 21.567 23.7169C21.9498 23.2251 21.2625 22.5266 20.8754 23.0235Z" fill="#FEFEFE"/>
<path d="M26.8745 34.9225C26.9062 37.0107 28.466 39.3084 30.7306 39.3078C33.1231 39.3073 34.3207 36.8481 35.0972 34.9506C34.7771 34.9071 34.4567 34.8637 34.1366 34.8204C34.4071 37.1618 35.1992 39.593 37.9345 39.7737C40.4035 39.937 42.1555 37.8107 42.2942 35.4851C42.3318 34.855 41.3536 34.8572 41.3163 35.4851C41.2071 37.3142 39.8106 38.9914 37.866 38.7824C35.7801 38.558 35.3182 36.5814 35.1145 34.8204C35.0501 34.2598 34.3678 34.168 34.1542 34.6899C33.5882 36.0729 32.7814 37.9769 31.1308 38.289C29.2365 38.6473 27.878 36.5881 27.8524 34.9225C27.8428 34.2921 26.8649 34.2904 26.8745 34.9225Z" fill="#FEFEFE"/>
<path d="M35.1343 32.2551C34.1666 31.2364 32.4573 32.0521 32.5898 33.4356C32.7221 34.8162 34.4183 35.7108 35.6132 34.9733C36.664 34.3244 36.7225 32.5354 35.5863 31.9416C34.4847 31.3659 32.9417 32.4742 33.3174 33.7179C33.6978 34.9784 35.6665 34.9421 36.0691 33.736C36.1434 33.5129 36.0136 33.3088 35.8444 33.1825C35.3295 32.7977 34.3247 32.5227 34.0953 33.3828C33.9497 33.9294 34.3849 34.5862 34.9885 34.3815C35.5814 34.1803 35.3268 33.2333 34.7284 33.4363C34.9669 33.4884 35.0823 33.6221 35.0743 33.8374C35.171 33.8946 35.2628 33.9583 35.3506 34.0288C35.2757 33.8443 35.2008 33.6598 35.1259 33.4753C34.9929 33.8732 34.1404 33.6878 34.2498 33.2328C34.3162 32.9566 34.6862 32.7467 34.9543 32.7672C35.2939 32.793 35.4476 33.1219 35.4469 33.43C35.4453 34.2493 34.5472 34.4619 33.963 34.0232C33.6733 33.8055 33.3812 33.2763 33.6564 32.945C33.8565 32.7043 34.2447 32.74 34.4427 32.9485C34.8776 33.4064 35.5685 32.7126 35.1343 32.2551Z" fill="#FEFEFE"/>
<path d="M51.7194 35.3258C53.7182 36.0252 55.5882 36.98 57.3369 38.1745C57.8573 38.5308 58.3484 37.6816 57.83 37.3282C56.0126 36.086 54.0565 35.1072 51.9793 34.3803C51.3839 34.172 51.128 35.1188 51.7194 35.3258Z" fill="#FEFEFE"/>
<path d="M51.5624 38.3332C52.6617 38.899 53.6028 39.6583 54.3931 40.6109C54.7959 41.0966 55.4846 40.4001 55.0856 39.9179C54.2464 38.9074 53.2213 38.0864 52.0562 37.487C51.4971 37.1995 51.0016 38.0449 51.5624 38.3332Z" fill="#FEFEFE"/>
<path d="M50.2459 40.4896C50.7312 41.3739 51.2165 42.2581 51.7021 43.1424C52.0055 43.6953 52.8496 43.2013 52.5464 42.6476C52.0613 41.7634 51.5758 40.8791 51.0905 39.9949C50.787 39.4421 49.942 39.9361 50.2459 40.4896Z" fill="#FEFEFE"/>
<path d="M18.5224 32.8998C16.651 32.4927 14.8054 32.736 13.1032 33.6148C12.5432 33.9038 13.0373 34.7501 13.5967 34.4613C15.0581 33.7071 16.6563 33.4958 18.2625 33.8452C18.8758 33.9787 19.1381 33.0339 18.5224 32.8998Z" fill="#FEFEFE"/>
<path d="M17.9237 35.3014C16.5223 35.6214 15.27 36.3017 14.225 37.2892C13.7661 37.7228 14.4586 38.4149 14.9168 37.9822C15.8443 37.1056 16.942 36.5301 18.1836 36.2469C18.7972 36.1067 18.5375 35.1615 17.9237 35.3014Z" fill="#FEFEFE"/>
<path d="M18.3078 38.4396C17.5211 39.1209 16.7346 39.8021 15.9478 40.4832C15.4707 40.8964 16.165 41.5871 16.6394 41.1764C17.4259 40.4953 18.2127 39.8139 18.9994 39.133C19.4765 38.7196 18.7822 38.0289 18.3078 38.4396Z" fill="#FEFEFE"/>
<path d="M34.6319 46.304C33.457 43.3635 28.9717 45.7938 28.9853 48.2909C29.0015 51.3578 34.4503 51.3892 36.0313 49.7281C38.1824 47.4676 35.2681 44.3695 32.6909 45.6068C31.5563 46.1518 30.4496 47.5725 30.9871 48.8867C31.4824 50.0973 32.9588 50.3992 34.0763 49.9518C35.0547 49.5601 36.9443 47.9683 35.7172 46.8544C34.5521 45.7967 32.7785 47.1608 32.2732 48.2494C32.1305 48.5572 32.2523 48.8484 32.5655 48.9696C33.6024 49.3709 34.7577 48.9019 35.2299 47.8956C35.3913 47.5516 35.197 47.1813 34.8075 47.1581C33.8754 47.1022 33.0933 47.3863 32.367 47.9605C32.2118 48.0832 32.1756 48.3943 32.2905 48.5545C32.917 49.427 34.1915 49.5855 34.8975 48.7004C35.1038 48.442 35.0812 47.9556 34.6817 47.8814C33.2918 47.6227 31.8973 47.491 30.4832 47.4965C29.9087 47.499 29.8496 48.2755 30.3533 48.4596C31.3088 48.8085 32.2732 48.5692 32.9859 47.8522C33.2885 47.548 33.0619 47.0224 32.64 47.0155C31.4578 46.9963 30.4314 47.6111 29.9225 48.6882C29.7865 48.9761 29.8927 49.3112 30.2146 49.4083C31.5213 49.8023 32.847 50.03 34.2088 50.1046C34.8377 50.1392 34.8362 49.1585 34.2088 49.1242C32.9328 49.0543 31.6983 48.8319 30.4749 48.4629C30.5723 48.7029 30.6697 48.9429 30.7671 49.1828C31.1334 48.4074 31.7714 47.9816 32.64 47.9959C32.5248 47.7169 32.4097 47.4379 32.2943 47.1592C31.813 47.6432 31.2381 47.7423 30.6132 47.5144C30.5699 47.8352 30.5267 48.1559 30.4832 48.4769C31.8108 48.4716 33.116 48.5837 34.4218 48.8265C34.3498 48.5534 34.278 48.2804 34.2059 48.0072C33.9525 48.3252 33.4499 48.4981 33.1353 48.0596C33.1095 48.2577 33.0842 48.4558 33.0586 48.6539C33.5846 48.2379 34.1533 48.099 34.8075 48.1383C34.6668 47.8925 34.5261 47.6465 34.3853 47.401C34.0868 48.0373 33.4783 48.2769 32.8256 48.0242C32.923 48.2644 33.0204 48.5044 33.1177 48.7443C33.3067 48.3372 33.5412 47.9963 33.9347 47.7557C34.157 47.6153 34.3989 47.5295 34.6599 47.4988C34.9376 47.9473 34.9024 48.2831 34.5541 48.5068C33.9005 49.2107 31.9542 49.6681 31.8295 48.2203C31.7385 47.1648 33.0651 46.302 33.9727 46.2706C34.9607 46.2363 35.9053 47.0941 35.7823 48.1144C35.5233 50.2613 32.1903 50.0988 30.7786 49.3725C28.0507 47.9685 32.8708 44.5177 33.6889 46.5647C33.9201 47.1432 34.8664 46.8905 34.6319 46.304Z" fill="#F9E805"/>
<path d="M17.2072 49.9424C21.2959 48.1258 25.829 47.487 30.2585 48.11C30.874 48.1969 31.1401 47.2524 30.5186 47.1648C25.7999 46.501 21.07 47.1603 16.7137 49.0962C16.1392 49.3511 16.6363 50.1962 17.2072 49.9424Z" fill="#F9E805"/>
<path d="M18.4984 51.9556C22.13 49.9315 26.2614 49.1391 30.3836 49.6385C31.0072 49.714 31.0017 48.7332 30.3836 48.6583C26.0973 48.1389 21.7759 49.0072 18.0046 51.1091C17.4544 51.4155 17.9471 52.2626 18.4984 51.9556Z" fill="#F9E805"/>
<path d="M35.071 50.4914C39.3571 50.2652 43.6018 51.5729 46.9858 54.2316C47.4758 54.6166 48.1727 53.9274 47.6776 53.5384C44.0878 50.718 39.6334 49.2703 35.071 49.5109C34.445 49.5439 34.441 50.5245 35.071 50.4914Z" fill="#F9E805"/>
<path d="M36.2743 48.1794C40.4786 48.4795 44.4973 49.8699 48.0084 52.2035C48.5344 52.5533 49.0248 51.7046 48.5019 51.3572C44.8454 48.9267 40.6487 47.5114 36.2743 47.199C35.6461 47.1542 35.6489 48.1346 36.2743 48.1794Z" fill="#F9E805"/>
</svg>
