<svg width="62" height="54" viewBox="0 0 62 54" fill="none" xmlns="http://www.w3.org/2000/svg">
<path d="M11.9487 0.386332C11.4887 3.59289 12.312 6.85357 14.5169 9.26535C16.9504 11.9266 20.5903 12.8975 24.03 13.3549C28.1631 13.905 32.3455 14.1738 36.4963 14.5604C40.1215 14.8981 44.1398 15.4208 47.2471 13.0647C48.5504 12.0767 49.4793 10.7085 49.8525 9.10447C50.2268 7.49637 50.0188 5.09682 51.4619 3.98917C51.2205 3.89019 50.9787 3.79122 50.7372 3.69224C52.3518 9.17045 53.9664 14.6483 55.581 20.1265C56.3668 22.7918 57.1989 25.449 57.9159 28.134C58.6358 30.829 59.19 33.6356 58.8485 36.4344C58.2615 41.2394 54.9241 45.1596 51.0666 47.7949C47.373 50.3182 43.0735 51.7432 38.6733 52.3512C34.1758 52.9732 29.5885 52.7941 25.0904 52.2778C20.8914 51.7966 16.5481 51.1923 12.5578 49.7336C8.42402 48.2227 4.89304 45.458 3.46983 41.133C1.99031 36.6368 2.641 31.7176 3.39916 27.1483C4.16653 22.5261 5.16649 17.9275 6.57866 13.4591C7.98127 9.02106 9.78834 4.48702 12.7732 0.869725C13.1762 0.381142 12.482 -0.325414 12.0757 0.166877C9.35737 3.46129 7.58857 7.453 6.19811 11.4695C4.70424 15.786 3.64759 20.2518 2.82208 24.7428C1.98957 29.2743 1.18283 33.9785 1.86628 38.5833C2.5339 43.0818 4.96039 46.8418 8.8837 49.1223C12.6322 51.3017 17.0111 52.0968 21.2348 52.7485C26.0215 53.4899 30.8874 53.9489 35.7315 53.6367C44.5177 53.0707 54.6628 49.3644 58.6192 40.7475C61.2827 34.9471 59.1731 28.8228 57.4786 23.0736C55.5486 16.5252 53.6186 9.97673 51.6886 3.4283C51.6073 3.1525 51.2271 2.92934 50.964 3.13137C48.734 4.84289 49.5724 8.00868 48.3807 10.2829C46.6387 13.6066 42.637 14.0422 39.3114 13.8146C35.3955 13.5462 31.4847 13.0995 27.5765 12.7355C24.0974 12.4115 20.4236 12.1309 17.3497 10.2907C14.0186 8.29634 12.3499 4.48406 12.9001 0.65027C12.9899 0.0248984 12.0393 -0.245342 11.9487 0.386332Z" fill="#2B2A29"/>
<path d="M46.4223 11.5143C46.2714 9.84986 45.7337 8.22249 44.8651 6.79863C44.5401 6.2663 44.1434 5.74028 43.577 5.48561C42.3565 4.93697 41.0099 5.84222 39.9768 6.69594C39.3099 7.24718 38.5944 7.88367 38.487 8.74592C38.3456 9.88286 39.3224 10.8385 40.2988 11.4265C41.5678 12.1912 42.9921 12.6939 44.4573 12.8937C44.9542 12.9615 45.4808 12.9908 45.9368 12.7806C46.3928 12.5704 46.7432 12.0503 46.6067 11.5644C47.6526 10.5383 49.6202 10.7214 50.4244 11.9491C51.2282 13.1765 50.5767 15.1083 49.183 15.5464C47.7888 15.9846 46.1418 14.712 46.243 13.2447C46.2736 14.8766 48.4991 15.8289 49.8664 14.9529C50.265 14.6979 50.594 14.3379 51.0132 14.1185C52.5579 13.3107 54.2976 14.7023 55.4879 15.9816C55.7694 16.2841 56.0638 16.6126 56.1286 17.0218C56.2331 17.6809 55.712 18.2666 55.1824 18.6681C53.9428 19.6078 52.2226 20.1576 50.8366 19.4555C49.4505 18.753 49.0236 16.4357 50.3651 15.6506L46.4223 11.5143Z" fill="#FEFEFE"/>
<path d="M46.9159 11.5143C46.7761 10.1987 46.4625 8.93239 45.9141 7.72725C45.4268 6.65592 44.7515 5.36181 43.5664 4.95589C42.4336 4.56777 41.2724 5.12567 40.3567 5.78033C39.4881 6.40088 38.4812 7.15303 38.1172 8.20286C37.2523 10.6973 40.4918 12.2909 42.3349 12.9067C43.4203 13.2692 44.9528 13.7311 46.068 13.2596C47.0216 12.857 46.8438 11.7175 47.7782 11.4647C49.3961 11.0269 50.8149 12.5482 50.0697 14.1118C49.2427 15.8463 46.7356 15.0827 46.7363 13.2448C46.4077 13.2448 46.0786 13.2448 45.75 13.2448C45.8582 14.5485 46.8235 15.4749 48.0815 15.721C48.677 15.8371 49.3049 15.7833 49.8558 15.5201C50.8039 15.0664 51.367 14.1311 52.558 14.4625C53.488 14.7216 54.5778 15.542 55.139 16.3327C55.3521 16.633 55.6418 17.1801 55.5409 17.5693C55.4743 17.8266 55.0769 18.1176 54.8689 18.2778C54.4236 18.6203 53.9194 18.9002 53.3853 19.0744C52.3545 19.4106 51.0321 19.3824 50.3873 18.3756C49.9379 17.6735 49.8551 16.5963 50.6144 16.0799C51.1377 15.724 50.6445 14.8625 50.1168 15.2217C48.5909 16.2593 48.8294 18.5706 50.2184 19.6427C51.968 20.9928 55.0441 20.0149 56.2358 18.31C56.9178 17.3347 56.5715 16.4409 55.8369 15.6302C55.0297 14.7394 53.997 13.8357 52.82 13.5042C51.6986 13.1891 50.8503 13.5865 49.9729 14.2608C48.9225 15.0686 46.8743 14.9033 46.7363 13.2448C46.6844 12.6172 45.7503 12.5957 45.75 13.2448C45.7489 15.1635 47.8298 16.7497 49.6457 15.8942C51.2592 15.1338 51.8035 12.768 50.6287 11.4027C50.0421 10.7214 49.1271 10.3807 48.2434 10.4056C47.514 10.4259 46.3981 10.7384 46.1221 11.4984C46.0665 11.6519 46.1427 11.8824 46.0683 12.0251C45.9112 12.3258 45.3352 12.4433 45.0614 12.447C44.6793 12.4518 44.2889 12.3751 43.9157 12.301C43.1557 12.1501 42.4111 11.9132 41.7034 11.5981C40.3913 11.0135 38.1441 9.71939 39.3321 8.02492C40.2077 6.77529 42.6128 4.94551 43.9628 6.38939C45.1817 7.69314 45.7448 9.78204 45.9292 11.5143C45.9962 12.1434 46.9836 12.1504 46.9159 11.5143Z" fill="#2B2A29"/>
<path d="M43.025 19.9637C40.4597 20.1828 37.9652 20.6703 35.4029 21.7783C27.108 25.3644 33.5126 35.8126 38.808 39.3628C40.3144 40.3723 42.1351 40.8049 43.937 40.9658C47.8474 41.315 51.9087 40.416 55.1453 38.1777C58.3818 35.9398 60.7182 32.3218 61.1359 28.3901C61.2621 27.2013 61.2139 25.9731 60.8065 24.8503C60.0104 22.6576 57.9266 21.1429 55.7128 20.4501C53.4987 19.758 51.1377 19.7639 48.8198 19.7761C46.8143 19.7869 44.9005 19.8036 43.025 19.9637Z" fill="#2B2A29"/>
<path d="M16.5838 20.9713C18.9249 21.1711 21.2013 21.6163 23.5394 22.6272C31.1097 25.9001 25.2648 35.4349 20.4321 38.6745C19.0578 39.5957 17.3961 39.9905 15.7517 40.1373C12.1832 40.4561 8.47665 39.6353 5.52312 37.5931C2.5696 35.5506 0.437542 32.2491 0.0562519 28.6611C-0.0589447 27.5761 -0.0151479 26.4554 0.356941 25.4305C1.08345 23.4294 2.98512 22.0474 5.00529 21.4154C7.02583 20.7834 9.18034 20.7889 11.2958 20.8004C13.1261 20.81 14.8724 20.8252 16.5838 20.9713Z" fill="#2B2A29"/>
<path d="M30.7398 37.5869C30.958 36.0763 29.2584 35.2608 28.1506 36.2687C27.1617 37.1684 27.1628 38.7924 28.3574 39.5049C29.7203 40.3179 31.5005 39.5416 32.061 38.1263C32.6745 36.5771 31.9156 34.8385 30.4037 34.198C28.9647 33.5878 27.3652 34.126 26.55 35.4598C25.8007 36.6854 25.8864 38.3669 27.0752 39.2773C28.1399 40.0925 29.8421 40.1255 30.8365 39.1679C31.8774 38.1667 31.817 36.2576 30.65 35.3742C29.4303 34.4515 27.3534 35.2211 27.2294 36.8251C27.1123 38.3387 28.9923 39.403 30.2124 38.5329C30.4383 38.3717 30.5208 38.1096 30.3894 37.8534C29.756 36.6205 27.9618 36.4051 27.0936 37.5061C26.879 37.7786 26.9206 38.0773 27.1937 38.2864C27.975 38.8844 29.1737 39.2035 29.8465 38.2531C30.29 37.6262 30.1093 36.7335 29.3405 36.49C28.7049 36.2887 27.9331 36.6957 28.0078 37.4282C28.0796 38.1359 28.9559 38.4758 29.5565 38.2123C30.3209 37.8764 30.3404 36.9078 29.8557 36.3176C29.2124 35.5343 28.1366 35.6926 27.3792 36.2049C26.73 36.6438 26.2199 37.4171 26.7657 38.1489C27.4922 39.1223 28.6787 38.6 29.4498 38.0091C29.6213 37.8775 29.7464 37.6755 29.6761 37.4483C29.2234 35.9821 27.5805 35.3038 26.2324 36.0159C26.0012 36.1382 25.9195 36.4755 26.0553 36.6957C27.0726 38.3409 29.6772 38.0128 30.2996 36.1975C30.5072 35.5918 29.5543 35.3312 29.3482 35.9332C29.0037 36.9374 27.4561 37.0813 26.9073 36.1942C26.8485 36.4207 26.7896 36.6472 26.7303 36.874C27.5076 36.4633 28.4649 36.8707 28.7247 37.7126C28.8005 37.5254 28.876 37.3382 28.9518 37.1513C28.7987 37.2685 28.6471 37.3952 28.4815 37.4935C28.349 37.5572 28.2165 37.6206 28.0843 37.6844C27.6574 37.3878 27.6077 37.1717 27.936 37.0357C28.063 36.9226 28.2117 36.8551 28.3821 36.8336C28.763 36.6379 28.8009 36.7903 28.4958 37.2911C28.5359 37.8112 28.4159 37.9539 28.1359 37.7196C27.9721 37.6477 27.8238 37.5506 27.6916 37.4282C27.7248 37.6885 27.7579 37.9483 27.7914 38.2086C28.2735 37.5965 29.1737 37.647 29.5374 38.355C29.5963 38.1281 29.6551 37.9016 29.714 37.6751C28.7671 38.3509 27.6339 36.9208 28.6474 36.2038C29.7126 35.4509 30.7961 36.5775 30.5495 37.7066C30.0857 39.8337 26.621 38.8777 27.0892 36.7261C27.5558 34.5801 30.7688 34.2595 31.2535 36.5827C31.5034 37.7786 30.5885 39.0219 29.325 38.8013C28.7718 38.7049 28.3103 38.3049 28.4226 37.6844C28.4568 37.4946 28.5702 37.2692 28.696 37.1243C28.8337 36.9663 29.9496 36.206 29.7884 37.323C29.6982 37.9483 30.6485 38.2182 30.7398 37.5869Z" fill="#2B2A29"/>
<path d="M28.1723 39.0469C28.3711 40.7255 28.6475 43.0108 26.9534 44.0447C25.2026 45.1131 24.111 42.9816 23.6521 41.6218C23.4485 41.0202 22.4953 41.2782 22.7007 41.8865C23.3065 43.6807 24.6222 45.9175 26.8595 45.1798C29.4321 44.3313 29.4196 41.2482 29.159 39.0469C29.0847 38.4197 28.0973 38.4123 28.1723 39.0469Z" fill="#2B2A29"/>
<path d="M28.8024 39.902C28.8443 41.9282 29.527 44.4553 31.6525 45.1978C33.2619 45.7598 35.3163 45.0428 35.7517 43.2772C35.9044 42.6563 34.9534 42.3916 34.8003 43.0129C34.4673 44.363 32.7386 44.7137 31.6311 44.1068C30.1906 43.3176 29.8196 41.3981 29.7891 39.902C29.7758 39.2636 28.7891 39.2614 28.8024 39.902Z" fill="#2B2A29"/>
<path d="M25.4039 28.642C27.5937 26.8223 30.8008 26.8111 33.065 28.4904C33.5766 28.87 34.0694 28.0078 33.563 27.6322C30.9204 25.6723 27.2161 25.8536 24.7061 27.9395C24.2162 28.3469 24.9177 29.0465 25.4039 28.642Z" fill="#2B2A29"/>
<path d="M25.9027 29.3218C27.9019 27.9317 30.3523 27.6407 32.6201 28.5159C33.2138 28.745 33.4703 27.7845 32.8826 27.5577C30.3935 26.5976 27.5975 26.9393 25.4047 28.464C24.8854 28.8251 25.3786 29.6866 25.9027 29.3218Z" fill="#2B2A29"/>
<path d="M35.6711 26.0463C36.9246 25.134 38.3284 24.5412 39.8668 24.341C40.4877 24.2602 40.4957 23.2656 39.8668 23.3476C38.1517 23.5707 36.5787 24.1657 35.1731 25.1881C34.6634 25.5592 35.1551 26.4218 35.6711 26.0463Z" fill="#FEFEFE"/>
<path d="M3.64027 26.9466C3.81619 26.3649 4.32998 25.8804 4.94166 25.8019C5.20812 25.7681 5.43189 25.598 5.43483 25.3051C5.43741 25.0627 5.20591 24.7746 4.94166 24.8084C3.87802 24.9444 3.0054 25.6365 2.68925 26.6823C2.50376 27.2954 3.45551 27.5575 3.64027 26.9466Z" fill="#FEFEFE"/>
<path d="M43.1781 7.62893C42.8149 6.29886 41.0067 6.459 40.4072 7.51216C39.7068 8.74289 40.4399 10.3447 41.8061 10.6216C43.2734 10.9193 44.7394 9.65593 44.4637 8.11826C44.2304 6.8171 42.5168 6.09572 41.5514 7.14258C40.4583 8.32808 41.759 9.99697 42.9095 10.4993C43.9083 10.9356 45.8637 10.7862 45.683 9.25409C45.5259 7.92179 43.6779 7.70567 42.9378 8.64799C42.1395 9.66408 42.6838 11.3074 44.0703 11.3029C45.6473 11.2981 46.0407 9.0224 44.4758 8.60277C42.9625 8.19722 42.4748 10.5048 43.8476 11.016C44.4438 11.2381 44.7011 10.278 44.11 10.0578C43.6845 9.89948 44.3978 9.0313 44.5023 9.88465C44.5494 10.2702 44.1067 10.3777 43.8509 10.2735C43.0475 9.94656 43.8969 8.57088 44.5388 9.14732C45.2303 9.76788 43.7677 9.74156 43.5259 9.6715C42.9937 9.51803 42.3843 9.0628 42.2153 8.51231C41.9492 7.64376 43.018 7.332 43.4078 8.01854C43.8354 8.77292 43.1045 9.60699 42.3688 9.66853C41.6942 9.72488 41.0987 9.23518 41.1267 8.52714C41.1362 8.28026 41.2249 7.96516 41.4255 7.80094C41.6298 7.63338 42.1303 7.5396 42.2267 7.89324C42.3949 8.50898 43.3471 8.24763 43.1781 7.62893Z" fill="#F9E805"/>
<path d="M48.0388 12.5858C47.4371 11.8822 46.2115 12.2744 45.983 13.1341C45.7077 14.1695 46.8394 15.0035 47.7746 14.8052C48.4669 14.6588 49.935 13.2898 48.9078 12.6737C48.1879 12.2426 47.1198 13.2231 47.6726 13.9467C48.0547 14.4464 48.9118 13.9522 48.5246 13.4451C48.4617 13.5978 48.4566 13.6405 48.5092 13.573C48.6111 13.5289 48.5534 13.4951 48.3351 13.4714C48.3185 13.3439 48.302 13.2164 48.2854 13.0885C48.1297 13.5285 47.6222 14.0983 47.1279 13.738C46.7477 13.461 47.1213 13.0314 47.341 13.2887C47.7558 13.7739 48.451 13.0685 48.0388 12.5858Z" fill="#F9E805"/>
<path d="M51.5679 14.0051C50.71 14.1285 50.0696 15.0575 50.314 15.9183C50.5422 16.7234 51.4833 17.1205 52.2459 16.855C53.1067 16.5551 53.2944 15.6232 52.5793 15.0286C51.6783 14.2798 50.9699 15.1072 50.8764 16.0465C50.791 16.9081 51.4005 17.8726 52.3544 17.7551C53.0773 17.6661 53.5649 16.812 53.1972 16.1396C52.7703 15.3585 51.7299 15.6314 51.4075 16.3457C50.9746 17.3043 51.8815 18.0658 52.7379 18.2155C52.6397 17.9723 52.5414 17.7292 52.4431 17.486C52.2506 17.9145 52.0913 18.4528 52.4858 18.8272C52.8229 19.1471 53.2521 19.0844 53.5796 18.8101C54.0684 18.4009 53.3669 17.7014 52.8822 18.1076C53.0195 18.0672 53.1571 18.0276 53.2948 17.9872C53.4129 17.7247 53.3433 17.3177 53 17.2576C52.8421 17.2413 52.6908 17.1991 52.5465 17.1301C52.5149 16.706 52.389 16.5859 52.1686 16.7698C51.7162 16.3524 51.8348 15.9883 52.1056 15.5024C51.9636 15.5843 51.8219 15.6666 51.6798 15.7485C52.1159 15.8289 52.1432 15.8934 51.7619 15.9424C51.5444 15.955 51.3787 15.859 51.2654 15.6543C51.1174 15.277 51.5366 15.0056 51.8303 14.9637C52.4564 14.8736 52.1899 13.9161 51.5679 14.0051Z" fill="#F9E805"/>
<path d="M55.6797 26.4692C56.005 25.8687 56.4375 25.3389 56.984 24.9282C56.7591 24.7017 56.5343 24.4752 56.309 24.2487C56.1117 24.5238 55.9145 24.7992 55.7172 25.0743C55.3451 25.5936 56.2004 26.09 56.5689 25.5758C56.7661 25.3004 56.9638 25.0253 57.161 24.7499C57.4429 24.3566 56.8769 23.7764 56.486 24.0704C55.8015 24.5846 55.2384 25.2103 54.8277 25.9677C54.5229 26.5293 55.3746 27.0312 55.6797 26.4692Z" fill="#F9E805"/>
<path d="M55.5155 28.4517C56.3038 27.8545 57.0922 27.2573 57.8805 26.6601C58.3818 26.2802 57.8908 25.4172 57.3826 25.802C56.5942 26.3992 55.8059 26.9964 55.0175 27.5939C54.5163 27.9735 55.0076 28.8369 55.5155 28.4517Z" fill="#F9E805"/>
</svg>
