<svg width="58" height="62" viewBox="0 0 58 62" fill="none" xmlns="http://www.w3.org/2000/svg">
<path d="M29.6217 13.6584C26.8115 13.3628 24.1326 12.8639 22.6706 12.5553C19.0472 11.79 17.2658 6.92184 15.1844 4.34985C10.2706 16.6495 -2.03985 28.3661 0.290415 42.5567C3.81578 64.0238 35.8815 65.7676 49.7643 53.7636C54.6985 49.4603 57.2682 43.3912 57.028 36.8718C56.779 30.1156 53.842 24.3058 50.3185 18.7006C49.9021 18.038 49.4854 17.3748 49.1128 16.687C48.5082 15.5716 47.9634 14.3715 47.458 13.1587C46.9664 11.98 46.5115 10.7892 46.0749 9.65236C45.8091 8.96125 44.6541 5.56161 45.2925 4.96225C43.0262 7.08933 41.2902 11.1426 38.945 12.8612C37.2743 14.0851 33.3333 14.0488 29.6217 13.6584Z" fill="#2B2A29"/>
<path d="M21.9032 12.2709C21.2334 12.107 20.9968 11.4916 20.872 10.8727C20.805 10.5396 20.7713 10.1908 20.771 9.85067C20.771 9.72038 20.7726 9.59442 20.7868 9.4644C20.8159 9.19784 20.9946 8.77845 21.3631 8.83599C21.6989 8.88838 22.157 9.57949 22.431 9.78498C22.8316 10.0855 23.2925 10.2595 23.8001 10.1618C24.9928 9.93265 25.4588 8.71845 25.5522 7.65003C25.6993 5.96432 25.7875 4.36059 26.308 2.73081C26.4319 2.34209 26.5504 1.92731 26.7549 1.57253C27.0899 0.990539 27.5344 1.09016 27.9761 1.46286C28.4016 1.82172 28.645 2.18166 29.2012 2.39231C30.3356 2.82174 31.2942 2.42244 32.2012 1.73431C34.1782 0.234279 35.33 2.54568 35.3997 4.29327C35.4553 5.68934 35.1856 7.33514 35.9836 8.58219C36.2805 9.04609 36.7675 9.46549 37.3313 9.53389C37.5935 9.56565 37.7937 9.49019 38.0394 9.42124C38.3708 9.3284 38.2831 9.28904 38.4517 9.47472C38.5846 9.62103 38.5626 10.076 38.565 10.2535C38.5857 11.9132 37.5143 13.4992 35.9747 14.116C35.4289 14.3345 35.6672 15.2273 36.2209 15.0055C37.5679 14.4659 38.6113 13.4471 39.1421 12.091C39.5008 11.1748 39.9404 8.89137 38.686 8.38864C38.385 8.26812 38.2417 8.36123 37.9577 8.42637C37.1831 8.60363 36.8072 8.36937 36.5433 7.59004C36.1729 6.49582 36.3769 5.27348 36.3181 4.14153C36.2397 2.64421 35.7252 0.998139 34.1728 0.437323C33.5545 0.214191 32.8987 0.235636 32.3123 0.542646C31.4658 0.986196 30.926 1.81629 29.8532 1.61406C28.867 1.42839 28.7687 0.545089 28.0015 0.135199C27.4418 -0.163939 26.8342 0.0689654 26.4128 0.485641C25.242 1.64338 24.9584 3.92274 24.7713 5.46947C24.6594 6.3943 24.8081 7.50236 24.4865 8.38376C24.2422 9.05315 23.592 9.4948 22.9482 9.01678C22.6306 8.78089 22.394 8.45216 22.0772 8.2141C20.8641 7.30203 19.8962 8.36883 19.8466 9.62917C19.7935 10.9769 20.1421 12.7897 21.657 13.1607C22.2354 13.3024 22.4822 12.4129 21.9032 12.2709Z" fill="#2B2A29"/>
<path d="M24.4358 9.90585C26.662 10.2425 28.9043 10.4371 31.1567 10.4496C32.9711 10.4599 35.3213 10.67 36.859 9.51985C37.3299 9.16751 36.8688 8.36619 36.3916 8.72315C34.931 9.81573 32.5305 9.54727 30.7986 9.52365C28.7496 9.49542 26.7075 9.32251 24.682 9.01604C24.0992 8.92782 23.8478 9.81682 24.4358 9.90585Z" fill="#2B2A29"/>
<path d="M25.0126 6.89821C28.5432 8.1173 32.3025 8.3312 35.9542 7.55051C36.5362 7.42619 36.29 6.53664 35.708 6.66097C32.2131 7.408 28.6341 7.17401 25.2586 6.0084C24.6945 5.8135 24.4521 6.70467 25.0126 6.89821Z" fill="#2B2A29"/>
<path d="M25.8455 6.57953C25.5816 7.26359 25.3724 7.95253 25.2109 8.66753C25.1113 9.10999 25.6445 9.44768 25.9847 9.11624C26.3962 8.71558 26.8075 8.31464 27.219 7.91426C27.0009 7.69655 26.7827 7.47912 26.5645 7.26169C26.0847 7.80242 25.8488 8.37572 25.8158 9.09615C25.7979 9.48107 26.3448 9.72483 26.6057 9.42243C27.0273 8.93409 27.4486 8.44548 27.8699 7.95714C27.612 7.88928 27.3544 7.82142 27.0965 7.75356C27.2119 8.14879 27.2087 8.52556 27.0891 8.91916C26.9527 9.36706 27.5401 9.6852 27.8626 9.36814C28.3259 8.91238 28.7017 8.42621 29.025 7.86295C28.7374 7.78532 28.4498 7.70795 28.1622 7.63005C28.1137 8.08445 28.065 8.53886 28.0162 8.993C27.9696 9.42732 28.535 9.55137 28.8063 9.31928C29.1655 9.012 29.5245 8.70472 29.8835 8.39717C29.6201 8.28858 29.3567 8.17973 29.0931 8.07088C29.0552 8.52583 29.0171 8.98078 28.9792 9.43573C28.9422 9.87548 29.4907 9.98813 29.7693 9.76174C30.2296 9.38769 30.6284 8.98078 30.9928 8.51253C30.7504 8.32632 30.508 8.1401 30.2659 7.95362C30.0564 8.4368 29.9322 8.89283 29.8677 9.41592C29.8238 9.7707 30.2906 9.98081 30.5641 9.81413C31.0739 9.50332 31.5171 9.14528 31.9223 8.70608C31.6587 8.5975 31.3956 8.48864 31.1319 8.38006C31.0903 8.79837 31.0012 9.12628 30.8577 9.51228C30.694 9.95257 31.3261 10.281 31.6314 9.96126C32.0909 9.47944 32.5504 8.99761 33.0101 8.51606C32.7522 8.36649 32.4943 8.21665 32.2363 8.06735C32.1647 8.4938 32.0931 8.92052 32.0215 9.34724C31.9634 9.6928 32.3409 10.1347 32.7015 9.86842C33.0428 9.61598 33.3843 9.3638 33.7253 9.11162C33.4933 8.97861 33.2609 8.84587 33.0289 8.71313C32.9921 9.07416 33.061 9.33231 33.2138 9.65561C33.3377 9.9181 33.7536 9.95692 33.9407 9.74899C34.4106 9.2278 34.8112 8.68083 35.1595 8.07088C34.8722 7.99298 34.5846 7.91534 34.2973 7.83798C34.2894 8.08608 34.2815 8.33392 34.2741 8.58202C34.258 9.09289 35.08 9.22129 35.1829 8.70472C35.2745 8.53099 35.366 8.35726 35.4575 8.18353C35.1996 8.11594 34.9416 8.04781 34.684 7.97995C34.7799 8.56166 34.8755 9.14338 34.9713 9.72483C35.0332 10.0981 35.5084 10.1282 35.7451 9.92842C36.1305 9.60349 36.2762 9.2525 36.2683 8.75195C36.2631 8.42512 35.978 8.26171 35.6824 8.30704C35.1061 8.39554 34.5301 8.48376 33.9541 8.57225C34.1439 8.76118 34.3335 8.95038 34.5233 9.13958C34.6156 8.68409 34.657 8.24814 34.6377 7.78287C34.6265 7.51142 34.3468 7.22396 34.0519 7.33797C33.5131 7.54644 33.1923 7.86539 33.009 8.41318C32.8854 8.78181 33.2577 9.02856 33.5785 8.98051C33.9462 8.92568 34.3141 8.8703 34.6821 8.81547C35.0103 8.76634 35.1465 8.24841 34.8864 8.04428C34.0165 7.36158 33.0643 7.50192 32.0503 7.78179C30.3928 8.23918 28.8088 8.37409 27.1161 8.00112C26.5354 7.87299 26.2876 8.76227 26.8699 8.89066C28.0658 9.15424 29.2712 9.23622 30.4884 9.0747C31.4925 8.94142 33.3405 7.99732 34.2319 8.69657C34.3 8.43978 34.3681 8.18272 34.4359 7.92566C34.0682 7.98076 33.7002 8.03586 33.3323 8.0907C33.5221 8.28017 33.712 8.4691 33.9018 8.6583C34.0336 8.5147 34.166 8.37111 34.2978 8.22778C34.1028 8.07957 33.9075 7.93136 33.712 7.78287C33.7283 8.17838 33.7109 8.49869 33.6308 8.89446C33.5559 9.26363 33.8438 9.51635 34.2 9.46179C34.7761 9.3733 35.3524 9.28535 35.9284 9.19686C35.7331 9.04837 35.5378 8.90016 35.3425 8.75195C35.2587 8.92676 35.1745 9.10131 35.0906 9.27585C35.3483 9.34398 35.6062 9.41185 35.8641 9.47971C35.7682 8.89799 35.6724 8.31654 35.5765 7.73483C35.5177 7.37896 35.0307 7.30892 34.803 7.53124C34.513 7.81409 34.3692 8.0641 34.2904 8.45933C34.5936 8.50032 34.8967 8.5413 35.1998 8.58202C35.2072 8.33392 35.2151 8.08608 35.223 7.83798C35.2371 7.37787 34.584 7.21337 34.3602 7.60507C34.0513 8.1458 33.7038 8.63333 33.2863 9.09669C33.5287 9.12791 33.7711 9.15913 34.0132 9.19007C33.9936 9.031 33.9742 8.8722 33.9546 8.71313C33.9884 8.38142 33.5292 8.11459 33.2582 8.31464C32.917 8.56709 32.5757 8.81927 32.2342 9.07145C32.4608 9.24518 32.6876 9.4189 32.9142 9.59263C32.9859 9.16591 33.0575 8.73919 33.1291 8.31247C33.1997 7.89037 32.7013 7.50084 32.3554 7.86349C31.8959 8.34532 31.4362 8.82687 30.9767 9.30869C31.2346 9.45826 31.4925 9.60783 31.7502 9.75767C31.9201 9.30109 32.0097 8.86107 32.0577 8.38006C32.0977 7.97967 31.5258 7.77419 31.2678 8.05378C30.9149 8.43625 30.5423 8.74598 30.097 9.01743C30.329 9.15017 30.5614 9.28291 30.7934 9.41592C30.8266 9.06792 30.9171 8.73593 31.0652 8.41915C31.2512 7.98972 30.6915 7.40637 30.338 7.86024C29.9742 8.32795 29.5754 8.73512 29.1146 9.10945C29.3782 9.2183 29.6413 9.32688 29.905 9.43573C29.9428 8.98078 29.981 8.52583 30.0188 8.07088C30.0553 7.63873 29.5052 7.50844 29.229 7.74487C28.87 8.05215 28.5108 8.3597 28.1518 8.66671C28.4152 8.77557 28.6786 8.88442 28.9419 8.993C28.9907 8.53886 29.0394 8.08445 29.0879 7.63005C29.1386 7.15962 28.4397 7.02417 28.2256 7.39714C27.9427 7.8901 27.6128 8.31763 27.2081 8.71585C27.466 8.86514 27.724 9.01471 27.9816 9.16455C28.1576 8.58609 28.1586 8.08825 27.989 7.50817C27.8975 7.19545 27.45 7.03258 27.2155 7.30458C26.7941 7.79319 26.3728 8.28153 25.9512 8.76987C26.2146 8.87872 26.4779 8.98757 26.7416 9.09615C26.7634 8.62057 26.902 8.27148 27.219 7.91426C27.6112 7.47206 26.9946 6.84284 26.5645 7.26169C26.153 7.66235 25.7418 8.06301 25.3302 8.46394C25.5882 8.61324 25.8458 8.76308 26.1037 8.91265C26.265 8.19765 26.4744 7.50898 26.738 6.82493C26.9521 6.27035 26.0574 6.03012 25.8455 6.57953Z" fill="#2B2A29"/>
<path d="M42.8715 25.3307C40.8217 24.7954 39.309 26.8736 39.1606 28.7048C39.0043 30.6357 40.4834 32.6395 42.5675 32.4332C44.5756 32.2345 45.6745 30.1579 45.3578 28.3093C45.0481 26.5042 43.253 24.7153 41.389 25.8763C40.8849 26.1904 41.349 26.989 41.8561 26.673C44.3939 25.0924 45.9088 31.4763 42.3129 31.5282C38.958 31.5765 39.7424 25.4678 42.6255 26.2205C43.2021 26.3712 43.4483 25.4814 42.8715 25.3307Z" fill="#FEFEFE"/>
<path d="M42.1419 28.3057C41.3883 28.7441 41.7494 30.1315 42.6654 30.0151C42.8802 29.9879 43.0418 29.8891 43.1115 29.6766C43.3277 29.0194 43.1559 28.3315 42.7098 27.8147C42.5104 27.584 42.1272 27.6697 41.9828 27.9081C41.845 28.1353 41.7075 28.3622 41.5697 28.5891C41.2608 29.0986 42.0607 29.5631 42.369 29.0549C42.5066 28.8277 42.6441 28.6008 42.7819 28.3736C42.5395 28.4048 42.2974 28.436 42.055 28.467C42.2914 28.7406 42.3287 29.097 42.219 29.4312C42.3677 29.3183 42.5164 29.2053 42.6654 29.0924C42.5093 29.1125 42.6507 29.0929 42.6487 29.109C42.643 29.1611 42.6662 29.0319 42.6466 29.0807C42.6945 28.9621 42.6204 29.0957 42.609 29.1024C43.1235 28.803 42.658 28.0055 42.1419 28.3057Z" fill="#FEFEFE"/>
<path d="M16.73 25.3307C14.6803 24.7954 13.1673 26.8736 13.0192 28.7048C12.8626 30.6357 14.3417 32.6395 16.4261 32.4332C18.4339 32.2345 19.5331 30.1579 19.2161 28.3093C18.9067 26.5042 17.1113 24.7153 15.2473 25.8763C14.7435 26.1904 15.2075 26.989 15.7147 26.673C18.2522 25.0924 19.767 31.4763 16.1711 31.5282C12.8165 31.5765 13.6009 25.4678 16.4841 26.2205C17.0606 26.3712 17.3066 25.4814 16.73 25.3307Z" fill="#FEFEFE"/>
<path d="M16.0004 28.3057C15.2468 28.7441 15.6079 30.1315 16.5236 30.0151C16.7387 29.9879 16.9 29.8891 16.97 29.6766C17.1859 29.0194 17.0144 28.3315 16.568 27.8147C16.3686 27.584 15.9854 27.6697 15.8411 27.9081C15.7035 28.1353 15.5657 28.3622 15.4282 28.5891C15.119 29.0986 15.9192 29.5631 16.2273 29.0549C16.3651 28.8277 16.5026 28.6008 16.6404 28.3736C16.398 28.4048 16.1556 28.436 15.9132 28.467C16.1496 28.7406 16.1872 29.097 16.0775 29.4312C16.2262 29.3183 16.3749 29.2053 16.5236 29.0924C16.3678 29.1125 16.5089 29.0929 16.507 29.109C16.5012 29.1611 16.5247 29.0319 16.5048 29.0807C16.553 28.9621 16.4786 29.0957 16.4675 29.1024C16.9817 28.803 16.5162 28.0055 16.0004 28.3057Z" fill="#FEFEFE"/>
<path d="M24.8993 14.4953C24.651 15.7377 24.5496 16.9937 24.6654 18.2582C24.7324 18.9878 24.7471 20.0831 25.3828 20.5869C26.9175 21.8025 27.9309 18.5668 28.02 17.5966C28.1333 16.3623 27.6474 14.3224 26.0356 14.3664C25.1793 14.3897 25.0467 15.1313 25.0167 15.8257C24.9628 17.0768 25.1434 18.342 25.4405 19.5546C25.5451 19.9808 26.2464 20.0079 26.3333 19.5546C26.5994 18.1672 26.6825 16.7823 26.5629 15.374C26.5133 14.7904 25.6096 14.7741 25.6372 15.374C25.6933 16.5993 25.6682 17.8179 25.5614 19.0399C25.5097 19.6314 26.4357 19.6279 26.4872 19.0399C26.5939 17.8179 26.619 16.5993 26.5629 15.374C26.2543 15.374 25.9457 15.374 25.6372 15.374C25.7496 16.6995 25.6916 18.0014 25.4405 19.3092C25.7382 19.3092 26.0359 19.3092 26.3333 19.3092C26.1854 18.7052 26.0639 18.0977 26.0018 17.4783C25.9555 17.0182 25.7586 16.0879 25.9493 15.6601C26.2791 14.9199 26.8497 15.8219 26.982 16.2345C27.1218 16.671 27.1411 17.143 27.0943 17.5966C27.0371 18.152 26.8881 18.7389 26.6046 19.2232C26.4368 19.5093 26.3074 19.8279 25.983 19.6651C25.7096 19.528 25.7311 19.2742 25.6843 18.9998C25.4432 17.5901 25.5127 16.1379 25.7921 14.7407C25.9081 14.1606 25.0162 13.9125 24.8993 14.4953Z" fill="#FEFEFE"/>
<path d="M27.2482 15.7771C27.283 15.6883 27.3179 15.5998 27.3527 15.5113C27.1659 15.5352 26.9788 15.5594 26.792 15.5835C26.9908 15.7138 27.1433 15.8854 27.249 16.0979C27.5608 16.6156 28.2956 16.1631 28.0483 15.6324C27.8748 15.2602 27.6379 15.0184 27.2817 14.8153C27.2449 15.0966 27.2081 15.3775 27.1711 15.6585C27.1874 15.6552 26.64 17.3925 26.564 17.5915C26.3028 18.2758 26.0419 18.9598 25.7807 19.6442C25.5685 20.1995 26.4632 20.4398 26.6732 19.8895C26.9344 19.2052 27.1956 18.5209 27.4568 17.8368C27.6853 17.2378 28.0832 16.5285 28.1328 15.8843C28.1897 15.1489 27.6545 14.6177 26.9251 14.7689C26.5289 14.8509 26.4826 15.4228 26.8146 15.612C27.0368 15.7144 27.1817 15.8764 27.249 16.0979C27.5153 15.9427 27.782 15.7874 28.0483 15.6324C27.8373 15.282 27.5897 15.0276 27.2591 14.7868C27.0995 14.6704 26.8285 14.7214 26.6983 14.8588C26.3646 15.2111 26.2832 15.5518 26.3557 16.0222C26.4455 16.6074 27.3378 16.3588 27.2482 15.7771Z" fill="#FEFEFE"/>
<path d="M30.7825 15.7228C30.7215 16.7434 30.7247 17.7622 30.8195 18.7812C30.8841 19.4734 30.9031 20.3257 31.1853 20.9702C31.6464 22.0237 32.9297 21.7487 33.3845 20.851C33.7282 20.1732 33.7792 19.3024 33.9238 18.5651C34.0703 17.8181 34.289 17.0073 34.0973 16.248C33.8415 15.2344 32.6909 14.536 31.7431 15.1421C31.5696 15.2529 31.474 15.4603 31.5303 15.6631C31.9449 17.159 31.9846 18.6495 31.6385 20.1634C31.5067 20.7405 32.3855 20.987 32.5313 20.4088C32.8815 19.0155 33.1438 17.6099 33.3331 16.1861C33.0245 16.1861 32.7159 16.1861 32.4076 16.1861C32.4896 17.2323 32.4152 18.2421 32.1668 19.2628C32.0266 19.8396 32.9191 20.0858 33.0596 19.5081C33.3268 18.4101 33.4216 17.3135 33.3331 16.1861C33.2857 15.5808 32.4844 15.6063 32.4076 16.1861C32.2292 17.5274 31.9686 18.8512 31.6385 20.1634C31.9362 20.2451 32.2336 20.3268 32.5313 20.4088C32.9131 18.738 32.881 17.07 32.4229 15.4179C32.352 15.5914 32.281 15.7651 32.2101 15.9388C33.4415 15.1514 33.171 17.6023 33.0626 18.1588C32.9744 18.6134 32.9335 19.9506 32.6181 20.3013C31.9432 21.0519 31.9386 20.2245 31.8869 19.9091C31.7959 19.3578 31.7379 18.8002 31.7022 18.2424C31.6477 17.4022 31.6578 16.5629 31.7082 15.7228C31.7436 15.1297 30.8181 15.1316 30.7825 15.7228Z" fill="#FEFEFE"/>
<path d="M31.5093 16.4587C31.5458 17.1881 31.4268 17.8727 31.1539 18.5502C30.9322 19.1013 31.8272 19.3404 32.0467 18.7953C32.3471 18.0488 32.4751 17.2616 32.4351 16.4587C32.4051 15.8677 31.4794 15.8642 31.5093 16.4587Z" fill="#FEFEFE"/>
<path d="M55.4935 33.5227C53.8852 33.7171 52.3535 34.2478 51.0285 35.1913C50.1817 35.7945 48.735 36.8958 50.0355 37.8231C51.2897 38.7178 53.1632 38.8896 54.6168 38.4764C55.1285 38.3309 55.5589 38.1363 55.6817 37.5836C55.8761 36.7087 55.5983 35.5852 55.5368 34.6981C55.5147 34.3811 55.1487 34.0814 54.8404 34.2996C53.6864 35.1161 52.5327 35.9324 51.3787 36.7487C50.986 37.0269 51.2091 37.7945 51.7355 37.5918C52.743 37.2041 53.6412 36.6897 54.4871 36.0212C54.8949 35.699 54.3507 34.9867 53.9264 35.2967C53.4097 35.6734 52.9611 36.0801 52.5534 36.5744C52.4358 36.7174 52.3505 36.9636 52.481 37.1333C52.6212 37.316 52.7106 37.4213 52.9328 37.5055C53.0091 37.5345 53.6461 37.6214 53.6469 37.5451C53.7235 37.4123 53.7997 37.2793 53.8762 37.1466C53.8378 37.1702 53.7994 37.1941 53.761 37.2177C53.9876 37.3914 54.2142 37.5649 54.4408 37.7386C54.5092 37.4425 54.6704 37.206 54.9259 37.0291C54.7388 36.7875 54.552 36.5459 54.3648 36.3046C54.19 36.4663 52.2699 37.981 52.3715 37.0103C52.4336 36.4142 53.8215 35.8605 54.2703 35.6965C54.8219 35.4948 54.6102 34.6555 54.0244 34.8067C52.6185 35.1694 51.3839 35.8651 50.343 36.8735C49.981 37.2242 50.3689 37.7085 50.7935 37.6447C51.8565 37.4848 52.765 37.0315 53.5579 36.3122C53.9996 35.9115 53.3435 35.2606 52.9037 35.6596C52.2222 36.2774 51.4539 36.6186 50.5472 36.7552C50.6973 37.012 50.8474 37.269 50.9977 37.5261C51.9297 36.6232 53.0123 36.0209 54.2703 35.6965C54.1884 35.3998 54.1064 35.1031 54.0244 34.8067C53.0118 35.1767 50.8147 36.3135 51.4297 37.7403C52.0847 39.2593 54.3425 37.5839 55.0196 36.9569C55.3957 36.6083 54.884 35.912 54.4585 36.2324C54.0026 36.5755 53.7215 36.9455 53.5483 37.4935C53.4277 37.8754 53.8899 38.2232 54.2281 38.0144C54.604 37.7826 54.6772 37.3999 54.4264 37.0291C54.3278 36.8833 54.1696 36.759 54.0059 36.6954C53.9092 36.6577 53.2896 36.6797 53.2803 36.6678C53.2561 36.8542 53.2321 37.0405 53.2082 37.2267C53.5633 36.7959 53.9411 36.4235 54.3934 36.0931C54.2066 35.8518 54.0195 35.6102 53.8327 35.3686C53.1188 35.9329 52.3391 36.3751 51.4896 36.7022C51.6083 36.9832 51.7274 37.2641 51.8461 37.5454C53.0001 36.7291 54.1538 35.9126 55.3075 35.0966C55.0754 34.9636 54.8434 34.8309 54.6111 34.6981C54.6514 35.279 54.6917 35.8602 54.7317 36.4411C54.7728 37.0301 54.9019 37.4628 54.2221 37.6233C53.2313 37.8564 51.7388 37.8659 50.8654 37.2389C50.3119 36.8418 50.7635 36.5603 51.1914 36.2204C51.561 35.9267 51.9551 35.6661 52.3693 35.4384C53.3362 34.9066 54.3983 34.5779 55.4935 34.4454C56.0774 34.3745 56.0845 33.4513 55.4935 33.5227Z" fill="#FEFEFE"/>
<path d="M54.4823 40.91C54.3633 40.0544 52.2035 40.3237 51.6702 40.4751C50.8738 40.7012 49.8512 41.2379 49.6229 42.1011C49.3803 43.0183 50.1671 43.8283 50.8126 44.3658C51.6394 45.0539 52.6158 45.4807 53.6758 45.6522C53.8752 45.6845 54.0947 45.6324 54.1988 45.4399C54.9085 44.1261 55.24 42.7241 55.1727 41.2319C55.1564 40.869 54.6541 40.5761 54.3826 40.9056C53.8461 41.5563 53.3092 42.2072 52.773 42.8582C53.0306 43.0078 53.2885 43.1573 53.5465 43.3072C53.7194 42.8376 53.8926 42.3682 54.0656 41.8986C54.2129 41.5001 53.7153 41.2002 53.3858 41.3777C52.7866 41.7007 52.1874 42.0237 51.5882 42.3468C51.7751 42.5881 51.9622 42.8297 52.149 43.0713C52.4369 42.7588 52.6205 42.4431 52.7433 42.0357C52.871 41.6122 52.4086 41.3647 52.0635 41.5148C51.7726 41.6383 51.5 41.6301 51.2448 41.4898C51.0171 41.4008 50.7287 41.5892 50.6753 41.812C50.5271 42.4301 50.4035 43.1177 50.7774 43.6853C51.211 44.3427 51.7239 44.1248 52.3661 44.2724C52.8923 44.3935 53.2847 44.786 53.775 44.299C54.29 43.7876 54.1247 42.739 54.0473 42.1152C54.0171 41.8701 53.8599 41.65 53.5846 41.6538C53.0873 41.6608 52.7545 41.9817 52.6943 42.4809C52.6662 42.713 52.7122 42.9412 52.8187 43.1497C52.8688 43.2477 52.9533 43.3403 53.0219 43.4271C53.0974 43.5124 53.1747 43.596 53.254 43.678C53.4037 43.8805 53.6241 43.8802 53.9152 43.6769C53.9915 43.8096 54.068 43.9424 54.1443 44.0751C54.1467 44.045 54.1489 44.0148 54.1508 43.985C54.1941 43.3924 53.2681 43.3951 53.2251 43.985C53.1886 44.4904 53.8166 44.8007 54.2009 44.4505C54.412 44.2586 54.4324 43.9339 54.3559 43.6807C54.2943 43.476 53.6884 42.5751 53.5846 42.5764C53.4302 42.4225 53.276 42.2689 53.1216 42.1152C53.1638 42.4554 53.2008 42.7971 53.1861 43.1405C53.1567 43.8235 53.1736 43.5126 52.8067 43.3674C52.6322 43.2985 52.4393 43.3387 52.2716 43.2944C51.3023 43.0376 51.4036 42.7423 51.5678 42.0571C51.3782 42.1646 51.1884 42.2721 50.9986 42.3793C51.543 42.5924 52.0049 42.5398 52.5306 42.3115C52.304 42.1378 52.0771 41.964 51.8505 41.7903C51.7985 42.0373 51.6797 42.2469 51.4945 42.4187C51.1399 42.8036 51.5855 43.3967 52.0553 43.1435C52.6545 42.8205 53.254 42.4974 53.8531 42.1744C53.6263 42.0007 53.3997 41.8272 53.1731 41.6535C53.0001 42.1228 52.8269 42.5924 52.6537 43.0618C52.4976 43.4847 53.1371 43.8625 53.4274 43.5107C53.964 42.8598 54.5005 42.2089 55.0371 41.5579C54.7737 41.4491 54.5103 41.3405 54.247 41.2319C54.3069 42.5642 54.0343 43.799 53.3994 44.9744C53.5737 44.9038 53.7477 44.833 53.922 44.7624C52.9781 44.6096 52.0883 44.2551 51.3592 43.6245C50.8068 43.1462 50.2224 42.3145 51.0503 41.7615C51.4501 41.4947 51.9091 41.3362 52.3838 41.274C52.8637 41.211 53.3308 41.2555 53.794 41.4008C54.11 41.5001 54.4049 41.6893 54.7527 41.632C55.2639 41.5476 55.4382 41.1195 55.3748 40.6646C55.2933 40.0791 54.4014 40.3283 54.4823 40.91Z" fill="#FEFEFE"/>
<path d="M1.34603 35.4644C1.28393 36.7079 1.22783 38.0288 1.42828 39.2634C1.54431 39.9786 1.85016 40.3855 2.62637 40.3131C3.66895 40.2156 4.75782 39.8212 5.71406 39.4116C6.52432 39.0649 7.43153 38.5437 7.74311 37.6626C8.38777 35.8401 6.091 35.2437 4.77307 35.1596C4.03663 35.1126 2.95865 35.0686 2.41693 35.6805C1.79051 36.3876 2.14185 37.842 2.16745 38.6996C2.17699 39.0155 2.56673 39.3187 2.86414 39.0978C3.6665 38.5014 4.33676 37.8225 4.91878 37.01C5.22083 36.5879 4.51624 36.0377 4.1916 36.4509C3.80049 36.949 3.55129 37.4457 3.44916 38.0755C3.37589 38.5285 3.85742 38.8421 4.22292 38.5245C4.79296 38.0288 5.40821 37.6767 6.12504 37.4335C5.95101 37.2077 5.7767 36.9815 5.6024 36.7557C5.20803 37.3019 4.81338 37.848 4.41874 38.3939C4.14094 38.778 4.67584 39.2533 5.05197 39.0253C5.77371 38.5874 7.49036 37.9935 6.96117 36.8477C6.55237 35.9636 5.28102 35.763 4.42991 35.8868C3.48783 36.0236 2.4823 36.601 2.06151 37.4889C1.51653 38.6396 2.90281 38.8999 3.71225 39.2164C4.26731 39.4333 4.5078 38.5413 3.95846 38.3266C3.48919 38.1434 2.7473 38.0497 3.19205 37.4875C3.50063 37.0972 4.07884 36.873 4.5541 36.8021C4.93758 36.7451 5.78814 36.715 5.91751 37.1754C6.01392 37.5185 5.71678 37.5415 5.43544 37.7123C5.15192 37.8841 4.86813 38.0565 4.5846 38.2283C4.79595 38.439 5.00703 38.6493 5.21783 38.8597C5.61247 38.3136 6.00711 37.7674 6.40203 37.2215C6.63625 36.8971 6.24679 36.4191 5.87911 36.5437C5.0103 36.8385 4.25996 37.2706 3.56845 37.8719C3.8261 38.0215 4.08402 38.1713 4.34194 38.3209C4.41602 37.8629 4.5541 37.4753 4.84634 37.1034C4.60394 36.9169 4.36155 36.7305 4.11942 36.5442C3.63354 37.2229 3.06759 37.8024 2.39678 38.3013C2.62882 38.4341 2.86114 38.5668 3.09319 38.6996C3.07576 38.11 2.99487 37.4837 3.03926 36.8963C3.0812 36.3461 3.16482 36.1715 3.69237 36.0931C3.98597 36.0494 4.32342 36.0592 4.61892 36.0725C5.18188 36.0977 5.83145 36.1561 6.34075 36.4205C7.31088 36.9248 6.71279 37.8035 6.03108 38.2299C5.54111 38.5364 4.97353 38.7354 4.42746 38.9173C4.09273 39.0288 2.64816 39.6076 2.36845 39.3486C2.14757 39.1439 2.25107 37.8494 2.24235 37.5386C2.22274 36.8464 2.23745 36.1555 2.27177 35.4644C2.30145 34.8707 1.37572 34.8724 1.34603 35.4644Z" fill="#FEFEFE"/>
<path d="M2.46987 43.8275C3.45906 43.5576 4.29982 42.914 5.28221 42.6505C6.37136 42.3584 7.93386 42.9064 7.07757 44.2857C6.50999 45.2005 5.4252 45.8859 4.5316 46.4478C4.39243 46.5355 4.03264 46.8571 3.85698 46.8487C3.51708 46.8319 3.57754 46.6728 3.44763 46.4516C3.32915 46.2502 3.25643 46.0078 3.16519 45.7911C3.1001 45.6348 3.03474 45.4782 2.96964 45.3218C2.76184 44.9499 2.86043 44.6101 3.26488 44.3028C3.1573 44.1136 3.04944 43.9244 2.94159 43.7354C2.68993 44.4336 2.61286 45.0837 2.70028 45.8205C2.75258 46.2621 3.29729 46.4643 3.56283 46.0534C4.06887 45.2702 4.5749 44.4874 5.08094 43.7042C4.81458 43.5492 4.54794 43.3937 4.28158 43.2384C3.98144 43.9317 3.68158 44.625 3.38172 45.3183C3.18971 45.761 3.71889 46.2949 4.10836 45.8772C4.81349 45.1212 5.51861 44.3655 6.22374 43.6095C5.98134 43.4233 5.73895 43.2371 5.49682 43.0506C5.01612 43.983 4.46051 44.8587 3.8213 45.691C3.49447 46.1169 4.18326 46.6025 4.54848 46.2502C5.34458 45.4814 6.14094 44.7124 6.93731 43.9436C6.67912 43.7941 6.4212 43.6445 6.16355 43.4949C5.96691 44.0061 5.68856 44.3837 5.28466 44.7518C5.52706 44.9382 5.76918 45.1247 6.01158 45.3109C6.24335 44.9019 6.51189 44.5319 6.86949 44.2197C7.09909 44.0191 7.39078 43.9008 7.53104 43.6236C7.74021 43.2113 7.58524 42.7324 7.2113 42.4735C6.10445 41.7074 4.5414 43.1654 3.8006 43.8736C3.12488 44.5194 1.97936 46.0588 3.39207 46.656C4.97281 47.3248 5.44208 45.2417 6.55329 44.8131C7.1029 44.6008 6.86377 43.7086 6.30681 43.9233C5.76509 44.1323 5.42846 44.4488 5.07032 44.904C4.92379 45.09 4.40795 45.925 4.07731 45.7996C3.27495 45.4953 4.37227 44.6011 4.55774 44.4274C4.87231 44.1328 5.19451 43.84 5.56192 43.6106C5.76401 43.48 5.97753 43.3701 6.20222 43.2813C6.63935 43.1586 6.75047 43.167 6.53559 43.3068C6.49882 43.4683 5.87077 43.9024 5.73786 44.0631C5.5355 44.3077 5.36827 44.5696 5.21221 44.8451C4.94939 45.309 5.5532 45.7564 5.93913 45.4043C6.46014 44.9296 6.80413 44.3956 7.05606 43.7401C7.22928 43.2892 6.59196 42.9925 6.28257 43.2914C5.4862 44.0601 4.69011 44.8288 3.89374 45.5976C4.13614 45.7841 4.37854 45.9703 4.62093 46.1568C5.25988 45.3242 5.81548 44.4488 6.29591 43.5164C6.5266 43.069 5.94321 42.5563 5.569 42.9575C4.86414 43.7132 4.15902 44.4689 3.45389 45.2249C3.69629 45.4111 3.93841 45.5976 4.18081 45.7838C4.48094 45.0908 4.7808 44.3975 5.08094 43.7042C5.3119 43.1706 4.61276 42.7262 4.28158 43.2384C3.77554 44.0218 3.26951 44.8047 2.76374 45.5878C3.05108 45.6655 3.33841 45.7431 3.62602 45.8205C3.54894 45.1703 3.61295 44.594 3.83437 43.9806C3.91962 43.7441 3.73714 43.4776 3.51108 43.4132C2.88657 43.2344 2.28876 43.53 2.02266 44.1263C1.63783 44.9893 2.25117 46.0021 2.59189 46.7852C2.85879 47.3989 3.21721 48.0045 3.99179 47.798C4.92025 47.5509 5.89011 46.6709 6.6192 46.0734C7.7699 45.1304 9.2033 43.1461 7.41883 42.0166C5.63736 40.889 3.90246 42.4794 2.22366 42.9379C1.64981 43.0946 1.8933 43.9849 2.46987 43.8275Z" fill="#FEFEFE"/>
<path d="M31.1632 37.0406C30.7999 36.1891 29.7747 35.4999 28.8566 35.9866C27.9943 36.444 27.7841 37.5843 28.551 38.2282C29.2728 38.8341 30.3581 38.8094 31.1583 38.3805C31.8536 38.0075 32.7137 36.9774 32.2469 36.1465C32.0214 35.7453 31.5129 35.6217 31.1025 35.5189C30.476 35.3617 29.7957 35.2778 29.1815 35.5278C28.3716 35.8576 27.792 36.8023 28.1986 37.646C28.9598 39.2255 32.7132 38.2958 31.5843 36.6622C31.0913 35.9488 29.2829 35.7173 28.9146 36.6774C28.7466 37.1155 28.9816 37.6112 29.3591 37.8571C29.9202 38.2222 30.5673 37.9617 31.1071 37.6907C31.3182 37.5846 31.4094 37.2551 31.273 37.0593C30.9355 36.5762 30.2595 36.5439 29.9471 37.0813C29.6481 37.5963 30.448 38.0613 30.7468 37.5469C30.6555 37.5398 30.5648 37.5322 30.4736 37.5252C30.5289 37.3148 30.5844 37.1044 30.6397 36.894C30.4769 36.9866 30.3045 37.0574 30.1228 37.1069C29.7475 37.0317 29.7203 36.9969 30.0411 37.0032C30.1906 36.9923 30.7293 36.9899 30.7909 37.1381C30.9292 37.4711 29.9646 37.5577 29.7649 37.5553C29.2981 37.5501 28.8057 37.3311 29.0685 36.7792C29.3597 36.1679 30.2154 36.2645 30.7405 36.3788C30.8473 36.4022 31.3203 36.46 31.3898 36.571C31.5241 36.7865 31.2498 37.1267 31.1147 37.2684C30.8252 37.5713 30.4074 37.7578 29.9883 37.7738C29.5446 37.7906 28.5946 37.4375 29.1521 36.9016C29.6345 36.438 30.1849 37.0868 30.3636 37.5064C30.5959 38.051 31.3936 37.5813 31.1632 37.0406Z" fill="#FEFEFE"/>
<path d="M28.8986 38.5173C29.6034 39.6066 29.7246 40.9717 29.0024 42.0909C28.6919 42.5722 28.2605 42.9666 27.7517 43.2324C27.1991 43.5207 25.4707 43.866 25.6774 42.6395C25.7752 42.0589 24.8833 41.8092 24.7847 42.3944C24.6477 43.2074 25.0115 43.9525 25.7929 44.2886C26.7565 44.7031 27.9067 44.2997 28.7077 43.7202C30.5374 42.3963 30.9042 39.9158 29.698 38.0518C29.376 37.5545 28.5745 38.0167 28.8986 38.5173Z" fill="#FEFEFE"/>
<path d="M29.7374 39.0278C29.7929 40.4198 29.9801 42.2063 31.3301 42.981C32.8245 43.8379 34.4603 42.839 35.3659 41.6216C35.7208 41.1443 34.9176 40.6837 34.5665 41.156C33.8497 42.1194 32.364 42.9492 31.383 41.8338C30.7451 41.1088 30.6996 39.9386 30.6631 39.0278C30.6397 38.4364 29.7137 38.4331 29.7374 39.0278Z" fill="#FEFEFE"/>
<path d="M38.184 37.5041C39.8446 37.0332 41.4981 37.0446 43.1534 37.5362C43.7257 37.7061 43.9702 36.8157 43.3994 36.6464C41.5977 36.1113 39.7457 36.1016 37.9376 36.6146C37.3656 36.7767 37.6088 37.6673 38.184 37.5041Z" fill="#FEFEFE"/>
<path d="M39.33 39.5519C40.0133 39.8488 40.6967 40.1455 41.3803 40.4425C41.9212 40.6776 42.3929 39.8827 41.8474 39.6458C41.164 39.3488 40.4804 39.0518 39.7971 38.7551C39.2562 38.5201 38.7845 39.3149 39.33 39.5519Z" fill="#FEFEFE"/>
<path d="M24.3505 36.578C23.1619 36.23 21.9682 36.1635 20.7442 36.341C20.1568 36.4262 20.4065 37.3155 20.9904 37.2308C22.0442 37.078 23.0848 37.1692 24.1045 37.4675C24.6773 37.6353 24.9219 36.7454 24.3505 36.578Z" fill="#FEFEFE"/>
<path d="M23.4371 37.8985C22.3196 38.4384 21.2021 38.9783 20.0846 39.5182C19.5487 39.7772 20.0176 40.5731 20.5517 40.3149C21.6695 39.775 22.787 39.2351 23.9044 38.6952C24.4404 38.4362 23.9714 37.6403 23.4371 37.8985Z" fill="#FEFEFE"/>
</svg>
