<svg width="60" height="65" viewBox="0 0 60 65" fill="none" xmlns="http://www.w3.org/2000/svg">
<path d="M12.8428 54.4271C15.9936 59.0998 19.8494 63.7451 25.781 64.6472C28.8216 65.1078 31.8957 64.7164 34.9048 64.2124C37.8996 63.7105 40.6849 63.2019 42.9017 60.9825C45.0573 58.8233 46.6305 56.0752 48.0843 53.4268C49.6712 50.5366 51.23 47.6321 52.8279 44.7484C55.8341 39.33 58.8165 33.6603 59.7146 27.4637C60.58 21.5127 59.562 15.149 55.4876 10.5061C55.3044 10.299 54.8968 10.2926 54.7158 10.5061C53.1856 12.3194 51.6551 14.1327 50.1246 15.9462C48.8624 17.4424 47.4704 19.8132 45.4155 20.254C44.4166 20.4684 43.3158 20.3746 42.3013 20.3888C41.0722 20.4061 39.8431 20.4234 38.614 20.4407C36.3006 20.4734 33.9868 20.5061 31.6731 20.5386C26.9014 20.6059 22.1297 20.6729 17.3578 20.7402C15.2977 20.7691 12.963 21.0097 11.059 20.0646C9.62693 19.3537 8.67985 18.0042 7.77862 16.7428C7.00109 15.6545 6.23025 14.5196 5.16783 13.6817C4.56319 13.2049 3.28896 12.3206 2.47083 12.7244C1.98678 12.963 1.77951 13.6428 1.62166 14.1071C1.3 15.0549 1.11755 16.0563 0.94132 17.0388C0.0993142 21.7383 -0.488371 26.4182 0.56951 31.1333C2.50904 39.7781 7.97921 47.1918 12.8428 54.4271C13.2302 55.0034 14.1749 54.4624 13.7842 53.8811C9.50418 47.5141 4.84975 41.1217 2.43286 33.7729C1.47241 30.8518 0.815473 27.6911 1.05905 24.6054C1.21713 22.6044 1.46763 20.6047 1.77664 18.622C1.94069 17.5694 2.12075 16.5161 2.37077 15.4798C2.45961 15.1118 2.62509 13.8232 3.03678 13.6383C2.76216 13.7618 3.52011 13.9305 3.56978 13.9526C3.84751 14.0758 4.10756 14.2393 4.35185 14.4182C4.98085 14.8784 5.49833 15.4822 5.97091 16.0952C6.79166 17.1599 7.49708 18.3125 8.3995 19.3146C10.8852 22.076 14.3482 21.8642 17.7917 21.8158C22.4187 21.7506 27.0461 21.6852 31.6731 21.6201C34.2037 21.5845 36.7342 21.549 39.2648 21.5132C40.4939 21.4959 41.723 21.4786 42.9521 21.4613C43.971 21.4471 45.0526 21.5061 46.0421 21.2151C47.9962 20.6402 49.2418 18.6725 50.48 17.2056C52.1478 15.2272 53.8177 13.249 55.4876 11.2708C55.2304 11.2708 54.9732 11.2708 54.7158 11.2708C58.2541 15.3014 59.2917 20.7824 58.8033 25.9885C58.267 31.6933 55.7839 36.9996 53.0982 41.992C51.69 44.6084 50.2032 47.1818 48.7993 49.8003C47.4544 52.3067 46.1505 54.8444 44.543 57.1986C42.8021 59.7484 40.8872 61.85 37.7682 62.5835C34.8627 63.2669 31.7662 63.7581 28.7779 63.7754C25.4533 63.7948 22.353 62.9015 19.7382 60.829C17.3275 58.9188 15.4866 56.406 13.7842 53.8811C13.3959 53.3055 12.4512 53.8463 12.8428 54.4271Z" fill="#2B2A29"/>
<path d="M45.1784 28.5502C42.4355 27.4211 40.6016 31.1104 40.6061 33.2915C40.6113 35.7393 42.5934 38.0438 45.2094 37.6839C47.9079 37.3128 49.1699 33.8154 48.7339 31.4576C48.2883 29.0386 45.7228 27.1668 43.2866 28.159C42.6464 28.4197 42.9267 29.4666 43.5763 29.2019C45.3341 28.4863 47.1666 29.6626 47.6139 31.4173C48.0495 33.1258 47.2798 35.9772 45.3957 36.5426C43.4851 37.1161 41.8512 35.3914 41.7077 33.6277C41.579 32.0436 42.7338 28.7062 44.8887 29.5934C45.5359 29.8599 45.8184 28.8137 45.1784 28.5502Z" fill="#2B2A29"/>
<path d="M43.4615 32.0228C43.3647 32.9072 43.4309 33.7702 43.6413 34.6337C43.7454 35.061 44.2528 35.1174 44.5521 34.8723C45.8471 33.8136 45.9154 31.8444 44.8205 30.6273C44.5239 30.2977 44.0446 30.5134 43.9097 30.8662C43.5104 31.9096 42.5607 35.4475 44.884 34.9719C45.5562 34.8342 46.1105 34.3133 46.2277 33.6368C46.3963 32.6657 45.7377 31.8084 45.1428 31.1188C44.8663 30.7979 44.3412 30.9925 44.2318 31.3572C43.8901 32.4994 44.0391 33.6769 44.6473 34.7027C44.8687 35.0759 45.357 35.0259 45.5884 34.7027C46.2284 33.8096 46.8302 32.4069 45.731 31.5759C44.8228 30.8894 43.4966 31.7001 43.7719 32.8124C43.9391 33.488 44.9905 33.2017 44.8228 32.5247C44.8993 32.4878 44.9754 32.4508 45.0519 32.4138C45.1383 32.4785 45.1927 32.5612 45.215 32.6617C45.2794 32.8306 45.2627 32.9994 45.2176 33.1731C45.1237 33.5351 44.8613 33.8581 44.6473 34.1567C44.9611 34.1567 45.2749 34.1567 45.5884 34.1567C45.1216 33.369 45.0211 32.5197 45.2833 31.6449C44.9795 31.7242 44.6757 31.8041 44.372 31.8833C44.6667 32.225 45.0366 32.637 45.1299 33.0934C45.1853 33.366 45.0779 34.0302 44.6072 33.9214C44.0238 33.7866 44.8133 31.5392 44.9606 31.1536C44.6571 31.233 44.3536 31.3126 44.0499 31.3923C44.7787 32.2024 44.5993 33.4387 43.7814 34.1074C44.085 34.187 44.3887 34.2667 44.6922 34.3463C44.5043 33.5733 44.4651 32.8115 44.5516 32.0228C44.627 31.3318 43.5364 31.3368 43.4615 32.0228Z" fill="#2B2A29"/>
<path d="M14.4677 28.5502C11.7248 27.4211 9.89061 31.1104 9.89515 33.2915C9.9004 35.7393 11.8824 38.0438 14.4987 37.6839C17.1969 37.3128 18.4592 33.8154 18.0241 31.4576C17.5773 29.0386 15.0119 27.1668 12.5757 28.159C11.9357 28.4197 12.2158 29.4666 12.8656 29.2019C14.6231 28.4863 16.4557 29.6626 16.9032 31.4173C17.339 33.1258 16.5689 35.9772 14.6847 36.5426C12.7741 37.1161 11.1405 35.3914 10.997 33.6277C10.8683 32.0436 12.0229 28.7062 14.1778 29.5934C14.8252 29.8599 15.1074 28.8137 14.4677 28.5502Z" fill="#2B2A29"/>
<path d="M12.7504 32.0228C12.6537 32.9072 12.7203 33.7702 12.9305 34.6337C13.0344 35.061 13.5418 35.1174 13.8413 34.8723C15.1363 33.8136 15.2046 31.8444 14.1097 30.6273C13.8131 30.2977 13.3338 30.5134 13.1987 30.8662C12.7996 31.9096 11.8497 35.4475 14.173 34.9719C14.8457 34.8342 15.3994 34.3133 15.5167 33.6368C15.6853 32.6657 15.0267 31.8084 14.4321 31.1188C14.1553 30.7979 13.6302 30.9925 13.5213 31.3572C13.1791 32.4994 13.3283 33.6769 13.9365 34.7027C14.1577 35.0759 14.646 35.0259 14.8777 34.7027C15.5174 33.8096 16.1192 32.4069 15.02 31.5759C14.1121 30.8894 12.7855 31.7001 13.0611 32.8124C13.2285 33.488 14.2799 33.2017 14.1123 32.5247C14.1885 32.4878 14.2649 32.4508 14.3411 32.4138C14.4275 32.4785 14.482 32.5612 14.5042 32.6617C14.5686 32.8306 14.5517 32.9994 14.5066 33.1731C14.4129 33.5351 14.1503 33.8581 13.9365 34.1567C14.2503 34.1567 14.5639 34.1567 14.8777 34.1567C14.4106 33.369 14.3105 32.5197 14.5722 31.6449C14.2685 31.7242 13.9647 31.8041 13.6614 31.8833C13.9556 32.225 14.3258 32.637 14.4189 33.0934C14.4746 33.366 14.3671 34.0302 13.8964 33.9214C13.313 33.7866 14.1025 31.5392 14.2498 31.1536C13.9463 31.233 13.6426 31.3126 13.3391 31.3923C14.0676 32.2024 13.8885 33.4387 13.0707 34.1074C13.3742 34.187 13.6779 34.2667 13.9814 34.3463C13.7935 33.5733 13.7543 32.8115 13.8405 32.0228C13.9162 31.3318 12.8256 31.3368 12.7504 32.0228Z" fill="#2B2A29"/>
<path d="M29.7022 40.3329C29.0147 39.4156 28.007 39.153 26.9496 39.5992C26.7667 39.6767 26.6981 39.8912 26.6797 40.0663C26.408 42.6675 29.8219 44.1933 31.4435 41.9885C33.2374 39.5495 29.5023 37.199 27.4964 38.9485C25.6629 40.5476 27.2505 43.8644 29.6788 42.7798C31.9226 41.7774 30.123 38.1236 28.1204 39.4672C27.3364 39.9931 27.3324 41.1293 28.0077 41.7625C28.8414 42.5445 30.1731 42.0729 30.6524 41.1331C31.0825 40.2902 30.5378 39.1637 29.4825 39.4021C28.4619 39.6326 28.3511 40.9864 29.0642 41.613C30.874 43.2021 32.9685 40.3485 31.9159 38.649C30.5058 36.3715 26.7497 38.5163 26.8199 40.7611C26.915 43.7919 31.5219 43.1755 32.8381 41.4478C33.5467 40.5179 33.6059 38.9679 32.5532 38.2416C31.5751 37.567 30.1839 38.0753 29.8744 39.1945C29.6884 39.8667 30.7398 40.1535 30.9254 39.4819C30.9987 39.2175 31.348 39.0028 31.6145 39.0208C32.0988 39.054 32.2875 39.6696 32.261 40.0416C32.2208 40.6089 31.8197 41.0367 31.3545 41.3303C30.6163 41.7954 29.5523 42.0201 28.7122 41.6904C27.1647 41.0838 28.2482 39.4096 29.3173 38.9727C30.4358 38.5158 31.7497 39.3736 30.8833 40.548C30.5101 41.0542 29.3125 41.2492 28.8908 40.8281C28.5006 40.6658 28.492 40.54 28.8652 40.4511C29.0379 40.2568 29.1905 40.2596 29.323 40.4606C29.5845 40.6075 29.7378 41.0115 29.6602 41.3042C29.5004 41.9073 28.6613 42.0106 28.2002 41.7194C27.5086 41.2826 27.6918 40.2912 28.1968 39.8227C28.7048 39.3521 29.4271 39.3229 30.0428 39.6104C30.9951 40.0549 30.975 41.2276 30.1132 41.7523C28.8662 42.5111 27.6373 41.3331 27.7699 40.0663C27.6798 40.2222 27.5898 40.3776 27.4998 40.5333C27.9499 40.3433 28.471 40.4916 28.7611 40.8786C29.1747 41.431 30.1216 40.8923 29.7022 40.3329Z" fill="#2B2A29"/>
<path d="M23.3744 45.9099C22.9262 48.6137 25.9145 50.3587 28.2588 49.2182C31.2352 47.7703 31.3352 44.1857 30.8204 41.3755C30.6953 40.6919 29.6445 40.9815 29.7694 41.6632C30.1295 43.6288 30.2669 45.921 28.7868 47.4923C28.152 48.1663 27.216 48.6731 26.2584 48.5063C25.1857 48.3193 24.2412 47.3092 24.4256 46.1973C24.5385 45.5163 23.4885 45.2236 23.3744 45.9099Z" fill="#2B2A29"/>
<path d="M29.8909 42.9957C30.2013 45.185 31.2585 49.0298 33.8884 49.4959C36.1768 49.9013 37.3133 47.3646 37.819 45.5947C38.0106 44.9239 36.9594 44.6376 36.7681 45.3073C36.3714 46.6957 35.2808 49.4191 33.3857 48.1163C31.7982 47.0243 31.1943 44.4874 30.9421 42.7082C30.8447 42.0215 29.7944 42.3139 29.8909 42.9957Z" fill="#2B2A29"/>
<path d="M12.207 21.6879C11.5816 17.6282 14.5116 13.7085 16.6888 10.531C18.8002 7.44904 21.4182 4.92535 25.0541 3.75853C31.7453 1.61162 39.0399 4.17346 42.9156 9.97392C45.0612 13.185 46.0823 17.0165 45.8301 20.8575C45.7845 21.5526 46.8749 21.5497 46.9203 20.8575C47.3981 13.5753 43.3013 6.03815 36.3854 3.17868C33.0252 1.78958 29.2037 1.5493 25.6819 2.45119C21.9015 3.41944 18.9246 5.70331 16.6126 8.77629C15.1062 10.7782 13.694 12.9542 12.5523 15.1815C11.4562 17.3199 10.7852 19.5682 11.156 21.9753C11.2616 22.6613 12.312 22.3699 12.207 21.6879Z" fill="#2B2A29"/>
<path d="M11.167 21.4696C16.0595 26.6596 22.1465 32.5065 29.9254 31.8845C33.3696 31.6094 36.5083 30.0326 39.2753 28.0582C40.6794 27.0565 42.0151 25.9587 43.3067 24.8184C44.4993 23.7658 45.5932 22.622 46.0025 21.0499C46.178 20.3755 45.1271 20.0878 44.9513 20.7622C44.5451 22.3224 43.3218 23.3757 42.1423 24.3971C40.9044 25.4689 39.6326 26.5061 38.2814 27.4362C35.5902 29.289 32.5211 30.7658 29.1887 30.8404C21.9922 31.0018 16.4929 25.5371 11.9376 20.7047C11.4576 20.1952 10.6877 20.9613 11.167 21.4696Z" fill="#2B2A29"/>
<path d="M23.0794 20.8312C22.5001 14.0926 25.4084 7.40113 30.7367 3.18621C31.2853 2.75233 30.5094 1.99143 29.9661 2.42128C24.4408 6.79212 21.3889 13.8459 21.9895 20.8312C22.0485 21.5196 23.1389 21.5257 23.0794 20.8312Z" fill="#2B2A29"/>
<path d="M30.0609 3.33852C34.8835 7.57121 38.7883 14.4913 37.8835 21.0683C37.7901 21.7489 38.8401 22.0437 38.9349 21.356C39.8947 14.3769 35.9848 7.09656 30.8315 2.57359C30.3081 2.11388 29.5344 2.8762 30.0609 3.33852Z" fill="#2B2A29"/>
<path d="M29.3272 2.31773C29.2283 2.53219 29.0072 2.56323 28.8109 2.4438C28.4639 2.23337 28.6413 1.81465 28.8512 1.57508C29.3611 0.992853 30.2386 1.09736 30.9173 1.21299C31.0756 1.23977 31.5477 1.25091 31.6528 1.39546C31.7111 1.40754 31.7615 1.4329 31.8037 1.47129C31.6839 1.57532 31.5556 1.6675 31.4188 1.74712C30.8789 2.08124 29.5574 2.41323 29.5679 1.3483C29.4778 1.50399 29.3878 1.65991 29.298 1.81536C30.1472 1.42792 31.0701 1.42413 31.9217 1.80778C31.8849 1.52461 31.8482 1.24143 31.8114 0.958256C31.3935 1.28243 30.9529 1.38337 30.4333 1.36157C29.7319 1.33219 29.7331 2.41394 30.4333 2.44309C31.2619 2.47792 31.9346 2.22508 32.582 1.72318C32.8437 1.52034 32.7682 1.00731 32.4717 0.873659C31.2347 0.316552 29.9824 0.318211 28.7478 0.881479C28.5771 0.959441 28.4797 1.172 28.478 1.3483C28.4586 3.34213 30.7939 3.4592 32.0905 2.60564C32.6197 2.25707 33.1274 1.75351 32.8463 1.08006C32.5469 0.362286 31.5981 0.223898 30.9235 0.122714C29.5127 -0.0879492 27.2618 0.445699 27.5424 2.33384C27.7296 3.59308 29.6842 4.12934 30.2683 2.8637C30.5586 2.23527 29.6194 1.68503 29.3272 2.31773Z" fill="#2B2A29"/>
<path d="M30.1558 3.90103C27.9631 5.94344 26.0802 8.26145 24.5297 10.8181C24.1908 11.3766 24.9294 11.8422 25.3858 11.4733C27.3644 9.87447 29.255 8.17851 31.0572 6.38562C30.8005 6.13088 30.5433 5.87567 30.2866 5.62093C28.0484 8.45647 25.8103 11.2925 23.5721 14.1283C23.1838 14.6204 23.6506 15.2264 24.2328 14.9775C27.72 13.4875 28.6392 9.27519 31.8536 7.46619C31.6053 7.21951 31.3565 6.97306 31.1079 6.72638C28.4221 10.4728 25.7363 14.2195 23.0505 17.9659C22.6954 18.4617 23.5157 19.0989 23.9066 18.6214C26.9943 14.8482 30.0825 11.0749 33.1701 7.30173C32.885 7.08325 32.5996 6.86477 32.3143 6.64652C29.8843 10.0119 27.4545 13.3775 25.0242 16.7432C25.3382 16.9249 25.652 17.1072 25.9656 17.2891C27.9536 14.5008 30.2439 11.9598 32.8019 9.67566C32.5168 9.45718 32.2314 9.23869 31.946 9.02021C30.3172 11.701 28.5465 14.288 26.6359 16.7787C26.2598 17.269 27.0762 17.8794 27.4917 17.4342C29.6827 15.0875 31.8737 12.7408 34.0647 10.3941C33.7793 10.1757 33.4942 9.95694 33.2088 9.73846C31.6366 13.0174 29.6345 16.047 27.2145 18.7716C26.7538 19.2898 27.4998 20.0472 27.9851 19.5363C30.3645 17.0318 32.7439 14.5273 35.123 12.023C34.8377 11.8046 34.5523 11.5863 34.2669 11.3678C32.4838 14.0164 30.7005 16.665 28.9171 19.3138C28.5183 19.906 29.4441 20.3965 29.8582 19.8598C31.5523 17.665 33.4873 15.6804 35.6219 13.9055C35.3181 13.7301 35.0146 13.5548 34.7111 13.3794C33.9422 15.4027 32.8497 17.26 31.4529 18.9199C31.0052 19.4522 31.6903 20.1479 32.2235 19.6846C33.4665 18.6055 34.7094 17.5259 35.9521 16.4467C35.6668 16.2282 35.3814 16.0098 35.096 15.7913C34.5876 16.8259 34.079 17.8605 33.5706 18.8948C33.3545 19.3344 33.8318 19.9752 34.3161 19.6349C35.0203 19.1406 35.7246 18.6462 36.4285 18.1519C36.1616 17.9481 35.8948 17.7446 35.6281 17.541C35.3891 18.3974 35.05 19.1752 34.5869 19.9353C34.3462 20.3306 34.7469 20.8716 35.2026 20.7299C35.7167 20.5697 36.1561 20.3602 36.5916 20.0425C36.3247 19.9349 36.0579 19.827 35.791 19.7192C35.8939 20.0195 35.9968 20.3195 36.1 20.6195C36.2366 21.0178 36.8839 21.2019 37.096 20.7486C37.6553 19.5529 38.3953 18.0673 38.3323 16.7192C38.2938 15.8979 37.841 14.965 36.883 15.0849C37.0399 15.3562 37.1968 15.6275 37.3537 15.8989C38.1816 14.3607 37.4251 12.6121 36.2719 11.4418C35.3788 10.5349 33.7655 10.2477 33.2649 11.6956C33.6217 11.7434 33.9785 11.7915 34.3355 11.8394C34.4735 9.64391 33.7227 7.57898 32.2457 5.9451C31.8398 5.49653 31.0085 6.10979 31.3896 6.60079C33.4402 9.24177 34.7632 12.3316 35.182 15.6451C35.5388 15.5972 35.8958 15.5491 36.2526 15.5012C36.1909 15.1138 36.1298 14.7261 36.0684 14.3387C36.0286 14.088 35.7635 13.9662 35.5426 13.9418C34.9143 13.8721 34.4078 14.1515 34.0484 14.6681C33.4053 15.592 33.7132 16.5171 32.4843 17.0508C31.4864 17.4839 30.2458 17.6396 29.191 17.9171C28.0933 18.206 26.9955 18.4946 25.8977 18.7832C26.0745 19.0846 26.2512 19.3861 26.4281 19.6872C27.6797 18.6053 28.9314 17.5233 30.1832 16.4408C29.926 16.1861 29.6693 15.9311 29.4124 15.6761C27.4437 17.6173 25.0027 18.8676 22.2744 19.3614C21.8329 19.4413 21.7995 19.9827 22.034 20.2654C23.1549 21.6157 25.0911 20.9382 26.5141 20.5552C28.9069 19.9114 31.2996 19.2676 33.6921 18.6237C33.5522 18.2941 33.412 17.9647 33.2723 17.6351C31.6889 18.6048 30.0056 19.283 28.19 19.6863C28.2867 20.0339 28.3834 20.3815 28.4799 20.7292C30.1811 20.2548 31.882 19.7801 33.583 19.3055C33.3595 19.0837 33.136 18.8619 32.9125 18.6403C32.3038 20.1605 29.3279 19.4853 28.1682 19.2166C27.2632 19.0064 26.2951 18.6536 25.7451 17.8607C25.2243 17.1095 25.1023 16.0797 25.7867 15.3982C25.4829 15.2228 25.1794 15.0472 24.8757 14.8719C24.6562 15.6695 24.4368 16.4669 24.2176 17.2645C24.1177 17.6273 24.395 17.9185 24.7431 17.9489C25.792 18.0401 26.7452 17.792 27.6173 17.2088C28.1931 16.8235 27.6725 15.9081 27.0671 16.2749C26.437 16.6567 25.7029 17.11 24.9667 17.2472C24.3926 17.3543 23.8226 17.256 23.9267 16.5752C23.9749 16.2605 24.0523 15.947 24.1173 15.6356C24.3599 14.4719 24.6264 13.3114 24.9705 12.1726C25.7151 9.70575 26.8663 7.19818 28.9849 5.59961C29.3505 5.32354 30.0622 4.93705 30.5417 5.10174C30.8239 5.19866 31.1076 5.6643 31.2965 5.8996C31.7861 6.5105 32.2324 7.15742 32.6441 7.82258C33.3987 9.04178 34.0255 10.3385 34.5074 11.687C35.4731 14.3884 35.8547 17.2316 35.668 20.0891C35.6267 20.7263 36.5489 20.7837 36.7387 20.233C37.1624 19.0053 37.3926 17.7569 37.4513 16.4617C37.0948 16.5095 36.7378 16.5574 36.381 16.6053C36.5482 17.4562 36.5487 18.2505 36.3827 19.1007C36.2497 19.7806 37.3002 20.0718 37.4337 19.3882C37.6364 18.3503 37.6357 17.3543 37.432 16.3178C37.31 15.6965 36.388 15.8764 36.3612 16.4617C36.307 17.6628 36.0797 18.8098 35.6876 19.9455C36.0446 19.9934 36.4013 20.0415 36.7581 20.0891C36.9503 17.146 36.553 14.1816 35.5584 11.3996C35.065 10.0193 34.4382 8.68348 33.6773 7.42827C33.0426 6.38207 32.25 4.9515 31.2091 4.25482C29.1375 2.86833 26.644 6.17306 25.7227 7.67543C24.325 9.95481 23.644 12.6027 23.0993 15.1903C22.8896 16.1865 22.3332 17.8399 23.6005 18.3827C24.8021 18.897 26.6203 17.8128 27.6173 17.2088C27.4339 16.8977 27.2505 16.5863 27.0671 16.2749C26.341 16.7607 25.6152 16.9432 24.7431 16.8673C24.9182 17.0955 25.0935 17.3237 25.2685 17.5519C25.488 16.7543 25.7074 15.9569 25.9269 15.1593C26.0699 14.6396 25.401 14.2496 25.0159 14.6332C24.1545 15.4913 24.0327 16.7015 24.4881 17.7998C24.9803 18.9872 26.0415 19.6958 27.2415 20.0853C29.2206 20.7282 32.9812 21.3815 33.9637 18.9278C34.1217 18.5332 33.6606 18.1602 33.2931 18.2626C31.5921 18.7372 29.8909 19.2116 28.19 19.6863C27.5123 19.8754 27.7967 20.8811 28.4799 20.7292C30.3814 20.3069 32.1641 19.5849 33.8223 18.5692C34.3424 18.2508 34.0095 17.4173 33.4025 17.5806C31.5566 18.0773 29.7109 18.5742 27.8652 19.0709C26.6328 19.4024 23.8176 20.7206 22.8048 19.5005C22.7246 19.8017 22.6443 20.1031 22.5643 20.4045C25.4667 19.8787 28.0914 18.5031 30.1832 16.4408C30.6861 15.9451 29.9366 15.223 29.4124 15.6761C28.1604 16.7583 26.9088 17.8403 25.6573 18.9223C25.2329 19.2894 25.6864 19.9581 26.1876 19.8263C28.2459 19.2849 30.3065 18.7519 32.3625 18.2019C33.0054 18.0301 33.6661 17.8936 34.106 17.359C34.5167 16.86 34.6715 14.9271 35.5426 15.0235C35.3678 14.891 35.1923 14.7586 35.0172 14.6264C35.0786 15.014 35.14 15.4015 35.2016 15.7889C35.2957 16.3842 36.3485 16.251 36.2719 15.6451C35.8282 12.1356 34.5098 8.86121 32.331 6.05458C32.0456 6.27306 31.7603 6.49155 31.4749 6.71003C32.7692 8.14178 33.3657 9.92542 33.2454 11.8394C33.2052 12.4764 34.1258 12.5337 34.3161 11.9832C34.6359 11.0576 35.9433 12.7287 36.1107 12.9963C36.563 13.7192 36.8421 14.5543 36.4125 15.3529C36.2392 15.6747 36.4467 16.2214 36.883 16.1666C37.9096 16.038 36.2705 19.9555 36.1549 20.2029C36.4868 20.246 36.819 20.2889 37.1509 20.332C37.048 20.032 36.9451 19.7318 36.8419 19.4318C36.7397 19.1337 36.3435 18.8884 36.0415 19.1086C35.6639 19.3839 35.374 19.5432 34.9126 19.6868C35.1178 19.9517 35.3229 20.2164 35.528 20.4813C36.0374 19.6453 36.4166 18.7695 36.679 17.8287C36.798 17.4029 36.2793 16.9365 35.8784 17.2178C35.1744 17.7121 34.4702 18.2064 33.7662 18.7007C34.0148 18.9474 34.2634 19.1944 34.5117 19.441C35.0203 18.4062 35.5288 17.3716 36.0374 16.3372C36.3096 15.7832 35.6565 15.2692 35.1813 15.6818C33.9386 16.7612 32.6959 17.8406 31.4529 18.9199C31.7099 19.1749 31.9668 19.4299 32.2235 19.6846C33.7468 17.8749 34.9236 15.8733 35.7621 13.6669C35.9729 13.1121 35.2236 12.8309 34.8513 13.1408C32.6402 14.979 30.6704 17.0422 28.9171 19.3138C29.2309 19.4955 29.5447 19.6778 29.8582 19.8598C31.6416 17.2109 33.4249 14.5621 35.208 11.9136C35.5529 11.402 34.7746 10.8138 34.3522 11.2584C31.973 13.7629 29.5936 16.2671 27.2145 18.7716C27.4712 19.0263 27.7281 19.2816 27.9851 19.5363C30.466 16.7434 32.5376 13.6467 34.1499 10.2847C34.4007 9.76168 33.7416 9.14959 33.2941 9.62921C31.1028 11.9759 28.9119 14.3226 26.7211 16.6692C27.0065 16.8877 27.2919 17.1062 27.577 17.3247C29.4878 14.8339 31.2585 12.247 32.8872 9.56618C33.2167 9.024 32.481 8.50884 32.0313 8.91073C29.4031 11.2574 27.0662 13.8794 25.0242 16.7432C24.6178 17.3135 25.5608 17.8496 25.9656 17.2891C28.3956 13.9235 30.8256 10.5581 33.2554 7.19225C33.6124 6.69794 32.7902 6.05956 32.3995 6.53704C29.3116 10.3103 26.2237 14.0832 23.1358 17.8564C23.4212 18.0749 23.7065 18.2934 23.9919 18.5119C26.6777 14.7655 29.3634 11.0188 32.0492 7.27211C32.379 6.81192 31.7483 6.28183 31.3034 6.5323C28.0839 8.34415 27.1178 12.5757 23.6824 14.0437C23.9026 14.3266 24.1227 14.6098 24.3429 14.8929C26.5812 12.0572 28.8192 9.2214 31.0572 6.38562C31.4775 5.8534 30.7965 5.11335 30.2866 5.62093C28.4842 7.41358 26.5938 9.10955 24.6149 10.7086C24.9003 10.9271 25.1856 11.1456 25.471 11.3638C26.9759 8.88277 28.7989 6.64794 30.9266 4.6662C31.4391 4.18871 30.667 3.42473 30.1558 3.90103Z" fill="#2B2A29"/>
<path d="M51.8775 22.719C52.9915 20.7994 54.1055 18.8795 55.2195 16.9598C54.9054 16.9598 54.5917 16.9598 54.2776 16.9598C55.1519 18.6987 55.795 20.5055 56.231 22.3994C56.4053 22.1712 56.5797 21.943 56.7564 21.7148C55.2761 21.7863 53.8134 21.7202 52.3484 21.4915C52.4573 21.7565 52.5643 22.0214 52.6731 22.2861C53.3141 20.9636 53.955 19.6408 54.5981 18.3183C54.2581 18.2273 53.9202 18.1363 53.5823 18.0451C53.4275 19.201 53.2728 20.3567 53.1178 21.5124C53.0504 22.0136 53.737 22.1749 54.0489 21.8949C54.9164 21.11 55.3678 20.1465 55.4809 18.992C55.5421 18.3915 54.5088 18.2458 54.4106 18.8484C54.3104 19.4851 54.2079 20.1219 54.1055 20.7584C54.4543 20.7584 54.8051 20.7584 55.1562 20.7584C55.1476 20.7036 55.1409 20.6489 55.1344 20.5944C55.0864 20.77 55.0406 20.9451 54.9928 21.1204C54.5327 21.5918 55.0232 22.2574 55.4898 22.4984C56.002 22.7619 56.4533 22.2437 56.2353 21.7584C55.6491 20.4513 55.0626 19.1439 54.4761 17.8368C54.2385 17.3093 53.4863 17.625 53.4602 18.1098C53.3709 19.7475 53.7871 21.2847 54.6898 22.6591C54.7987 22.3944 54.9076 22.1295 55.0146 21.8648C54.8706 21.8062 54.7247 21.7482 54.5807 21.6896C54.4042 21.9178 54.2296 22.1463 54.0553 22.3745C54.4543 22.3565 54.8531 22.3385 55.2543 22.3204C55.9519 22.2892 55.9564 21.2072 55.2543 21.2389C54.8531 21.2569 54.4543 21.2747 54.0553 21.2927C53.7284 21.3072 53.3991 21.6309 53.5278 21.9771C53.8156 22.7444 54.4892 23.1432 55.3045 22.9076C55.6292 22.8145 55.8277 22.4119 55.6316 22.1133C54.8271 20.8877 54.4718 19.5702 54.5501 18.1098C54.2101 18.2008 53.8722 18.2918 53.5343 18.3828C54.1207 19.6899 54.7072 20.997 55.2937 22.3043C55.5421 22.0574 55.7907 21.811 56.0414 21.5643C55.8255 21.4536 55.7885 20.5723 55.5901 20.346C55.4243 20.1565 55.1999 20.0176 54.9317 20.0138C54.3061 20.0048 54.0314 20.5117 54.1055 21.0458C54.1773 21.5671 55.0736 21.5574 55.1562 21.0458C55.2586 20.4093 55.3611 19.7726 55.4635 19.1359C55.106 19.088 54.7485 19.0401 54.3911 18.992C54.3061 19.8619 53.9245 20.5449 53.2771 21.1299C53.5866 21.2574 53.8984 21.3849 54.2079 21.5124C54.3626 20.3567 54.5176 19.201 54.6724 18.0451C54.7421 17.5134 53.881 17.3081 53.6563 17.7724C53.0153 19.0949 52.3746 20.4174 51.7316 21.7401C51.5962 22.0197 51.6836 22.4761 52.0585 22.5347C53.6193 22.7783 55.176 22.8731 56.7564 22.7965C57.1181 22.779 57.3624 22.4659 57.2817 22.1117C56.8261 20.129 56.135 18.2335 55.2195 16.4141C55.0342 16.0451 54.4739 16.079 54.2776 16.4141C53.1636 18.3337 52.0496 20.2534 50.9356 22.1733C50.5848 22.7773 51.5264 23.3228 51.8775 22.719Z" fill="#2B2A29"/>
<path d="M4.34807 21.9324C4.54675 20.527 4.7452 19.1211 4.9434 17.7151C4.67666 17.823 4.40968 17.9308 4.14294 18.0384C4.8548 18.54 5.67484 19.0931 5.99937 19.9348C6.18802 20.4241 6.24605 21.0042 5.87352 21.4213C5.5915 21.7369 5.07259 21.8585 4.72848 21.559C4.6917 21.8419 4.65517 22.1251 4.61815 22.4083C5.82719 21.5995 6.37643 20.2358 6.03829 18.8239C5.89788 18.2365 4.93862 18.3538 4.968 18.9677C5.00286 19.7019 5.19581 20.3597 5.58147 20.9874C5.83842 21.4057 6.67159 21.2779 6.59708 20.7144C6.48342 19.8552 6.14695 19.1538 5.45037 18.609C5.12751 18.3566 4.46723 18.4706 4.52001 18.9914C4.57899 19.573 4.76645 20.0166 5.21611 20.4078C5.65096 20.786 6.45667 20.2808 6.0722 19.7523C5.90122 19.5177 5.73 19.2827 5.55902 19.0478C5.25312 18.6277 4.55535 18.7516 4.54341 19.3208C4.52741 20.0782 4.51189 20.8358 4.49589 21.5931C4.85289 21.5452 5.20966 21.4974 5.56643 21.4493C5.45634 21.1969 5.53443 21.0028 5.80045 20.867C6.4507 20.6237 6.16892 19.5777 5.51079 19.8241C4.69911 20.1279 4.24945 20.8848 4.51523 21.7367C4.69648 22.317 5.57287 22.2123 5.58601 21.5931C5.60177 20.8358 5.61753 20.0782 5.63353 19.3208C5.29491 19.4118 4.95629 19.5028 4.61792 19.5938C4.7889 19.8286 4.95988 20.0635 5.13086 20.2983C5.41622 20.0798 5.70159 19.8613 5.98671 19.6429C5.76105 19.4957 5.63544 19.2784 5.60989 18.9914C5.29993 19.1189 4.98973 19.2464 4.67976 19.3739C5.12513 19.7222 5.4315 20.1422 5.50697 20.7144C5.84558 20.6237 6.1842 20.5324 6.52282 20.4417C6.23411 19.9715 6.0839 19.5159 6.05787 18.9677C5.70111 19.0156 5.3441 19.0637 4.98734 19.1114C5.20679 20.0279 4.85815 20.9459 4.0682 21.4744C3.79621 21.6564 3.678 22.0798 3.95787 22.3237C5.04799 23.2737 6.74203 22.7035 7.14417 21.3395C7.69914 19.458 6.05979 18.0675 4.69314 17.1045C4.43022 16.9194 3.93949 17.096 3.89244 17.4277C3.69424 18.8334 3.49556 20.2393 3.29712 21.645C3.20088 22.3258 4.25112 22.6201 4.34807 21.9324Z" fill="#2B2A29"/>
<path d="M48.821 43.5325C50.99 43.5212 53.0177 44.488 54.3146 46.2257C54.7289 46.7787 55.675 46.2399 55.2564 45.6797C53.724 43.628 51.4043 42.4373 48.821 42.4508C48.1197 42.4548 48.1185 43.5363 48.821 43.5325Z" fill="#2B2A29"/>
<path d="M47.2651 47.7978C48.8474 48.5486 50.2011 49.5955 51.3237 50.9327C51.7729 51.4682 52.5402 50.6995 52.0955 50.168C50.9204 48.7677 49.4709 47.65 47.815 46.864C47.1856 46.5651 46.6318 47.4974 47.2651 47.7978Z" fill="#2B2A29"/>
<path d="M46.4865 51.4165C47.1219 52.4862 47.7574 53.5554 48.3928 54.6248C48.7491 55.2241 49.6909 54.6805 49.3332 54.0791C48.699 53.0096 48.063 51.94 47.4276 50.8705C47.0716 50.2712 46.1288 50.8148 46.4865 51.4165Z" fill="#2B2A29"/>
<path d="M12.1044 41.7364C9.13923 41.9836 6.43411 43.266 4.41363 45.4419C3.9389 45.9532 4.70783 46.7198 5.18424 46.2066C7.00221 44.249 9.42555 43.0416 12.1044 42.8182C12.7983 42.7601 12.8046 41.6779 12.1044 41.7364Z" fill="#2B2A29"/>
<path d="M8.6208 50.9353C9.76179 48.9471 11.3336 47.3128 13.2884 46.0985C13.8818 45.7298 13.3352 44.7938 12.7384 45.1647C10.6298 46.4744 8.91095 48.2436 7.6797 50.3893C7.332 50.9952 8.27335 51.5407 8.6208 50.9353Z" fill="#2B2A29"/>
<path d="M12.0039 53.2445C12.5635 51.886 13.3952 50.6865 14.4469 49.6576C14.9474 49.1682 14.1765 48.4035 13.6763 48.8929C12.4832 50.0595 11.5858 51.4203 10.953 52.9571C10.6877 53.6009 11.7417 53.8812 12.0039 53.2445Z" fill="#2B2A29"/>
<path d="M30.1861 16.3358C29.5722 15.7091 29.1165 15.0131 28.8453 14.1752C28.7383 13.8444 28.2965 12.1956 28.7736 12.1392C29.0564 12.1057 29.1612 13.0131 29.4105 13.3133C29.6586 13.6119 30.0233 13.801 30.4211 13.7811C30.8373 13.7605 31.1803 13.4967 31.4382 13.1944C31.6127 12.9899 32.1684 11.6178 32.4934 12.124C32.6833 12.42 31.7651 13.887 31.5982 14.165C31.1509 14.9121 30.6009 15.5574 29.97 16.1555C30.2735 16.2349 30.577 16.3145 30.8808 16.3941C30.7213 15.3965 30.4254 14.4624 30.0116 13.5415C29.8781 13.2441 29.3604 13.1756 29.1557 13.432C28.6256 14.0963 28.623 14.8166 29.1629 15.4778C29.3343 15.6877 29.7637 15.6901 29.9337 15.4778C30.3824 14.9178 30.5257 14.383 30.3796 13.6801C30.3012 13.3029 29.7233 13.1316 29.4685 13.4415C28.7087 14.3664 28.7108 15.5126 29.5201 16.4093C29.7257 16.637 30.0789 16.5932 30.291 16.4093C31.0833 15.7216 31.6149 14.9131 31.9714 13.9325C31.6211 13.9325 31.2705 13.9325 30.9202 13.9325C31.0917 14.37 31.1229 14.6934 30.9875 15.156C30.792 15.8259 31.8432 16.1119 32.0387 15.4437C32.2233 14.8128 32.2121 14.2593 31.9714 13.6451C31.7751 13.1439 31.11 13.1228 30.9202 13.6451C30.6274 14.4503 30.1687 15.0816 29.5201 15.6446C29.7771 15.6446 30.0338 15.6446 30.291 15.6446C29.9163 15.2297 29.8778 14.6463 30.2394 14.2065C29.9356 14.1268 29.6321 14.0472 29.3284 13.9678C29.2732 14.2162 29.218 14.4645 29.1629 14.7131C29.4198 14.7131 29.6768 14.7131 29.9337 14.7131C29.7861 14.5429 29.7835 14.3709 29.9266 14.197C29.6412 14.1602 29.3558 14.1237 29.0705 14.0875C29.4468 14.9249 29.6851 15.7775 29.8298 16.6816C29.8972 17.1034 30.4715 17.1754 30.7406 16.9202C31.5587 16.1446 32.2618 15.2636 32.7878 14.2666C33.1857 13.5129 33.7645 12.4465 33.6315 11.5716C33.5339 10.9304 33.0083 10.4439 32.326 10.5728C31.9676 10.6406 31.6433 10.8946 31.4054 11.1565C31.0592 11.5377 30.9723 12.2951 30.4335 12.3091C29.9032 12.3233 30.0352 11.7458 29.8002 11.3209C29.646 11.0425 29.417 10.77 29.1199 10.6358C28.4551 10.3361 27.827 10.7712 27.6212 11.4121C26.9939 13.3659 28.0651 15.7226 29.4155 17.1008C29.9055 17.6005 30.6759 16.8354 30.1861 16.3358Z" fill="#F9E805"/>
</svg>
