<svg width="15" height="15" viewBox="0 0 15 15" fill="none" xmlns="http://www.w3.org/2000/svg">
<path d="M9.27184 10.4207L10.4207 9.27184L12.1359 10.9951L13.8511 9.27184L15 10.4207L13.2767 12.1359L15 13.8511L13.8511 15L12.1359 13.2767L10.4207 15L9.27184 13.8511L10.9951 12.1359L9.27184 10.4207ZM1.61812 0H12.945C13.843 0 14.5631 0.720065 14.5631 1.61812V7.9288C14.0696 7.64563 13.5275 7.44337 12.945 7.34628V1.61812H1.61812V12.945H7.34628C7.44337 13.5275 7.64563 14.0696 7.9288 14.5631H1.61812C0.720065 14.5631 0 13.843 0 12.945V1.61812C0 0.720065 0.720065 0 1.61812 0ZM3.23625 3.23625H11.3269V4.85437H3.23625V3.23625ZM3.23625 6.47249H11.3269V7.34628C10.6392 7.45955 10.0081 7.71845 9.44984 8.09061H3.23625V6.47249ZM3.23625 9.70874H7.28155V11.3269H3.23625V9.70874Z" fill="url(#paint0_linear)"/>
<defs>
<linearGradient id="paint0_linear" x1="15" y1="15" x2="0" y2="0" gradientUnits="userSpaceOnUse">
<stop offset="0.140625" stop-color="#FF066F"/>
<stop offset="0.911458" stop-color="#FF73E0"/>
</linearGradient>
</defs>
</svg>
