<svg width="17" height="16" viewBox="0 0 17 16" fill="none" xmlns="http://www.w3.org/2000/svg">
<path d="M12.6933 16L10.2 13.3333L11.2517 12.3022L12.6933 13.7156L15.9483 10.5244L17 11.7778L12.6933 16ZM8.88533 16H1.81333C0.806933 16 0 15.2089 0 14.2222V1.77778C0 0.791111 0.806933 0 1.81333 0H14.5067C15.5131 0 16.32 0.791111 16.32 1.77778V8.71111C15.7669 8.4 15.1595 8.17778 14.5067 8.07111V1.77778H1.81333V14.2222H8.23253C8.34133 14.8622 8.568 15.4578 8.88533 16ZM8.16 12.4444H3.62667V10.6667H8.16V12.4444ZM10.5899 8.88889H3.62667V7.11111H12.6933V8.07111C11.9227 8.19556 11.2155 8.48 10.5899 8.88889ZM12.6933 5.33333H3.62667V3.55556H12.6933" fill="url(#paint0_linear)"/>
<defs>
<linearGradient id="paint0_linear" x1="17" y1="16" x2="1.02936" y2="-0.968807" gradientUnits="userSpaceOnUse">
<stop offset="0.135417" stop-color="#37FFDB"/>
<stop offset="0.895833" stop-color="#66E3FF"/>
</linearGradient>
</defs>
</svg>
