<svg width="22" height="16" viewBox="0 0 22 16" fill="none" xmlns="http://www.w3.org/2000/svg">
<path d="M14 0C16.1217 0 18.1566 0.842855 19.6569 2.34315C21.1571 3.84344 22 5.87827 22 8C22 10.1217 21.1571 12.1566 19.6569 13.6569C18.1566 15.1571 16.1217 16 14 16C11.8783 16 9.84344 15.1571 8.34315 13.6569C6.84285 12.1566 6 10.1217 6 8C6 5.87827 6.84285 3.84344 8.34315 2.34315C9.84344 0.842855 11.8783 0 14 0ZM14 14C15.5913 14 17.1174 13.3679 18.2426 12.2426C19.3679 11.1174 20 9.5913 20 8C20 6.4087 19.3679 4.88258 18.2426 3.75736C17.1174 2.63214 15.5913 2 14 2C12.4087 2 10.8826 2.63214 9.75736 3.75736C8.63214 4.88258 8 6.4087 8 8C8 9.5913 8.63214 11.1174 9.75736 12.2426C10.8826 13.3679 12.4087 14 14 14ZM2 8C2 10.61 3.67 12.83 6 13.65V15.74C2.55 14.85 0 11.73 0 8C0 4.27 2.55 1.15 6 0.26V2.35C3.67 3.17 2 5.39 2 8Z" fill="url(#paint0_linear)"/>
<defs>
<linearGradient id="paint0_linear" x1="22" y1="16" x2="6.77838" y2="-4.92973" gradientUnits="userSpaceOnUse">
<stop offset="0.15625" stop-color="#FF6464"/>
<stop offset="0.807292" stop-color="#FFBB55"/>
</linearGradient>
</defs>
</svg>
