<?xml version="1.0" encoding="iso-8859-1"?>
<!-- Generator: Adobe Illustrator 19.0.0, SVG Export Plug-In . SVG Version: 6.00 Build 0)  -->
<svg version="1.1" id="Layer_1" xmlns="http://www.w3.org/2000/svg" xmlns:xlink="http://www.w3.org/1999/xlink" x="0px" y="0px"
	 viewBox="0 0 512 512" style="enable-background:new 0 0 512 512;" xml:space="preserve">
<g>
	<g>
		<path d="M211.625,150.875c-4.142,0-7.5,3.358-7.5,7.5v8.875c0,4.142,3.358,7.5,7.5,7.5c4.142,0,7.5-3.358,7.5-7.5v-8.875
			C219.125,154.233,215.767,150.875,211.625,150.875z"/>
	</g>
</g>
<g>
	<g>
		<path d="M300.375,150.875c-4.142,0-7.5,3.358-7.5,7.5v8.875c0,4.142,3.358,7.5,7.5,7.5c4.142,0,7.5-3.358,7.5-7.5v-8.875
			C307.875,154.233,304.517,150.875,300.375,150.875z"/>
	</g>
</g>
<g>
	<g>
		<path d="M288.419,206.863c-2.63-3.2-7.357-3.662-10.556-1.032C272.32,210.387,264.351,213,256,213
			c-8.351,0-16.32-2.613-21.863-7.169c-3.199-2.63-7.926-2.167-10.556,1.032c-2.63,3.2-2.168,7.926,1.032,10.556
			C232.914,224.242,244.061,228,256,228c11.939,0,23.086-3.758,31.387-10.581C290.587,214.789,291.049,210.063,288.419,206.863z"/>
	</g>
</g>
<g>
	<g>
		<path d="M493.354,92.694c-18.572-34.491-52.559-76.831-109.003-82.67c-32.6-3.375-57.538,7.112-60.238,8.302
			C307.233,6.77,286.831,0,264.875,0h-17.75c-21.956,0-42.358,6.77-59.237,18.326c-2.699-1.189-27.635-11.678-60.238-8.302
			c-56.445,5.839-90.432,48.179-109.003,82.67c-1.672,3.105-0.955,6.955,1.723,9.25l62.125,53.25
			c1.378,1.182,3.115,1.806,4.881,1.806c0.763,0,1.531-0.116,2.277-0.354c2.477-0.789,4.368-2.805,4.998-5.327
			c0.15-0.601,13.946-54.096,51.927-76.895C143.605,84.14,142,94.448,142,105.125v29.137c-10.272,3.202-17.75,12.8-17.75,24.113
			c0,13.923,11.327,25.25,25.25,25.25h1.64c2.794,39.433,27.438,72.924,61.86,88.417v23.459l-64.689,28.751
			c-4.733,2.104-8.122,6.203-9.297,11.248c-1.137,4.882-0.005,9.877,3.073,13.801c-5.751,7.477-8.962,16.753-8.962,26.265V504.5
			c0,4.142,3.358,7.5,7.5,7.5c4.142,0,7.5-3.358,7.5-7.5V375.565c0-5.041,1.392-9.976,3.926-14.265l23.074,27.689
			c1.532,1.838,2.375,4.168,2.375,6.562V504.5c0,4.142,3.358,7.5,7.5,7.5c4.142,0,7.5-3.358,7.5-7.5V395.551
			c0-5.896-2.079-11.637-5.853-16.165l-32.742-39.292c-0.362-0.434-0.354-0.888-0.283-1.192c0.071-0.304,0.264-0.714,0.781-0.944
			l58.685-26.082c1.363,22.491,20.084,40.373,42.912,40.373s41.549-17.882,42.912-40.373l58.685,26.082
			c0.517,0.23,0.709,0.64,0.781,0.944c0.071,0.304,0.079,0.758-0.283,1.192l-32.742,39.291c-3.774,4.528-5.853,10.27-5.853,16.165
			V504.5c0,4.142,3.358,7.5,7.5,7.5c4.142,0,7.5-3.358,7.5-7.5V395.551c0-2.393,0.844-4.724,2.376-6.562l23.073-27.688
			c2.534,4.289,3.926,9.224,3.926,14.264V504.5c0,4.142,3.358,7.5,7.5,7.5c4.142,0,7.5-3.358,7.5-7.5V375.565
			c0-9.512-3.211-18.788-8.962-26.265c3.079-3.925,4.211-8.919,3.073-13.801c-1.175-5.044-4.564-9.144-9.297-11.248L299,295.501
			v-23.459c34.423-15.494,59.066-48.984,61.86-88.417h1.64c13.923,0,25.25-11.327,25.25-25.25c0-11.313-7.478-20.911-17.75-24.113
			v-29.137c0-10.673-1.604-20.977-4.574-30.689c37.874,22.787,51.773,76.288,51.923,76.883c0.63,2.522,2.521,4.538,4.998,5.327
			c0.747,0.238,1.515,0.354,2.277,0.354c1.766,0,3.503-0.624,4.881-1.806l62.125-53.25
			C494.309,99.649,495.025,95.799,493.354,92.694z M131.002,66.802c-27.082,20.141-41.388,52.509-47.4,69.586L34.778,94.539
			c24.029-41.954,55.55-65.336,93.759-69.524c2.761-0.303,5.464-0.489,8.098-0.58C132.47,33.229,128.792,47.043,131.002,66.802z
			 M247.125,15h17.75C314.57,15,355,55.43,355,105.125v10.25H157v-10.25C157,55.43,197.43,15,247.125,15z M145.37,58.016
			c-0.666-18.931,5.239-29.079,8.163-32.9c8.632,0.98,15.8,2.751,20.771,4.266c-7.446,7.161-13.839,15.407-18.928,24.48
			C151.896,55.052,148.565,56.45,145.37,58.016z M284,309.25c0,15.439-12.561,28-28,28c-15.439,0-28-12.561-28-28v-31.79
			c8.918,2.467,18.307,3.79,28,3.79c9.693,0,19.082-1.323,28-3.79V309.25z M372.75,158.375c0,5.652-4.598,10.25-10.25,10.25h-8.875
			c-4.142,0-7.5,3.358-7.5,7.5c0,49.695-40.43,90.125-90.125,90.125s-90.125-40.43-90.125-90.125c0-4.142-3.358-7.5-7.5-7.5H149.5
			c-5.652,0-10.25-4.598-10.25-10.25s4.598-10.25,10.25-10.25c4.142,0,7.5-3.358,7.5-7.5v-10.25h198v10.25
			c0,4.142,3.358,7.5,7.5,7.5C368.152,148.125,372.75,152.723,372.75,158.375z M366.624,58.013
			c-3.194-1.565-6.523-2.962-10.001-4.152c-5.092-9.079-11.491-17.332-18.945-24.497c4.956-1.518,12.12-3.291,20.771-4.267
			C361.297,28.853,367.268,39.078,366.624,58.013z M428.398,136.388c-6.012-17.077-20.318-49.445-47.401-69.586
			c2.209-19.757-1.468-33.571-5.632-42.365c2.424,0.085,4.904,0.246,7.441,0.508c38.502,3.983,70.243,27.388,94.416,69.595
			L428.398,136.388z"/>
	</g>
</g>
<g>
</g>
<g>
</g>
<g>
</g>
<g>
</g>
<g>
</g>
<g>
</g>
<g>
</g>
<g>
</g>
<g>
</g>
<g>
</g>
<g>
</g>
<g>
</g>
<g>
</g>
<g>
</g>
<g>
</g>
</svg>
