<?xml version="1.0" encoding="iso-8859-1"?>
<!-- Generator: Adobe Illustrator 19.0.0, SVG Export Plug-In . SVG Version: 6.00 Build 0)  -->
<svg version="1.1" id="Layer_1" xmlns="http://www.w3.org/2000/svg" xmlns:xlink="http://www.w3.org/1999/xlink" x="0px" y="0px"
	 viewBox="0 0 512.001 512.001" style="enable-background:new 0 0 512.001 512.001;" xml:space="preserve">
<g>
	<g>
		<path d="M434.087,89.836C407.792,37.245,356.585,2.704,354.418,1.26c-2.974-1.982-6.936-1.591-9.463,0.937L314.56,32.592
			c-17.297-9.831-37.283-15.454-58.561-15.454s-41.264,5.624-58.561,15.454L167.044,2.197c-2.528-2.528-6.488-2.92-9.463-0.937
			c-2.167,1.444-53.373,35.985-79.668,88.576c-0.709,1.417-0.951,3.023-0.69,4.587c0.366,2.195,9.352,52.81,59.979,80.471
			c1.287,33.719,16.725,65.174,42.822,86.876c0.065,0.054,0.135,0.096,0.203,0.141l-34.48,241.529
			c-0.585,4.101,2.264,7.899,6.364,8.485c0.36,0.051,0.717,0.076,1.07,0.076c3.672,0,6.881-2.7,7.416-6.44l32.093-224.652
			c13.895,21.032,37.421,34.005,63.31,34.005c25.911,0,49.421-12.968,63.31-34.003l32.093,224.649
			c0.535,3.741,3.743,6.44,7.416,6.44c0.353,0,0.71-0.025,1.07-0.076c4.101-0.586,6.95-4.385,6.364-8.485l-34.497-241.505
			c0.075-0.055,0.151-0.107,0.223-0.167c26.096-21.702,41.533-53.156,42.82-86.874c50.627-27.662,59.613-78.276,59.979-80.471
			C435.038,92.859,434.796,91.254,434.087,89.836z M123.228,126.183c1.092,9.469,3.005,17.774,5.108,24.703
			c-25.602-21.059-33.881-48.656-35.822-56.664c13.76-26.401,34.628-48.136,50.6-62.337
			C122.476,69.896,120.602,103.424,123.228,126.183z M166.3,22.666l18.334,18.333c-25.383,19.109-42.891,48.136-46.729,81.271
			C134.599,88.702,144.14,55.214,166.3,22.666z M256,299.914c-17.456,0-33.572-7.357-44.895-19.722
			c2.072,0.286,4.185,0.446,6.335,0.446c16.045,0,30.299-8.198,38.561-20.82c8.261,12.622,22.515,20.82,38.561,20.82
			c2.153,0,4.268-0.16,6.343-0.447C289.584,292.559,273.472,299.914,256,299.914z M246.362,221.724c0-5.314,4.323-9.638,9.638-9.638
			c5.314,0,9.638,4.324,9.638,9.638c0,5.314-4.323,9.638-9.638,9.638C250.685,231.362,246.362,227.039,246.362,221.724z
			 M359.896,170.311c0,21.991-6.9,43.05-19.432,60.513c-0.631-7.813-3.226-15.299-7.606-21.842
			c-2.305-3.442-6.963-4.364-10.405-2.061c-3.442,2.305-4.364,6.963-2.06,10.405c3.419,5.107,5.227,11.073,5.227,17.251
			c0,17.126-13.934,31.06-31.06,31.06c-13.567,0-25.232-8.685-29.412-21.044c9.068-3.64,15.49-12.516,15.49-22.87
			c0-13.585-11.052-24.638-24.638-24.638c-13.585,0-24.638,11.053-24.638,24.638c0,10.354,6.422,19.229,15.49,22.87
			c-4.181,12.359-15.846,21.044-29.412,21.044c-17.126,0-31.06-13.934-31.06-31.06c0-6.179,1.807-12.144,5.227-17.251
			c2.304-3.442,1.382-8.101-2.06-10.405c-3.442-2.304-8.101-1.382-10.405,2.061c-4.38,6.543-6.974,14.029-7.606,21.842
			c-12.532-17.463-19.432-38.522-19.432-60.513v-34.276c0-57.289,46.608-103.896,103.896-103.896s103.896,46.608,103.896,103.896
			V170.311z M374.095,122.27c-3.838-33.135-21.346-62.162-46.729-81.271l18.333-18.333C367.859,55.214,377.4,88.702,374.095,122.27z
			 M383.65,150.925c2.107-6.936,4.026-15.257,5.121-24.742c2.626-22.759,0.752-56.287-19.886-94.298
			c15.975,14.203,36.848,35.945,50.607,62.351C417.58,102.26,409.397,129.829,383.65,150.925z"/>
	</g>
</g>
<g>
	<g>
		<path d="M205.332,411.348c-4.125-0.416-7.797,2.595-8.209,6.716l-8.569,85.69c-0.412,4.121,2.595,7.797,6.717,8.209
			c0.253,0.025,0.505,0.038,0.755,0.038c3.806,0,7.067-2.886,7.454-6.754l8.569-85.689
			C212.461,415.435,209.454,411.76,205.332,411.348z"/>
	</g>
</g>
<g>
	<g>
		<path d="M323.445,503.753l-8.569-85.689c-0.412-4.122-4.089-7.131-8.209-6.716c-4.122,0.412-7.129,4.087-6.717,8.209l8.569,85.689
			c0.387,3.868,3.647,6.754,7.454,6.754c0.25,0,0.501-0.012,0.755-0.038C320.85,511.55,323.857,507.874,323.445,503.753z"/>
	</g>
</g>
<g>
	<g>
		<path d="M204.586,145.672c-4.142,0-7.5,3.358-7.5,7.5v8.569c0,4.143,3.358,7.5,7.5,7.5c4.142,0,7.5-3.357,7.5-7.5v-8.569
			C212.086,149.03,208.728,145.672,204.586,145.672z"/>
	</g>
</g>
<g>
	<g>
		<path d="M307.413,145.672c-4.142,0-7.5,3.358-7.5,7.5v8.569c0,4.143,3.358,7.5,7.5,7.5c4.142,0,7.5-3.357,7.5-7.5v-8.569
			C314.913,149.03,311.555,145.672,307.413,145.672z"/>
	</g>
</g>
<g>
</g>
<g>
</g>
<g>
</g>
<g>
</g>
<g>
</g>
<g>
</g>
<g>
</g>
<g>
</g>
<g>
</g>
<g>
</g>
<g>
</g>
<g>
</g>
<g>
</g>
<g>
</g>
<g>
</g>
</svg>
