<?xml version="1.0" encoding="iso-8859-1"?>
<!-- Generator: Adobe Illustrator 19.0.0, SVG Export Plug-In . SVG Version: 6.00 Build 0)  -->
<svg version="1.1" id="Layer_1" xmlns="http://www.w3.org/2000/svg" xmlns:xlink="http://www.w3.org/1999/xlink" x="0px" y="0px"
	 viewBox="0 0 512 512" style="enable-background:new 0 0 512 512;" xml:space="preserve">
<g>
	<g>
		<path d="M211.625,133.125c-4.142,0-7.5,3.358-7.5,7.5v8.875c0,4.142,3.358,7.5,7.5,7.5c4.142,0,7.5-3.358,7.5-7.5v-8.875
			C219.125,136.483,215.767,133.125,211.625,133.125z"/>
	</g>
</g>
<g>
	<g>
		<path d="M300.375,133.125c-4.142,0-7.5,3.358-7.5,7.5v8.875c0,4.142,3.358,7.5,7.5,7.5c4.142,0,7.5-3.358,7.5-7.5v-8.875
			C307.875,136.483,304.517,133.125,300.375,133.125z"/>
	</g>
</g>
<g>
	<g>
		<path d="M288.419,197.988c-2.63-3.2-7.357-3.662-10.556-1.032c-5.543,4.556-13.512,7.169-21.863,7.169
			c-8.351,0-16.32-2.613-21.863-7.169c-3.199-2.63-7.926-2.167-10.556,1.032c-2.63,3.2-2.168,7.926,1.032,10.556
			c8.301,6.823,19.448,10.581,31.387,10.581c11.939,0,23.086-3.758,31.387-10.581C290.587,205.914,291.049,201.188,288.419,197.988z
			"/>
	</g>
</g>
<g>
	<g>
		<path d="M393.899,301.971l-61.054-16.651l-7.606-22.817c-0.753-2.258-2.533-4.025-4.796-4.761
			c-1.209-0.393-2.478-0.457-3.694-0.23v-2.682c5.87-3.71,11.434-7.974,16.611-12.771c19.298-17.878,31.714-41.615,35.403-67.432
			c13.629-1.207,25.167-11.276,27.414-24.363c1.454-8.473-0.728-16.678-5.446-23.004c8.823-5.196,14.768-14.842,14.768-25.868
			c0-9.337-4.401-18.005-11.515-23.579c1.728-3.828,2.64-7.987,2.64-12.223c0-15.85-12.276-28.863-27.743-29.876
			C365.7,25.323,356.085,17.75,344.75,17.75c-3.426,0-6.694,0.695-9.676,1.947C317.389,6.719,295.495,0,273.75,0h-35.5
			c-21.729,0-43.616,6.713-61.244,19.729c-3.003-1.273-6.299-1.979-9.756-1.979c-11.335,0-20.95,7.573-24.132,17.965
			c-15.467,1.013-27.743,14.027-27.743,29.876c0,4.236,0.913,8.395,2.64,12.223c-7.114,5.574-11.515,14.242-11.515,23.579
			c0,11.026,5.945,20.672,14.768,25.868c-4.719,6.326-6.901,14.531-5.446,23.004c2.247,13.087,13.785,23.157,27.414,24.363
			c3.689,25.816,16.105,49.553,35.403,67.432c5.178,4.797,10.741,9.061,16.611,12.771v2.681c-1.216-0.227-2.485-0.163-3.694,0.23
			c-2.263,0.736-4.043,2.502-4.796,4.761l-7.606,22.817l-61.053,16.651c-22.507,6.138-38.226,26.718-38.226,50.047V504.5
			c0,4.142,3.358,7.5,7.5,7.5c4.142,0,7.5-3.358,7.5-7.5V352.019c0-6.923,1.953-13.502,5.386-19.14l35.249,42.299
			c4.185,5.022,6.49,11.388,6.49,17.925V504.5c0,4.142,3.358,7.5,7.5,7.5c4.142,0,7.5-3.358,7.5-7.5V393.103
			c0-10.039-3.54-19.815-9.966-27.527l-36.439-43.74c3.413-2.4,7.265-4.251,11.453-5.393l39.38-10.74
			c5.642,12.111,33.228,66.572,90.213,107.275c1.304,0.931,2.832,1.397,4.359,1.397c1.527,0,3.055-0.466,4.359-1.397
			c56.985-40.704,84.571-95.165,90.213-107.275l39.38,10.74c4.187,1.142,8.039,2.993,11.452,5.392l-36.438,43.74
			c-6.427,7.712-9.966,17.488-9.966,27.527V504.5c0,4.142,3.358,7.5,7.5,7.5c4.142,0,7.5-3.358,7.5-7.5V393.103
			c0-6.537,2.305-12.903,6.49-17.925l35.249-42.299c3.433,5.637,5.386,12.216,5.386,19.14V504.5c0,4.142,3.358,7.5,7.5,7.5
			c4.142,0,7.5-3.358,7.5-7.5V352.019C432.125,328.689,416.406,308.109,393.899,301.971z M318.595,290.001l-27.578,34.472
			c-0.467,0.584-1.3,0.689-1.898,0.241l-20.422-15.316l45.524-32.517L318.595,290.001z M256,300.033l-45.75-32.679v-4.552
			c14.276,6.266,29.811,9.573,45.75,9.573c15.939,0,31.474-3.307,45.75-9.572v4.552L256,300.033z M344.75,32.877
			c5.535,0.001,10.059,4.448,10.244,9.985c-0.019,0.191-0.033,0.407-0.038,0.645c-0.05,2.302,0.941,4.501,2.694,5.975
			s4.078,2.065,6.313,1.6c0.973-0.201,1.974-0.304,2.975-0.304c8.099,0,14.688,6.645,14.688,14.812c0,4.573-2.067,7.862-3.8,9.816
			c-1.658,1.869-2.29,4.444-1.688,6.877c0.602,2.433,2.361,4.406,4.695,5.269c5.783,2.137,9.667,7.699,9.667,13.84
			c0,8.167-6.589,14.812-14.688,14.812s-14.688-6.645-14.688-14.812c0-4.573,2.067-7.862,3.8-9.816
			c1.658-1.869,2.29-4.444,1.688-6.877c-0.602-2.433-2.361-4.406-4.695-5.269c-5.783-2.137-9.667-7.699-9.667-13.84
			c0-1.009,0.102-2.018,0.301-3c0.459-2.255-0.125-4.598-1.587-6.366c-1.427-1.725-3.538-2.719-5.759-2.719
			c-0.055,0-0.11,0-0.166,0.002c-0.236,0.005-0.449,0.02-0.639,0.038c-5.491-0.187-9.9-4.749-9.9-10.331
			C334.5,37.514,339.098,32.877,344.75,32.877z M121.499,101.393c0.001-6.141,3.886-11.703,9.668-13.84
			c2.334-0.863,4.093-2.836,4.695-5.269c0.602-2.433-0.029-5.008-1.688-6.877c-1.733-1.954-3.8-5.243-3.8-9.816
			c0-8.167,6.589-14.812,14.688-14.812c1,0,2.001,0.102,2.975,0.304c2.236,0.464,4.559-0.126,6.313-1.6
			c1.753-1.474,2.745-3.674,2.694-5.975c-0.005-0.238-0.02-0.453-0.038-0.645c0.185-5.538,4.709-9.985,10.244-9.985
			c5.652,0,10.25,4.637,10.25,10.337c0,5.582-4.41,10.144-9.9,10.331c-0.189-0.019-0.403-0.033-0.64-0.038
			c-2.283-0.074-4.463,0.949-5.925,2.717c-1.462,1.768-2.046,4.111-1.587,6.366c0.2,0.981,0.301,1.991,0.301,3
			c0,6.141-3.885,11.703-9.667,13.84c-2.334,0.863-4.093,2.836-4.695,5.269c-0.602,2.433,0.029,5.008,1.688,6.877
			c1.733,1.954,3.8,5.243,3.8,9.816c0,8.167-6.589,14.812-14.688,14.812S121.499,109.56,121.499,101.393z M188.833,231.056
			c-18.215-16.874-29.37-39.754-31.411-64.424c-0.322-3.889-3.572-6.882-7.475-6.882h-3.963c-7.591,0-14.203-5.169-15.38-12.023
			c-1.321-7.695,3.35-14.924,10.709-16.85c13.934-2.458,24.561-14.739,24.561-29.484c0-4.236-0.913-8.395-2.64-12.223
			c6.613-5.181,10.881-13.036,11.45-21.616c10.306-3.209,17.815-12.906,17.815-24.339c0-4.907-1.387-9.492-3.781-13.384
			C203.431,20.125,220.492,15,238.25,15h35.5c17.757,0,34.818,5.125,49.531,14.831c-2.394,3.892-3.781,8.477-3.781,13.384
			c0,11.432,7.509,21.13,17.815,24.339c0.569,8.58,4.837,16.436,11.45,21.616c-1.728,3.828-2.64,7.987-2.64,12.223
			c0,14.745,10.627,27.026,24.561,29.484c7.359,1.926,12.03,9.154,10.708,16.85c-1.176,6.854-7.788,12.023-15.379,12.023h-3.963
			c-3.902,0-7.153,2.993-7.475,6.882c-2.041,24.67-13.195,47.55-31.41,64.424c-18.32,16.972-42.174,26.319-67.167,26.319
			S207.152,248.028,188.833,231.056z M197.779,276.88l45.524,32.517l-20.422,15.316c-0.598,0.449-1.432,0.342-1.898-0.241
			L193.405,290L197.779,276.88z M256,397.584c-47.547-35.599-72.861-81.806-79.838-95.9l6.059-1.653l27.049,33.812
			c3.245,4.056,7.977,6.173,12.771,6.173c3.421,0,6.875-1.079,9.84-3.303L248.5,324.25v47.125c0,4.142,3.358,7.5,7.5,7.5
			c4.142,0,7.5-3.358,7.5-7.5V324.25l16.619,12.464c2.965,2.224,6.418,3.303,9.84,3.303c4.794,0,9.527-2.118,12.771-6.173
			l27.049-33.812l6.065,1.654C328.893,315.768,303.667,361.903,256,397.584z"/>
	</g>
</g>
<g>
</g>
<g>
</g>
<g>
</g>
<g>
</g>
<g>
</g>
<g>
</g>
<g>
</g>
<g>
</g>
<g>
</g>
<g>
</g>
<g>
</g>
<g>
</g>
<g>
</g>
<g>
</g>
<g>
</g>
</svg>
