<?xml version="1.0" encoding="iso-8859-1"?>
<!-- Generator: Adobe Illustrator 19.0.0, SVG Export Plug-In . SVG Version: 6.00 Build 0)  -->
<svg version="1.1" id="Layer_1" xmlns="http://www.w3.org/2000/svg" xmlns:xlink="http://www.w3.org/1999/xlink" x="0px" y="0px"
	 viewBox="0 0 512 512" style="enable-background:new 0 0 512 512;" xml:space="preserve">
<g>
	<g>
		<path d="M246.334,271.007l-53.833-16.15v-21.805c19.895-14.732,33.355-37.684,35.266-63.805
			c10.392-3.128,17.984-12.787,17.984-24.185c0-7.378-3.316-14.371-8.875-19.125V74.062c0-14.222-7.203-27.525-19.008-35.497
			C213.921,23.737,200.621,13.312,185,13.312h-71c-38.392,0-69.625,31.233-69.625,69.625v43c-5.559,4.754-8.875,11.746-8.875,19.125
			c0,11.398,7.592,21.057,17.984,24.185c1.911,26.121,15.37,49.073,35.266,63.805v21.805l-64.431,19.329
			C9.773,278.55,0,291.685,0,306.872v86.69c0,4.142,3.358,7.5,7.5,7.5h1.375v90.125c0,4.142,3.358,7.5,7.5,7.5s7.5-3.358,7.5-7.5
			v-90.125H53.25v90.125c0,4.142,3.358,7.5,7.5,7.5c4.142,0,7.5-3.358,7.5-7.5v-142c0-1.165-0.271-2.313-0.792-3.354l-17.75-35.5
			c-1.852-3.705-6.356-5.207-10.062-3.354c-3.705,1.852-5.207,6.357-3.354,10.062l16.958,33.917v35.104H16.375H15v-79.19
			c0-8.511,5.478-15.873,13.63-18.319l26.933-8.08c9.156,38.905,44.392,67.338,85.063,67.338c20.911,0,41.145-7.503,56.974-21.128
			c14.058-12.1,23.865-28.336,28.071-46.216l16.352,4.907c0.719,0.216,1.444,0.318,2.158,0.318c3.226,0,6.206-2.098,7.181-5.347
			C252.552,276.378,250.301,272.197,246.334,271.007z M68.25,162.812c0-4.142-3.358-7.5-7.5-7.5c-5.652,0-10.25-4.598-10.25-10.25
			c0-3.638,1.924-6.93,5.147-8.806c0.166-0.097,0.317-0.211,0.474-0.319c1.427-0.725,3.01-1.125,4.629-1.125h11.353
			c7.06,0,13.303-4.5,15.535-11.197l5.167-15.5c17.632-0.389,73.2-2.857,104.424-18.47c3.705-1.852,5.207-6.357,3.354-10.062
			c-1.852-3.705-6.356-5.207-10.062-3.354C157.03,92.974,88.067,93.187,87.374,93.187c-3.228,0.001-6.094,2.066-7.114,5.128
			l-6.852,20.557c-0.188,0.562-0.711,0.94-1.305,0.94H60.75c-0.459,0-0.917,0.02-1.375,0.045v-36.92
			c0-30.12,24.505-54.625,54.625-54.625h71c9.408,0,17.313,6.78,18.796,16.121c0.359,2.26,1.73,4.233,3.723,5.357
			c8.855,4.994,14.355,14.294,14.355,24.272v55.712c0,2.67,1.42,5.139,3.728,6.482c3.223,1.876,5.147,5.168,5.147,8.806
			c0,5.652-4.598,10.25-10.25,10.25c-4.142,0-7.5,3.358-7.5,7.5c0,39.908-32.467,72.375-72.375,72.375S68.25,202.719,68.25,162.812z
			 M177.5,242.005v18.432c0,20.333-16.542,36.875-36.875,36.875c-20.301,0-36.82-16.49-36.873-36.779
			c0-0.036-0.002-0.072-0.002-0.107v-18.421c11.211,5.241,23.704,8.182,36.875,8.182S166.289,247.247,177.5,242.005z
			 M187.813,315.315c-13.108,11.283-29.867,17.497-47.188,17.497c-34,0-63.401-23.987-70.649-56.662l19.715-5.914
			c4.595,23.933,25.681,42.076,50.934,42.076c25.254,0,46.339-18.143,50.934-42.077l19.714,5.915
			C207.912,291.302,199.696,305.088,187.813,315.315z"/>
	</g>
</g>
<g>
	<g>
		<path d="M163.1,183.614c-3.217-2.61-7.94-2.117-10.549,1.1c-3.19,3.934-7.425,6.1-11.925,6.1s-8.735-2.166-11.925-6.1
			c-2.608-3.217-7.332-3.709-10.549-1.1c-3.217,2.609-3.709,7.332-1.1,10.549c6.004,7.403,14.596,11.65,23.573,11.65
			s17.569-4.247,23.575-11.65C166.809,190.945,166.317,186.223,163.1,183.614z"/>
	</g>
</g>
<g>
	<g>
		<path d="M105.125,137.562c-4.142,0-7.5,3.358-7.5,7.5v8.875c0,4.142,3.358,7.5,7.5,7.5c4.142,0,7.5-3.358,7.5-7.5v-8.875
			C112.625,140.921,109.267,137.562,105.125,137.562z"/>
	</g>
</g>
<g>
	<g>
		<path d="M176.125,137.562c-4.142,0-7.5,3.358-7.5,7.5v8.875c0,4.142,3.358,7.5,7.5,7.5c4.142,0,7.5-3.358,7.5-7.5v-8.875
			C183.625,140.921,180.267,137.562,176.125,137.562z"/>
	</g>
</g>
<g>
	<g>
		<path d="M402.725,227.987c-3.217-2.61-7.94-2.117-10.549,1.1c-3.19,3.934-7.425,6.1-11.925,6.1s-8.735-2.166-11.925-6.1
			c-2.608-3.217-7.332-3.709-10.549-1.1c-3.217,2.609-3.709,7.332-1.1,10.549c6.005,7.404,14.598,11.65,23.575,11.65
			c8.977,0,17.567-4.246,23.573-11.65C406.434,235.32,405.942,230.596,402.725,227.987z"/>
	</g>
</g>
<g>
	<g>
		<path d="M344.75,181.937c-4.142,0-7.5,3.358-7.5,7.5v8.875c0,4.142,3.358,7.5,7.5,7.5c4.142,0,7.5-3.358,7.5-7.5v-8.875
			C352.25,185.294,348.892,181.937,344.75,181.937z"/>
	</g>
</g>
<g>
	<g>
		<path d="M415.75,181.937c-4.142,0-7.5,3.358-7.5,7.5v8.875c0,4.142,3.358,7.5,7.5,7.5c4.142,0,7.5-3.358,7.5-7.5v-8.875
			C423.25,185.296,419.892,181.937,415.75,181.937z"/>
	</g>
</g>
<g>
	<g>
		<path d="M490.549,335.529l-60.856-24.343c-0.517-0.207-1.009-0.454-1.475-0.733c41.218-8.3,60.521-16.101,61.375-16.451
			c3.134-1.284,5.019-4.51,4.599-7.871c-0.088-0.706-8.817-71.242-8.817-132.195c0-57.966-47.159-105.125-105.125-105.125
			s-105.125,47.16-105.125,105.127c0,60.924-8.729,131.489-8.817,132.195c-0.42,3.361,1.464,6.586,4.599,7.871
			c0.854,0.35,20.157,8.15,61.375,16.451c-0.466,0.279-0.958,0.526-1.475,0.733l-60.855,24.342
			c-13.031,5.212-21.451,17.649-21.451,31.684v18.849H228v-35.104l16.958-33.917c1.853-3.705,0.351-8.21-3.354-10.062
			c-3.705-1.853-8.21-0.351-10.062,3.354l-17.75,35.5c-0.521,1.042-0.792,2.189-0.792,3.354v142c0,4.142,3.358,7.5,7.5,7.5
			c4.142,0,7.5-3.358,7.5-7.5v-90.125h20.5v10.254c0,1.99,0.791,3.898,2.198,5.305c1.406,1.406,3.313,2.195,5.302,2.195
			c0.001,0,0.002,0,0.004,0h1.371v72.371c0,4.142,3.358,7.5,7.5,7.5c4.142,0,7.5-3.358,7.5-7.5v-72.375h20.5v72.375
			c0,4.142,3.358,7.5,7.5,7.5c4.142,0,7.5-3.358,7.5-7.5v-97.625c0-4.142-3.358-7.5-7.5-7.5c-4.142,0-7.5,3.358-7.5,7.5v10.25H263.5
			v-36.6c0-7.866,4.719-14.836,12.022-17.757l29.917-11.967c10.279,32.414,40.433,54.698,74.811,54.698s64.532-22.285,74.811-54.698
			l29.917,11.967c7.303,2.921,12.022,9.892,12.022,17.757v36.6h-29.375v-10.25c0-4.142-3.358-7.5-7.5-7.5
			c-4.142,0-7.5,3.358-7.5,7.5v97.625c0,4.142,3.358,7.5,7.5,7.5c4.142,0,7.5-3.358,7.5-7.5v-72.375h20.5v72.375
			c0,4.142,3.358,7.5,7.5,7.5c4.142,0,7.5-3.358,7.5-7.5v-72.375h1.375c4.142,0,7.5-3.358,7.5-7.5v-44.1
			C512,353.178,503.58,340.742,490.549,335.529z M290.124,153.937c0.001-49.696,40.431-90.125,90.126-90.125
			s90.125,40.43,90.125,90.125c0,51.49,6.124,109.623,8.231,128.098c-8.309,2.823-26.493,8.386-55.356,14.114v-12.912
			c4.164-2.35,8.147-5.039,11.89-8.065c15.239-12.317,26.006-29.568,30.319-48.573c1.437-6.333,2.166-12.864,2.166-19.412
			c0-43.685-31.643-49.967-62.243-56.042c-19.57-3.885-39.806-7.903-55.947-20.815c-1.765-1.413-4.077-1.949-6.286-1.466
			c-2.209,0.482-4.085,1.939-5.103,3.959c-0.042,0.083-4.244,8.355-11.351,16.41c-6.019,6.822-15.472,14.954-26.321,14.954
			c-3.692,0-7.199,0.803-10.363,2.234C290.084,162.234,290.124,158.064,290.124,153.937z M380.25,279.563
			c-16.746,0-32.466-5.553-45.461-16.057c-12.629-10.208-21.55-24.494-25.121-40.227c-1.19-5.245-1.793-10.66-1.793-16.092
			c0-4.142-3.358-7.5-7.5-7.5c-5.652,0-10.25-4.598-10.25-10.25s4.598-10.25,10.25-10.25c22.743,0,39.239-20.594,46.688-32.116
			c17.491,11.261,37.496,15.233,55.398,18.788c32.963,6.544,50.164,11.354,50.164,41.329c0,5.433-0.604,10.847-1.793,16.092
			c-3.57,15.733-12.492,30.019-25.121,40.227C412.716,274.011,396.996,279.563,380.25,279.563z M281.894,282.035
			c1.327-11.638,4.248-39.011,6.228-70.545c1.571,0.876,3.235,1.604,4.988,2.132c0.32,4.378,0.965,8.722,1.931,12.977
			c4.313,19.005,15.081,36.256,30.319,48.573c3.743,3.026,7.726,5.715,11.89,8.065v12.912
			C308.382,290.42,290.198,284.857,281.894,282.035z M380.25,377.188c-28.18,0-52.858-18.501-60.846-45.284l16.973-6.789
			c9.642-3.857,15.873-13.059,15.873-23.444v-11.745c8.97,3.034,18.432,4.638,28,4.638s19.03-1.604,28-4.638v11.745
			c0,10.385,6.23,19.587,15.872,23.444l16.974,6.79C433.108,358.685,408.431,377.188,380.25,377.188z"/>
	</g>
</g>
<g>
</g>
<g>
</g>
<g>
</g>
<g>
</g>
<g>
</g>
<g>
</g>
<g>
</g>
<g>
</g>
<g>
</g>
<g>
</g>
<g>
</g>
<g>
</g>
<g>
</g>
<g>
</g>
<g>
</g>
</svg>
