<svg width="12" height="22" viewBox="0 0 12 22" fill="none" xmlns="http://www.w3.org/2000/svg">
<path d="M11.5105 4.15C11.2605 3.38 10.5905 3.21 10.2505 2.77C9.94046 2.31 9.98046 1.62 9.33046 1.15C8.68046 0.68 8.03046 0.92 7.50046 0.77C6.97046 0.62 6.61046 0 5.80046 0C4.99046 0 4.62046 0.58 4.10046 0.77C3.58046 0.96 2.93046 0.67 2.27046 1.15C1.61046 1.63 1.66046 2.31 1.35046 2.77C1.01046 3.21 0.350463 3.38 0.0904627 4.15C-0.169537 4.92 0.300463 5.45 0.300463 6C0.300463 6.55 -0.199537 7.08 0.0904627 7.85C0.380463 8.62 1.01046 8.79 1.35046 9.23C1.66046 9.69 1.62046 10.38 2.27046 10.85C2.92046 11.32 3.57046 11.08 4.10046 11.23C4.63046 11.38 4.99046 12 5.80046 12C6.61046 12 6.98046 11.42 7.50046 11.23C8.02046 11.04 8.67046 11.33 9.33046 10.85C9.99046 10.37 9.94046 9.69 10.2505 9.23C10.5905 8.79 11.2505 8.62 11.5105 7.85C11.7705 7.08 11.3005 6.55 11.3005 6C11.3005 5.45 11.8005 4.92 11.5105 4.15ZM5.80046 10C5.00934 10 4.23598 9.7654 3.57818 9.32588C2.92039 8.88635 2.40769 8.26164 2.10494 7.53073C1.80219 6.79983 1.72298 5.99556 1.87732 5.21964C2.03166 4.44371 2.41263 3.73098 2.97204 3.17157C3.53145 2.61216 4.24418 2.2312 5.0201 2.07686C5.79603 1.92252 6.60029 2.00173 7.3312 2.30448C8.0621 2.60723 8.68682 3.11992 9.12634 3.77772C9.56587 4.43552 9.80046 5.20887 9.80046 6C9.80046 7.06087 9.37904 8.07828 8.62889 8.82843C7.87874 9.57857 6.86133 10 5.80046 10ZM7.80046 6C7.80046 6.39556 7.68316 6.78224 7.4634 7.11114C7.24364 7.44004 6.93128 7.69638 6.56583 7.84776C6.20038 7.99913 5.79824 8.03874 5.41028 7.96157C5.02232 7.8844 4.66595 7.69392 4.38625 7.41421C4.10654 7.13451 3.91606 6.77814 3.83889 6.39018C3.76172 6.00222 3.80133 5.60009 3.9527 5.23463C4.10408 4.86918 4.36042 4.55682 4.68932 4.33706C5.01822 4.1173 5.4049 4 5.80046 4C6.3309 4 6.8396 4.21071 7.21468 4.58579C7.58975 4.96086 7.80046 5.46957 7.80046 6ZM7.51046 13.56L6.88046 17.16L6.15046 21.29L3.54046 18.8L0.240463 20.25L1.57046 12.75C2.15656 13.0427 2.80557 13.1869 3.46046 13.17C3.86203 13.4763 4.31614 13.7068 4.80046 13.85C5.12418 13.9508 5.46143 14.0014 5.80046 14C6.3987 14.0019 6.98743 13.8504 7.51046 13.56ZM11.7205 16.78L9.14046 15.86L9.65046 12.92C9.95485 12.8137 10.2414 12.662 10.5005 12.47L10.6205 12.37L11.7205 16.78Z" fill="url(#paint0_linear)"/>
<defs>
<linearGradient id="paint0_linear" x1="11.7205" y1="21.29" x2="-6.26858" y2="11.3868" gradientUnits="userSpaceOnUse">
<stop offset="0.125338" stop-color="#E0EC00"/>
<stop offset="0.713651" stop-color="#84FFC4"/>
</linearGradient>
</defs>
</svg>
