<?xml version="1.0" encoding="iso-8859-1"?>
<!-- Generator: Adobe Illustrator 19.0.0, SVG Export Plug-In . SVG Version: 6.00 Build 0)  -->
<svg version="1.1" id="Layer_1" xmlns="http://www.w3.org/2000/svg" xmlns:xlink="http://www.w3.org/1999/xlink" x="0px" y="0px"
	 viewBox="0 0 512 512" style="enable-background:new 0 0 512 512;" xml:space="preserve">
<g>
	<g>
		<path d="M238.862,145.672c-4.142,0-7.5,3.358-7.5,7.5v8.569c0,4.142,3.358,7.5,7.5,7.5c4.142,0,7.5-3.358,7.5-7.5v-8.569
			C246.362,149.03,243.004,145.672,238.862,145.672z"/>
	</g>
</g>
<g>
	<g>
		<path d="M324.552,145.672c-4.142,0-7.5,3.358-7.5,7.5v8.569c0,4.143,3.358,7.5,7.5,7.5c4.142,0,7.5-3.358,7.5-7.5v-8.569
			C332.052,149.03,328.694,145.672,324.552,145.672z"/>
	</g>
</g>
<g>
	<g>
		<path d="M313.207,199.824c-2.63-3.2-7.356-3.662-10.557-1.031c-5.306,4.362-12.939,6.863-20.944,6.863s-15.639-2.501-20.944-6.863
			c-3.2-2.63-7.926-2.168-10.557,1.031c-2.63,3.2-2.168,7.926,1.031,10.556c8.061,6.626,18.882,10.275,30.47,10.275
			s22.409-3.649,30.47-10.275C315.376,207.75,315.838,203.023,313.207,199.824z"/>
	</g>
</g>
<g>
	<g>
		<path d="M382.911,308.97l-59.429-23.772V263.09c33.173-14.995,56.929-47.268,59.709-85.28h1.343
			c13.585,0,24.638-11.052,24.638-24.638c0-10.971-7.209-20.291-17.138-23.471v-27.943C392.035,45.649,346.385,0,290.276,0h-17.138
			c-53.587,0-97.629,41.637-101.481,94.259h-61.329c-4.142,0-7.5,3.358-7.5,7.5c0,4.142,3.358,7.5,7.5,7.5h61.052v20.443
			c-9.93,3.18-17.138,12.5-17.138,23.471c0,13.585,11.053,24.638,24.638,24.638h1.342c2.78,38.011,26.536,70.285,59.709,85.28
			v22.108l-59.429,23.772c-15.953,6.381-26.261,21.606-26.261,38.788v45.346c0,6.152,3.479,11.501,8.569,14.201V504.5
			c0,4.142,3.358,7.5,7.5,7.5c4.142,0,7.5-3.358,7.5-7.5v-95.328h27.845V504.5c0,4.142,3.358,7.5,7.5,7.5c4.142,0,7.5-3.358,7.5-7.5
			V375.966c0-1.481-0.438-2.928-1.26-4.16l-17.138-25.707c-2.297-3.447-6.955-4.378-10.4-2.08c-3.447,2.298-4.378,6.954-2.08,10.4
			l15.878,23.818v15.936H170.31c-0.59,0-1.069-0.479-1.069-1.069v-45.346c0-11.012,6.607-20.771,16.832-24.861l53.938-21.575
			c1.287,21.886,19.493,39.299,41.696,39.299s40.409-17.413,41.696-39.299l53.938,21.575c10.225,4.09,16.831,13.848,16.831,24.861
			v45.346c0,0.589-0.479,1.069-1.069,1.069h-35.345v-15.936l15.878-23.818c2.298-3.447,1.367-8.103-2.08-10.401
			c-3.447-2.298-8.104-1.366-10.4,2.08l-17.138,25.707c-0.821,1.232-1.26,2.679-1.26,4.16V504.5c0,4.142,3.358,7.5,7.5,7.5
			c4.142,0,7.5-3.358,7.5-7.5v-95.328h27.845V504.5c0,4.142,3.358,7.5,7.5,7.5c4.142,0,7.5-3.358,7.5-7.5v-97.196
			c5.09-2.699,8.569-8.049,8.569-14.2v-45.346C409.172,330.576,398.864,315.351,382.911,308.97z M273.138,15h17.138
			c45.313,0,82.624,34.917,86.438,79.259H186.701C190.514,49.917,227.825,15,273.138,15z M377.033,109.258v19.276h-4.825
			c-4.431,0-8.275-3.002-9.351-7.3l-2.994-11.976H377.033z M186.379,109.259h17.171l-2.994,11.976c-1.075,4.298-4.92,7.3-9.351,7.3
			h-4.826V109.259z M308.483,290.404c0,0.008,0,0.016,0,0.023v8.418c0,14.764-12.012,26.776-26.776,26.776
			c-14.764,0-26.776-12.011-26.776-26.776v-8.418c0-0.008,0-0.016,0-0.023v-21.91c8.535,2.33,17.512,3.575,26.776,3.575
			c9.264,0,18.241-1.246,26.776-3.575V290.404z M281.707,257.069c-47.839,0-86.759-38.92-86.759-86.759c0-4.142-3.358-7.5-7.5-7.5
			h-8.569c-5.314,0-9.638-4.323-9.638-9.638s4.324-9.638,9.638-9.638h12.326c11.327,0,21.156-7.674,23.902-18.662l3.904-15.614
			h125.392l3.903,15.614c2.748,10.988,12.577,18.662,23.902,18.662h12.326c5.314,0,9.638,4.323,9.638,9.638
			s-4.323,9.638-9.638,9.638h-8.569c-4.142,0-7.5,3.358-7.5,7.5C368.465,218.149,329.546,257.069,281.707,257.069z"/>
	</g>
</g>
<g>
</g>
<g>
</g>
<g>
</g>
<g>
</g>
<g>
</g>
<g>
</g>
<g>
</g>
<g>
</g>
<g>
</g>
<g>
</g>
<g>
</g>
<g>
</g>
<g>
</g>
<g>
</g>
<g>
</g>
</svg>
