<?xml version="1.0" encoding="iso-8859-1"?>
<!-- Generator: Adobe Illustrator 19.0.0, SVG Export Plug-In . SVG Version: 6.00 Build 0)  -->
<svg version="1.1" id="Layer_1" xmlns="http://www.w3.org/2000/svg" xmlns:xlink="http://www.w3.org/1999/xlink" x="0px" y="0px"
	 viewBox="0 0 512 512" style="enable-background:new 0 0 512 512;" xml:space="preserve">
<g>
	<g>
		<path d="M167.924,395.275l-21.3-28.4c-2.485-3.313-7.185-3.985-10.5-1.5c-3.313,2.485-3.985,7.187-1.5,10.5l21.3,28.4
			c2.467,3.289,3.825,7.364,3.825,11.475v88.75c0,4.142,3.358,7.5,7.5,7.5c4.142,0,7.5-3.358,7.5-7.5v-88.75
			C174.749,408.415,172.325,401.144,167.924,395.275z"/>
	</g>
</g>
<g>
	<g>
		<path d="M386.821,327.652c6.244-7.622,9.803-17.275,9.803-27.277c0-14.341-7.259-27.649-18.964-35.563
			c0.808-2.891,1.214-5.836,1.214-8.812c0-14.386-9.136-27.046-22.163-31.953c2.134-7.109,3.534-14.532,4.112-22.181
			c17.382-19.359,26.926-44.157,26.926-70.116C387.749,59.103,328.646,0,255.999,0s-131.75,59.103-131.75,131.75
			c0,25.959,9.542,50.754,26.924,70.114c0.574,7.667,1.963,15.094,4.078,22.197c-13.007,4.916-22.126,17.567-22.126,31.94
			c0,2.976,0.407,5.921,1.214,8.812c-11.706,7.914-18.964,21.222-18.964,35.563c0,10.002,3.556,19.657,9.801,27.278
			c-17.244,13.002-27.551,33.308-27.551,55.492V504.5c0,4.142,3.358,7.5,7.5,7.5c4.142,0,7.5-3.358,7.5-7.5V383.146
			c0-20.824,11.57-39.545,30.196-48.858l10.133-5.066c25.165,31.601,62.521,49.654,103.046,49.654
			c40.548,0,77.888-18.046,103.051-49.652l10.128,5.064c18.625,9.313,30.196,28.034,30.196,48.858V504.5c0,4.142,3.358,7.5,7.5,7.5
			c4.142,0,7.5-3.358,7.5-7.5V383.146C414.374,360.961,404.066,340.654,386.821,327.652z M139.249,131.75
			c0-64.376,52.374-116.75,116.75-116.75s116.75,52.374,116.75,116.75c0,16.806-4.672,33.048-13.386,47.145
			c-8.118-31.783-42.974-39.759-76.821-47.504c-23.438-5.363-47.674-10.909-66.757-23.631c-3.401-2.269-8.005-1.375-10.335,1.983
			c-0.131,0.189-13.487,19.124-43.741,35.673c-3.634,1.988-4.969,6.545-2.981,10.179c1.988,3.634,6.545,4.967,10.179,2.981
			c23.534-12.874,37.778-27.044,44.42-34.699c20.275,11.703,44.378,17.219,65.869,22.136c7.201,1.648,13.906,3.234,20.091,4.889
			c-13.563,0.428-25.154,8.801-30.256,20.615c-3.943-1.87-8.385-2.893-13.032-2.893c-4.647,0-9.088,1.023-13.032,2.893
			c-5.238-12.13-17.313-20.643-31.343-20.643c-18.816,0-34.125,15.309-34.125,34.125c0,18.816,15.309,34.125,34.125,34.125
			c17.878,0,32.579-13.823,34.002-31.341c2.476-2.594,6.283-4.159,10.373-4.159c4.09,0,7.897,1.565,10.373,4.159
			c1.423,17.518,16.124,31.341,34.002,31.341c18.816,0,34.125-15.309,34.125-34.125c0-10.583-4.843-20.056-12.428-26.32
			c15.409,7.116,24.053,17.151,24.053,35.195c0,49.696-40.43,90.126-90.125,90.126c-48.146,0-87.687-37.635-90.018-85.679
			c-0.1-2.056-1.037-3.958-2.558-5.286C147.83,176.266,139.249,154.525,139.249,131.75z M319.499,185
			c0,10.545-8.58,19.125-19.125,19.125c-10.544,0-19.123-8.578-19.125-19.121c0-0.005,0-0.01,0-0.015
			c0.006-10.54,8.583-19.114,19.125-19.114C310.919,165.875,319.499,174.455,319.499,185z M230.749,184.989c0,0.005,0,0.01,0,0.015
			c-0.002,10.543-8.581,19.121-19.125,19.121c-10.545,0-19.125-8.58-19.125-19.125s8.58-19.125,19.125-19.125
			C222.166,165.875,230.742,174.449,230.749,184.989z M306.832,303.114l5.37,2.685c-15.058,14.445-35.069,22.576-56.203,22.576
			c-21.102,0-41.142-8.135-56.204-22.575l5.371-2.685c5.158-2.579,9.138-6.721,11.503-11.697c12.159,4.893,25.437,7.582,39.33,7.582
			c13.887,0,27.153-2.709,39.3-7.622C297.664,296.372,301.66,300.528,306.832,303.114z M138.224,319.815
			c-5.029-5.183-7.849-12.055-7.849-19.441c-0.001-10.88,6.445-20.855,16.421-25.413c1.867-0.853,3.302-2.433,3.973-4.372
			c0.67-1.939,0.516-4.069-0.425-5.892c-1.473-2.852-2.22-5.778-2.22-8.698c0-8.069,5.13-15.157,12.434-17.901
			c9.093,19.654,24.063,35.952,42.622,46.728c-0.954,2.073-2.586,3.804-4.721,4.871L138.224,319.815z M255.999,363.875
			c-34.838,0-67.034-15.061-89.291-41.532l18.979-9.49c18.187,19.459,43.526,30.522,70.312,30.522
			c26.825,0,52.122-11.057,70.308-30.523l18.986,9.493C323.04,348.82,290.857,363.875,255.999,363.875z M373.775,319.817
			l-60.236-30.118c-2.159-1.08-3.809-2.836-4.758-4.94c18.537-10.808,33.487-27.121,42.589-46.685
			c7.341,2.723,12.504,9.831,12.504,17.926c0,2.92-0.747,5.846-2.22,8.698c-0.941,1.823-1.095,3.952-0.425,5.892
			c0.67,1.939,2.106,3.52,3.973,4.372c9.976,4.558,16.422,14.533,16.422,25.414C381.624,307.761,378.804,314.634,373.775,319.817z"
			/>
	</g>
</g>
<g>
	<g>
		<path d="M375.874,365.375c-3.313-2.485-8.015-1.813-10.5,1.5l-21.3,28.4c-4.401,5.869-6.825,13.14-6.825,20.475v88.75
			c0,4.142,3.358,7.5,7.5,7.5c4.142,0,7.5-3.358,7.5-7.5v-88.75c0-4.111,1.358-8.186,3.825-11.475l21.3-28.4
			C379.859,372.562,379.187,367.86,375.874,365.375z"/>
	</g>
</g>
<g>
	<g>
		<path d="M288.418,224.613c-2.63-3.2-7.356-3.662-10.556-1.032c-5.543,4.556-13.512,7.169-21.863,7.169s-16.32-2.613-21.863-7.169
			c-3.199-2.631-7.926-2.168-10.556,1.032c-2.63,3.2-2.168,7.926,1.032,10.556c8.301,6.823,19.448,10.581,31.387,10.581
			c11.939,0,23.086-3.758,31.387-10.581C290.586,232.539,291.048,227.813,288.418,224.613z"/>
	</g>
</g>
<g>
	<g>
		<path d="M211.624,168.625c-4.142,0-7.5,3.358-7.5,7.5V185c0,4.142,3.358,7.5,7.5,7.5c4.142,0,7.5-3.358,7.5-7.5v-8.875
			C219.124,171.983,215.766,168.625,211.624,168.625z"/>
	</g>
</g>
<g>
	<g>
		<path d="M300.374,168.625c-4.142,0-7.5,3.358-7.5,7.5V185c0,4.142,3.358,7.5,7.5,7.5c4.142,0,7.5-3.358,7.5-7.5v-8.875
			C307.874,171.983,304.516,168.625,300.374,168.625z"/>
	</g>
</g>
<g>
</g>
<g>
</g>
<g>
</g>
<g>
</g>
<g>
</g>
<g>
</g>
<g>
</g>
<g>
</g>
<g>
</g>
<g>
</g>
<g>
</g>
<g>
</g>
<g>
</g>
<g>
</g>
<g>
</g>
</svg>
